<svg width="259" height="44" viewBox="0 0 259 44" fill="none" xmlns="http://www.w3.org/2000/svg">
<path d="M8.90449 26.884C8.87649 26.968 8.80649 27.01 8.69449 27.01C8.44249 27.01 8.35849 26.898 8.44249 26.674C9.08649 25.47 10.0665 24.224 11.3825 22.936C12.6985 21.648 14.2945 20.528 16.1705 19.576C18.0465 18.596 20.1325 18.008 22.4285 17.812C22.6245 17.784 22.8065 17.77 22.9745 17.77C23.1425 17.77 23.3245 17.77 23.5205 17.77C25.3405 17.77 26.6565 18.176 27.4685 18.988C28.2805 19.772 28.6305 20.766 28.5185 21.97C28.3785 23.65 27.7765 25.19 26.7125 26.59C25.6765 27.99 24.3325 29.194 22.6805 30.202C21.0565 31.21 19.2785 31.98 17.3465 32.512C15.4145 33.072 13.4965 33.352 11.5925 33.352C9.57649 33.352 7.70049 33.002 5.96449 32.302C4.25649 31.63 2.87049 30.566 1.80649 29.11C0.770492 27.626 0.252492 25.694 0.252492 23.314C0.252492 23.09 0.252492 22.866 0.252492 22.642C0.252492 22.418 0.266492 22.194 0.294492 21.97C0.462492 20.178 0.966492 18.33 1.80649 16.426C2.67449 14.522 3.83649 12.702 5.29249 10.966C6.77649 9.23 8.51249 7.676 10.5005 6.304C12.5165 4.932 14.7425 3.84 17.1785 3.028C19.6145 2.216 22.2325 1.81 25.0325 1.81C26.8805 1.81 28.2385 2.146 29.1065 2.818C30.0025 3.49 30.4505 4.274 30.4505 5.17C30.4505 5.87 30.1845 6.598 29.6525 7.354C29.1205 8.082 28.3505 8.726 27.3425 9.286C26.2225 9.902 24.9905 10.392 23.6465 10.756C22.3305 11.092 21.0565 11.344 19.8245 11.512C18.5925 11.652 17.5705 11.764 16.7585 11.848H16.7165C16.6325 11.848 16.5905 11.806 16.5905 11.722C16.5905 11.582 16.6885 11.498 16.8845 11.47C18.7325 11.274 20.5385 10.91 22.3025 10.378C24.0665 9.818 25.5785 9.16 26.8385 8.404C27.5385 7.984 28.0985 7.466 28.5185 6.85C28.9385 6.234 29.1485 5.618 29.1485 5.002C29.1485 4.302 28.7985 3.7 28.0985 3.196C27.4265 2.664 26.2925 2.398 24.6965 2.398C22.2605 2.398 19.9785 2.804 17.8505 3.616C15.7505 4.4 13.8325 5.478 12.0965 6.85C10.3885 8.194 8.89049 9.734 7.60249 11.47C6.34249 13.178 5.33449 14.97 4.57849 16.846C3.85049 18.694 3.40249 20.5 3.23449 22.264C3.20649 22.544 3.17849 22.81 3.15049 23.062C3.15049 23.314 3.15049 23.566 3.15049 23.818C3.15049 25.974 3.55649 27.724 4.36849 29.068C5.18049 30.412 6.25849 31.378 7.60249 31.966C8.94649 32.582 10.4165 32.89 12.0125 32.89C13.6645 32.89 15.3305 32.61 17.0105 32.05C18.6905 31.49 20.2585 30.72 21.7145 29.74C23.1705 28.732 24.3605 27.556 25.2845 26.212C26.2365 24.868 26.7685 23.426 26.8805 21.886C26.9925 20.738 26.6845 19.828 25.9565 19.156C25.2565 18.456 24.0805 18.176 22.4285 18.316C20.2165 18.512 18.2005 19.086 16.3805 20.038C14.5605 20.962 13.0065 22.04 11.7185 23.272C10.4585 24.504 9.52049 25.708 8.90449 26.884ZM37.4806 31.294C36.5286 31.294 35.8566 31.014 35.4646 30.454C35.1006 29.894 34.9186 29.292 34.9186 28.648C34.9186 28.368 34.9466 28.102 35.0026 27.85C35.0586 27.57 35.1286 27.304 35.2126 27.052C35.6886 25.82 36.3466 24.644 37.1866 23.524C38.0266 22.404 38.7266 21.242 39.2866 20.038C39.4826 19.674 39.5806 19.338 39.5806 19.03C39.5806 18.694 39.4826 18.442 39.2866 18.274C39.0906 18.106 38.8806 18.022 38.6566 18.022C38.1246 18.022 37.5366 18.26 36.8926 18.736C36.2766 19.184 35.6746 19.758 35.0866 20.458C34.5546 21.074 34.0086 21.788 33.4486 22.6C32.8886 23.384 32.3566 24.224 31.8526 25.12C31.3766 25.932 30.8866 26.786 30.3826 27.682C29.8786 28.55 29.4726 29.292 29.1646 29.908C28.9406 30.384 28.7026 30.692 28.4506 30.832C28.1986 30.972 27.9606 31.042 27.7366 31.042C27.6246 31.042 27.5126 31.028 27.4006 31C27.2886 31 27.1906 31 27.1066 31C27.3586 30.048 27.8206 28.746 28.4926 27.094C29.1926 25.414 30.0186 23.426 30.9706 21.13C31.5026 19.898 32.1326 18.484 32.8606 16.888C33.5886 15.264 34.4146 13.612 35.3386 11.932C36.2626 10.224 37.2846 8.614 38.4046 7.102C39.5246 5.562 40.7286 4.218 42.0166 3.07C43.3326 1.922 44.7186 1.124 46.1746 0.675997C46.3426 0.647998 46.5106 0.619998 46.6786 0.591998C46.8466 0.563999 47.0146 0.549999 47.1826 0.549999C47.6026 0.549999 47.9666 0.647999 48.2746 0.843998C48.6666 1.096 48.8626 1.544 48.8626 2.188C48.8626 2.636 48.7366 3.182 48.4846 3.826C48.0366 4.946 47.2946 6.15 46.2586 7.438C45.2506 8.726 44.0606 10.042 42.6886 11.386C40.9806 13.038 39.3426 14.494 37.7746 15.754C36.2066 17.014 34.9466 18.008 33.9946 18.736C33.4346 19.94 32.9726 20.99 32.6086 21.886C32.2446 22.754 32.0066 23.384 31.8946 23.776C32.3426 23.104 32.8466 22.376 33.4066 21.592C33.9946 20.78 34.5126 20.15 34.9606 19.702C35.6046 19.058 36.2486 18.512 36.8926 18.064C37.5366 17.616 38.1666 17.364 38.7826 17.308C39.7346 17.224 40.4206 17.35 40.8406 17.686C41.2606 17.994 41.4706 18.456 41.4706 19.072C41.4706 19.688 41.3026 20.374 40.9666 21.13C40.6026 21.998 40.1686 22.866 39.6646 23.734C39.1606 24.602 38.6986 25.442 38.2786 26.254C38.1666 26.478 37.9566 26.912 37.6486 27.556C37.3686 28.172 37.1866 28.76 37.1026 29.32C37.1026 29.348 37.0886 29.39 37.0606 29.446C37.0606 29.502 37.0606 29.558 37.0606 29.614C37.0606 29.922 37.1446 30.16 37.3126 30.328C37.4806 30.468 37.6766 30.538 37.9006 30.538C38.3766 30.538 38.8246 30.384 39.2446 30.076C39.6646 29.768 40.0286 29.432 40.3366 29.068C40.9806 28.368 41.5686 27.598 42.1006 26.758C42.6326 25.918 43.1646 25.022 43.6966 24.07C43.7806 23.958 43.8646 23.902 43.9486 23.902C44.0606 23.902 44.1166 23.986 44.1166 24.154C44.1166 24.294 44.0886 24.406 44.0326 24.49C43.5286 25.414 42.9826 26.338 42.3946 27.262C41.8346 28.186 41.1486 29.054 40.3366 29.866C39.9726 30.23 39.5526 30.566 39.0766 30.874C38.6006 31.154 38.0686 31.294 37.4806 31.294ZM34.3726 17.896C36.0526 16.664 37.5646 15.418 38.9086 14.158C40.2526 12.898 41.6106 11.54 42.9826 10.084C43.3746 9.664 43.8786 9.104 44.4946 8.404C45.1386 7.704 45.7686 6.948 46.3846 6.136C47.0006 5.324 47.4626 4.54 47.7706 3.784C48.0506 3.14 48.1906 2.594 48.1906 2.146C48.1906 1.39 47.8406 1.012 47.1406 1.012C46.7766 1.012 46.3706 1.124 45.9226 1.348C45.4746 1.572 45.0546 1.88 44.6626 2.272C43.3186 3.532 42.0026 5.072 40.7146 6.892C39.4546 8.684 38.2786 10.546 37.1866 12.478C36.1226 14.41 35.1846 16.216 34.3726 17.896ZM47.4789 31.336C45.8549 31.336 44.7069 30.916 44.0349 30.076C43.6989 29.712 43.4609 29.278 43.3209 28.774C43.1809 28.27 43.1109 27.752 43.1109 27.22C43.1109 26.548 43.1949 25.876 43.3629 25.204C43.5309 24.504 43.7409 23.86 43.9929 23.272C44.3849 22.348 44.9029 21.424 45.5469 20.5C46.1909 19.548 46.9609 18.75 47.8569 18.106C48.7809 17.462 49.7889 17.14 50.8809 17.14C51.6089 17.14 52.1829 17.322 52.6029 17.686C53.0229 18.05 53.2329 18.61 53.2329 19.366C53.2329 20.234 52.9669 21.116 52.4349 22.012C51.9029 22.88 51.2309 23.608 50.4189 24.196C49.6069 24.784 48.7669 25.078 47.8989 25.078C47.1149 25.078 46.4289 24.798 45.8409 24.238C45.6729 24.686 45.5329 25.19 45.4209 25.75C45.3089 26.282 45.2529 26.828 45.2529 27.388C45.2529 28.256 45.4209 29.012 45.7569 29.656C46.1209 30.3 46.7649 30.622 47.6889 30.622C48.3609 30.622 49.0049 30.454 49.6209 30.118C50.2649 29.754 50.8389 29.32 51.3429 28.816C51.9029 28.228 52.4349 27.598 52.9389 26.926C53.4429 26.254 53.9329 25.47 54.4089 24.574C54.4649 24.49 54.5069 24.448 54.5349 24.448C54.6469 24.448 54.7029 24.574 54.7029 24.826C54.7029 24.994 54.6469 25.176 54.5349 25.372C54.1149 26.128 53.6249 26.898 53.0649 27.682C52.5049 28.438 51.9309 29.096 51.3429 29.656C50.8109 30.16 50.2369 30.566 49.6209 30.874C49.0049 31.182 48.2909 31.336 47.4789 31.336ZM46.0509 23.608C46.2469 23.888 46.4709 24.098 46.7229 24.238C47.0029 24.35 47.2829 24.406 47.5629 24.406C48.2349 24.406 48.9349 24.154 49.6629 23.65C50.3909 23.118 50.9789 22.502 51.4269 21.802C51.6229 21.494 51.7909 21.088 51.9309 20.584C52.0989 20.08 52.1829 19.604 52.1829 19.156C52.1829 18.764 52.0989 18.428 51.9309 18.148C51.7909 17.84 51.4969 17.686 51.0489 17.686C50.5449 17.686 49.9429 17.994 49.2429 18.61C48.5709 19.226 47.9269 20.024 47.3109 21.004C47.1149 21.34 46.8909 21.732 46.6389 22.18C46.4149 22.628 46.2189 23.104 46.0509 23.608ZM54.2711 42.928C54.0751 42.956 53.8931 42.97 53.7251 42.97C53.5571 42.998 53.3891 43.012 53.2211 43.012C52.2691 43.012 51.5551 42.76 51.0791 42.256C50.5751 41.752 50.3231 41.15 50.3231 40.45C50.3231 39.862 50.5051 39.246 50.8691 38.602C51.2051 37.986 51.7231 37.454 52.4231 37.006C53.7951 36.11 55.3491 35.284 57.0851 34.528C58.8491 33.8 60.5711 32.96 62.2511 32.008C62.3351 31.784 62.4191 31.532 62.5031 31.252C62.6151 31 62.6991 30.734 62.7551 30.454C62.8391 30.062 62.8811 29.712 62.8811 29.404C62.8811 28.732 62.6991 28.242 62.3351 27.934C61.9991 27.626 61.5371 27.472 60.9491 27.472C60.3051 27.472 59.5771 27.64 58.7651 27.976C58.5411 28.06 58.2891 28.158 58.0091 28.27C57.7291 28.382 57.4351 28.508 57.1271 28.648C56.8471 29.208 56.4271 29.712 55.8671 30.16C55.3351 30.608 54.8871 30.86 54.5231 30.916C54.4391 30.944 54.3131 30.958 54.1451 30.958C53.6131 30.958 53.3471 30.72 53.3471 30.244C53.3471 29.768 53.5991 29.39 54.1031 29.11C54.8591 28.662 55.5731 28.186 56.2451 27.682C56.9451 27.178 57.6591 26.576 58.3871 25.876C59.1431 25.148 59.9971 24.252 60.9491 23.188C61.5371 22.516 62.1391 21.872 62.7551 21.256C63.3991 20.612 64.0431 19.996 64.6871 19.408C64.4911 19.352 64.1831 19.31 63.7631 19.282C63.3431 19.226 62.9091 19.17 62.4611 19.114C62.0411 19.058 61.7051 19.016 61.4531 18.988C61.2851 18.96 61.1171 18.946 60.9491 18.946C60.8091 18.946 60.6691 18.946 60.5291 18.946C59.9131 18.946 59.3391 19.058 58.8071 19.282C58.3031 19.478 57.8271 19.884 57.3791 20.5C57.0151 21.004 56.5951 21.676 56.1191 22.516C55.6711 23.328 55.0971 24.35 54.3971 25.582C54.3131 25.75 54.2291 25.834 54.1451 25.834C54.0331 25.834 53.9771 25.736 53.9771 25.54C53.9771 25.4 54.0331 25.232 54.1451 25.036C54.7051 24.084 55.1531 23.244 55.4891 22.516C55.8251 21.788 56.2451 20.99 56.7491 20.122C57.1411 19.422 57.5331 18.862 57.9251 18.442C58.3451 17.994 58.8911 17.686 59.5631 17.518C59.7871 17.462 60.0111 17.42 60.2351 17.392C60.4871 17.364 60.7391 17.35 60.9911 17.35C61.5511 17.35 62.0971 17.378 62.6291 17.434C63.1891 17.49 63.6931 17.518 64.1411 17.518C64.3651 17.518 64.7151 17.518 65.1911 17.518C65.6951 17.49 66.1851 17.462 66.6611 17.434C67.1371 17.378 67.4591 17.308 67.6271 17.224C67.8511 17.308 67.9631 17.504 67.9631 17.812C67.9631 18.176 67.7811 18.582 67.4171 19.03C67.0531 19.45 66.5071 19.618 65.7791 19.534C65.0791 19.982 64.3091 20.626 63.4691 21.466C62.6291 22.306 61.9151 23.034 61.3271 23.65C61.1031 23.902 60.7531 24.252 60.2771 24.7C59.8011 25.148 59.2971 25.638 58.7651 26.17C58.2611 26.702 57.7991 27.22 57.3791 27.724C57.3791 27.752 57.3651 27.78 57.3371 27.808C57.3371 27.836 57.3371 27.878 57.3371 27.934C57.8691 27.598 58.4851 27.318 59.1851 27.094C59.7451 26.926 60.2351 26.814 60.6551 26.758C61.1031 26.674 61.5091 26.632 61.8731 26.632C62.8251 26.632 63.4831 26.87 63.8471 27.346C64.2391 27.822 64.4351 28.424 64.4351 29.152C64.4351 29.544 64.3931 29.978 64.3091 30.454C65.2331 29.614 66.1011 28.69 66.9131 27.682C67.7251 26.646 68.3971 25.652 68.9291 24.7C69.1811 24.308 69.4051 24.112 69.6011 24.112C69.6571 24.112 69.6851 24.154 69.6851 24.238C69.6851 24.35 69.6291 24.504 69.5171 24.7C69.0131 25.596 68.4671 26.478 67.8791 27.346C67.2911 28.186 66.6471 28.97 65.9471 29.698C65.4431 30.202 64.8411 30.734 64.1411 31.294C64.0571 31.602 63.9591 31.924 63.8471 32.26C63.7351 32.596 63.6091 32.932 63.4691 33.268C62.8251 34.864 62.0411 36.348 61.1171 37.72C60.2211 39.092 59.1991 40.226 58.0511 41.122C56.9311 42.046 55.6711 42.648 54.2711 42.928ZM54.0191 42.214C55.4471 41.794 56.6371 41.066 57.5891 40.03C58.5691 39.022 59.4091 37.86 60.1091 36.544C60.8091 35.256 61.4531 33.996 62.0411 32.764C61.3691 33.212 60.4591 33.688 59.3111 34.192C58.1911 34.724 57.0431 35.256 55.8671 35.788C54.6911 36.348 53.6691 36.922 52.8011 37.51C52.2131 37.902 51.7791 38.364 51.4991 38.896C51.2191 39.456 51.0791 39.988 51.0791 40.492C51.0791 41.024 51.2331 41.472 51.5411 41.836C51.8771 42.2 52.3531 42.382 52.9691 42.382C53.1091 42.382 53.2631 42.368 53.4311 42.34C53.6271 42.312 53.8231 42.27 54.0191 42.214ZM91.8023 31.252C90.9623 31.252 90.3183 31 89.8703 30.496C89.4223 29.964 89.1983 29.306 89.1983 28.522C89.1983 27.654 89.4223 26.786 89.8703 25.918C90.3183 25.022 90.8223 24.154 91.3823 23.314C91.9703 22.474 92.4883 21.676 92.9363 20.92C93.3843 20.164 93.6083 19.492 93.6083 18.904C93.6083 18.68 93.5523 18.484 93.4403 18.316C93.3283 18.12 93.1183 18.022 92.8103 18.022C91.9143 18.022 90.9763 18.442 89.9963 19.282C89.0443 20.094 88.1203 21.144 87.2243 22.432C86.3283 23.72 85.5163 25.064 84.7883 26.464C84.0883 27.864 83.5423 29.152 83.1503 30.328C82.7023 30.216 82.3943 30.048 82.2263 29.824C82.0863 29.572 82.0163 29.306 82.0163 29.026C82.0163 28.578 82.0723 28.144 82.1843 27.724C82.3243 27.304 82.5343 26.786 82.8143 26.17C83.0943 25.554 83.4583 24.77 83.9063 23.818C84.3543 22.838 84.8863 21.578 85.5023 20.038C85.5863 19.814 85.6423 19.618 85.6703 19.45C85.6983 19.282 85.7123 19.128 85.7123 18.988C85.7123 18.344 85.4463 18.022 84.9143 18.022C84.2423 18.022 83.5563 18.302 82.8563 18.862C82.1563 19.394 81.4703 20.108 80.7983 21.004C80.1543 21.9 79.5383 22.866 78.9503 23.902C78.3623 24.938 77.8303 25.96 77.3543 26.968C76.8783 27.948 76.4863 28.802 76.1783 29.53C75.8983 30.174 75.5623 30.594 75.1703 30.79C74.7783 30.958 74.4003 31.042 74.0363 31.042C73.9243 31.042 73.7843 31.028 73.6163 31C73.4763 31 73.3363 31 73.1963 31C73.7563 29.88 74.3443 28.662 74.9603 27.346C75.6043 26.002 76.1923 24.658 76.7243 23.314C77.2563 21.97 77.6903 20.682 78.0263 19.45C78.3623 18.218 78.5303 17.154 78.5303 16.258C78.5303 16.146 78.5163 16.062 78.4883 16.006C78.4883 15.95 78.4883 15.894 78.4883 15.838C78.4883 15.754 78.5163 15.712 78.5723 15.712C78.8523 15.712 79.0763 15.894 79.2443 16.258C79.4123 16.594 79.5243 16.986 79.5803 17.434C79.6643 17.854 79.7063 18.19 79.7063 18.442C79.7063 19.142 79.6223 19.87 79.4543 20.626C79.2863 21.354 79.0903 21.97 78.8663 22.474C79.9303 21.046 81.0223 19.828 82.1423 18.82C83.2903 17.812 84.4243 17.308 85.5443 17.308C86.3003 17.308 86.8463 17.462 87.1823 17.77C87.5183 18.078 87.6863 18.512 87.6863 19.072C87.6863 19.464 87.6163 19.856 87.4763 20.248C87.3643 20.64 87.1683 21.172 86.8883 21.844C87.9523 20.388 88.9883 19.268 89.9963 18.484C91.0323 17.7 92.0543 17.308 93.0623 17.308C93.8743 17.308 94.4763 17.49 94.8683 17.854C95.2883 18.218 95.4983 18.708 95.4983 19.324C95.4983 19.996 95.2743 20.794 94.8263 21.718C94.4063 22.614 93.9163 23.552 93.3563 24.532C92.7963 25.484 92.2923 26.394 91.8443 27.262C91.4243 28.102 91.2143 28.802 91.2143 29.362C91.2143 29.67 91.2843 29.95 91.4243 30.202C91.5643 30.454 91.8163 30.58 92.1803 30.58C92.6563 30.58 93.1043 30.426 93.5243 30.118C93.9723 29.782 94.3503 29.432 94.6583 29.068C95.3023 28.368 95.8903 27.598 96.4223 26.758C96.9823 25.89 97.5283 24.98 98.0603 24.028C98.1443 23.916 98.2003 23.86 98.2283 23.86C98.3403 23.86 98.3963 23.986 98.3963 24.238C98.3963 24.406 98.3683 24.532 98.3123 24.616C97.8083 25.54 97.2763 26.45 96.7163 27.346C96.1563 28.214 95.4703 29.054 94.6583 29.866C94.2943 30.23 93.8743 30.552 93.3983 30.832C92.9223 31.112 92.3903 31.252 91.8023 31.252ZM106.698 31.294C105.802 31.294 105.186 31.014 104.85 30.454C104.514 29.866 104.346 29.222 104.346 28.522C104.346 28.382 104.36 28.144 104.388 27.808C104.444 27.444 104.5 27.108 104.556 26.8C104.164 27.332 103.688 27.92 103.128 28.564C102.596 29.208 102.05 29.754 101.49 30.202C100.594 30.93 99.7816 31.294 99.0536 31.294C98.3536 31.294 97.8076 31 97.4156 30.412C97.0516 29.824 96.8696 29.082 96.8696 28.186C96.8696 27.038 97.1216 25.876 97.6256 24.7C98.1296 23.524 98.7876 22.418 99.5996 21.382C100.44 20.318 101.364 19.408 102.372 18.652C102.96 18.232 103.674 17.896 104.514 17.644C105.382 17.364 106.25 17.224 107.118 17.224C108.098 17.224 108.952 17.378 109.68 17.686C110.436 17.966 110.954 18.372 111.234 18.904C110.646 19.66 110.044 20.598 109.428 21.718C108.812 22.81 108.28 23.804 107.832 24.7C107.524 25.316 107.188 26.086 106.824 27.01C106.46 27.906 106.278 28.676 106.278 29.32C106.278 29.6 106.348 29.88 106.488 30.16C106.628 30.44 106.894 30.58 107.286 30.58C107.734 30.58 108.168 30.412 108.588 30.076C109.008 29.74 109.358 29.404 109.638 29.068C110.282 28.368 110.87 27.598 111.402 26.758C111.934 25.918 112.466 25.022 112.998 24.07C113.082 23.958 113.166 23.902 113.25 23.902C113.362 23.902 113.418 23.986 113.418 24.154C113.418 24.294 113.39 24.406 113.334 24.49C112.858 25.414 112.326 26.338 111.738 27.262C111.15 28.186 110.45 29.054 109.638 29.866C109.246 30.258 108.784 30.594 108.252 30.874C107.72 31.154 107.202 31.294 106.698 31.294ZM99.9776 29.992C100.51 29.992 101.084 29.712 101.7 29.152C102.344 28.564 102.96 27.864 103.548 27.052C104.164 26.212 104.71 25.414 105.186 24.658C105.69 23.874 106.082 23.272 106.362 22.852C106.95 21.928 107.496 21.158 108 20.542C108.504 19.926 109.288 19.45 110.352 19.114C110.408 19.114 110.45 19.114 110.478 19.114C110.534 19.086 110.59 19.072 110.646 19.072C110.394 18.68 109.974 18.386 109.386 18.19C108.798 17.994 108.224 17.896 107.664 17.896C106.796 17.896 105.956 18.134 105.144 18.61C104.332 19.086 103.59 19.688 102.918 20.416C102.274 21.172 101.644 21.998 101.028 22.894C100.412 23.79 99.9076 24.7 99.5156 25.624C99.1516 26.548 98.9696 27.43 98.9696 28.27C98.9696 28.718 99.0396 29.124 99.1796 29.488C99.3476 29.824 99.6136 29.992 99.9776 29.992ZM128.429 31.252C127.589 31.252 126.945 31 126.497 30.496C126.049 29.964 125.825 29.306 125.825 28.522C125.825 27.654 126.049 26.786 126.497 25.918C126.945 25.022 127.449 24.154 128.009 23.314C128.597 22.474 129.115 21.676 129.563 20.92C130.011 20.164 130.235 19.492 130.235 18.904C130.235 18.68 130.179 18.484 130.067 18.316C129.955 18.12 129.745 18.022 129.437 18.022C128.541 18.022 127.603 18.442 126.623 19.282C125.671 20.094 124.747 21.144 123.851 22.432C122.955 23.72 122.143 25.064 121.415 26.464C120.715 27.864 120.169 29.152 119.777 30.328C119.329 30.216 119.021 30.048 118.853 29.824C118.713 29.572 118.643 29.306 118.643 29.026C118.643 28.578 118.699 28.144 118.811 27.724C118.951 27.304 119.161 26.786 119.441 26.17C119.721 25.554 120.085 24.77 120.533 23.818C120.981 22.838 121.513 21.578 122.129 20.038C122.213 19.814 122.269 19.618 122.297 19.45C122.325 19.282 122.339 19.128 122.339 18.988C122.339 18.344 122.073 18.022 121.541 18.022C120.869 18.022 120.183 18.302 119.483 18.862C118.783 19.394 118.097 20.108 117.425 21.004C116.781 21.9 116.165 22.866 115.577 23.902C114.989 24.938 114.457 25.96 113.981 26.968C113.505 27.948 113.113 28.802 112.805 29.53C112.525 30.174 112.189 30.594 111.797 30.79C111.405 30.958 111.027 31.042 110.663 31.042C110.551 31.042 110.411 31.028 110.243 31C110.103 31 109.963 31 109.823 31C110.383 29.88 110.971 28.662 111.587 27.346C112.231 26.002 112.819 24.658 113.351 23.314C113.883 21.97 114.317 20.682 114.653 19.45C114.989 18.218 115.157 17.154 115.157 16.258C115.157 16.146 115.143 16.062 115.115 16.006C115.115 15.95 115.115 15.894 115.115 15.838C115.115 15.754 115.143 15.712 115.199 15.712C115.479 15.712 115.703 15.894 115.871 16.258C116.039 16.594 116.151 16.986 116.207 17.434C116.291 17.854 116.333 18.19 116.333 18.442C116.333 19.142 116.249 19.87 116.081 20.626C115.913 21.354 115.717 21.97 115.493 22.474C116.557 21.046 117.649 19.828 118.769 18.82C119.917 17.812 121.051 17.308 122.171 17.308C122.927 17.308 123.473 17.462 123.809 17.77C124.145 18.078 124.313 18.512 124.313 19.072C124.313 19.464 124.243 19.856 124.103 20.248C123.991 20.64 123.795 21.172 123.515 21.844C124.579 20.388 125.615 19.268 126.623 18.484C127.659 17.7 128.681 17.308 129.689 17.308C130.501 17.308 131.103 17.49 131.495 17.854C131.915 18.218 132.125 18.708 132.125 19.324C132.125 19.996 131.901 20.794 131.453 21.718C131.033 22.614 130.543 23.552 129.983 24.532C129.423 25.484 128.919 26.394 128.471 27.262C128.051 28.102 127.841 28.802 127.841 29.362C127.841 29.67 127.911 29.95 128.051 30.202C128.191 30.454 128.443 30.58 128.807 30.58C129.283 30.58 129.731 30.426 130.151 30.118C130.599 29.782 130.977 29.432 131.285 29.068C131.929 28.368 132.517 27.598 133.049 26.758C133.609 25.89 134.155 24.98 134.687 24.028C134.771 23.916 134.827 23.86 134.855 23.86C134.967 23.86 135.023 23.986 135.023 24.238C135.023 24.406 134.995 24.532 134.939 24.616C134.435 25.54 133.903 26.45 133.343 27.346C132.783 28.214 132.097 29.054 131.285 29.866C130.921 30.23 130.501 30.552 130.025 30.832C129.549 31.112 129.017 31.252 128.429 31.252ZM135.555 31.252C134.771 31.252 134.197 31 133.833 30.496C133.469 29.964 133.287 29.32 133.287 28.564C133.287 28.34 133.301 28.116 133.329 27.892C133.385 27.64 133.441 27.388 133.497 27.136C133.805 26.016 134.281 24.77 134.925 23.398C135.597 21.998 136.241 20.752 136.857 19.66C137.221 19.044 137.557 18.61 137.865 18.358C138.173 18.078 138.509 17.882 138.873 17.77C139.237 17.63 139.671 17.476 140.175 17.308C140.315 17.252 140.455 17.21 140.595 17.182C140.735 17.154 140.889 17.126 141.057 17.098C140.497 17.658 139.923 18.33 139.335 19.114C138.775 19.898 138.159 20.976 137.487 22.348C137.123 23.076 136.759 23.888 136.395 24.784C136.059 25.68 135.765 26.52 135.513 27.304C135.261 28.088 135.121 28.704 135.093 29.152C135.065 29.684 135.135 30.062 135.303 30.286C135.471 30.51 135.695 30.622 135.975 30.622C136.451 30.622 136.899 30.454 137.319 30.118C137.767 29.782 138.159 29.432 138.495 29.068C139.111 28.368 139.685 27.598 140.217 26.758C140.777 25.918 141.323 25.022 141.855 24.07C141.939 23.958 142.009 23.902 142.065 23.902C142.177 23.902 142.233 23.986 142.233 24.154C142.233 24.294 142.205 24.406 142.149 24.49C141.645 25.414 141.113 26.338 140.553 27.262C139.993 28.186 139.307 29.054 138.495 29.866C138.131 30.23 137.697 30.552 137.193 30.832C136.717 31.112 136.171 31.252 135.555 31.252ZM140.679 14.746C140.371 14.746 140.105 14.634 139.881 14.41C139.685 14.186 139.587 13.92 139.587 13.612C139.587 13.22 139.741 12.87 140.049 12.562C140.385 12.254 140.749 12.072 141.141 12.016C141.449 12.016 141.701 12.128 141.897 12.352C142.121 12.548 142.233 12.814 142.233 13.15C142.233 13.514 142.079 13.878 141.771 14.242C141.463 14.578 141.099 14.746 140.679 14.746ZM146.469 31.378C144.873 31.378 143.627 30.944 142.731 30.076C141.863 29.208 141.429 28.046 141.429 26.59C141.429 26.086 141.485 25.554 141.597 24.994C141.709 24.406 141.891 23.804 142.143 23.188C142.535 22.264 143.039 21.354 143.655 20.458C144.271 19.562 145.013 18.806 145.881 18.19C146.749 17.574 147.715 17.224 148.779 17.14C149.171 17.112 149.535 17.14 149.871 17.224C150.207 17.308 150.501 17.476 150.753 17.728C150.977 17.924 151.131 18.176 151.215 18.484C151.327 18.764 151.383 19.058 151.383 19.366C151.383 20.234 151.117 21.116 150.585 22.012C150.053 22.88 149.381 23.608 148.569 24.196C147.757 24.784 146.917 25.078 146.049 25.078C145.265 25.078 144.579 24.798 143.991 24.238C143.739 25.106 143.613 25.974 143.613 26.842C143.613 27.906 143.851 28.816 144.327 29.572C144.831 30.3 145.685 30.664 146.889 30.664C148.093 30.664 149.129 30.342 149.997 29.698C150.893 29.054 151.663 28.256 152.307 27.304C152.979 26.324 153.567 25.386 154.071 24.49C154.127 24.406 154.183 24.364 154.239 24.364C154.351 24.364 154.407 24.476 154.407 24.7C154.407 24.84 154.365 24.994 154.281 25.162C153.749 26.114 153.133 27.066 152.433 28.018C151.761 28.97 150.935 29.768 149.955 30.412C149.003 31.056 147.841 31.378 146.469 31.378ZM144.201 23.608C144.397 23.888 144.621 24.098 144.873 24.238C145.153 24.35 145.433 24.406 145.713 24.406C146.385 24.406 147.085 24.154 147.813 23.65C148.541 23.118 149.129 22.502 149.577 21.802C149.773 21.494 149.941 21.088 150.081 20.584C150.249 20.08 150.333 19.604 150.333 19.156C150.333 18.764 150.249 18.428 150.081 18.148C149.941 17.84 149.647 17.686 149.199 17.686C148.695 17.686 148.093 17.994 147.393 18.61C146.721 19.226 146.077 20.024 145.461 21.004C145.265 21.34 145.041 21.732 144.789 22.18C144.565 22.628 144.369 23.104 144.201 23.608ZM193.166 36.25C191.822 36.25 190.604 35.956 189.512 35.368C188.448 34.78 187.482 34.01 186.614 33.058C185.774 32.106 185.004 31.098 184.304 30.034C184.024 29.614 183.688 29.026 183.296 28.27C182.904 27.486 182.498 26.632 182.078 25.708C181.658 24.784 181.238 23.888 180.818 23.02C180.426 22.124 180.076 21.368 179.768 20.752C179.432 20.024 179.152 19.562 178.928 19.366C178.732 19.17 178.704 19.002 178.844 18.862C178.872 18.862 178.886 18.848 178.886 18.82C178.998 18.708 179.138 18.68 179.306 18.736C179.446 18.792 179.572 18.848 179.684 18.904C179.824 18.96 179.964 19.016 180.104 19.072C181.112 19.408 182.19 19.576 183.338 19.576C184.542 19.576 185.746 19.38 186.95 18.988C188.154 18.568 189.26 17.994 190.268 17.266C191.276 16.51 192.074 15.6 192.662 14.536C193.278 13.444 193.586 12.226 193.586 10.882C193.586 9.678 193.292 8.53 192.704 7.438C192.116 6.346 191.248 5.436 190.1 4.708C188.812 3.896 187.16 3.28 185.144 2.86C183.128 2.412 181.042 2.188 178.886 2.188C177.234 2.188 175.568 2.356 173.888 2.692C172.236 3 170.696 3.476 169.268 4.12C167.84 4.736 166.636 5.52 165.656 6.472C164.928 7.2 164.27 8.138 163.682 9.286C163.094 10.434 162.8 11.582 162.8 12.73C162.8 13.262 162.884 13.78 163.052 14.284C163.304 15.068 163.78 15.67 164.48 16.09C165.208 16.482 166.02 16.678 166.916 16.678C167.616 16.678 168.344 16.552 169.1 16.3C169.128 16.3 169.142 16.3 169.142 16.3C169.17 16.272 169.198 16.258 169.226 16.258C169.31 16.258 169.352 16.286 169.352 16.342C169.352 16.482 169.268 16.58 169.1 16.636C168.344 16.916 167.49 17.056 166.538 17.056C165.642 17.056 164.774 16.888 163.934 16.552C163.122 16.216 162.45 15.698 161.918 14.998C161.414 14.298 161.162 13.402 161.162 12.31C161.162 11.414 161.288 10.602 161.54 9.874C161.792 9.118 162.128 8.432 162.548 7.816C163.276 6.724 164.242 5.786 165.446 5.002C166.65 4.218 168.008 3.574 169.52 3.07C171.032 2.566 172.6 2.202 174.224 1.978C175.848 1.726 177.444 1.6 179.012 1.6C181.224 1.6 183.352 1.768 185.396 2.104C187.468 2.412 189.176 2.86 190.52 3.448C192.396 4.232 193.74 5.254 194.552 6.514C195.364 7.774 195.77 9.09 195.77 10.462C195.77 12.03 195.406 13.416 194.678 14.62C193.95 15.824 192.984 16.846 191.78 17.686C190.604 18.498 189.302 19.128 187.874 19.576C186.474 19.996 185.088 20.206 183.716 20.206C183.128 20.206 182.54 20.178 181.952 20.122C181.392 20.038 180.846 19.926 180.314 19.786C180.706 20.318 181.196 21.018 181.784 21.886C182.372 22.726 182.974 23.622 183.59 24.574C184.234 25.498 184.822 26.366 185.354 27.178C185.914 27.99 186.362 28.606 186.698 29.026C187.314 29.838 188.042 30.706 188.882 31.63C189.722 32.554 190.632 33.338 191.612 33.982C192.62 34.626 193.656 34.948 194.72 34.948C195.448 34.948 196.078 34.766 196.61 34.402C197.142 34.038 197.548 33.618 197.828 33.142C198.136 32.61 198.29 31.938 198.29 31.126C198.29 30.482 198.206 29.838 198.038 29.194C197.87 28.522 197.674 27.934 197.45 27.43C197.086 26.618 196.778 26.044 196.526 25.708C196.386 25.484 196.316 25.344 196.316 25.288C196.316 25.176 196.372 25.12 196.484 25.12C196.652 25.12 196.89 25.246 197.198 25.498C197.814 26.114 198.29 26.842 198.626 27.682C198.99 28.522 199.172 29.39 199.172 30.286C199.172 31.49 198.836 32.624 198.164 33.688C197.688 34.444 197.016 35.06 196.148 35.536C195.28 36.012 194.286 36.25 193.166 36.25ZM161.582 34.822C161.302 34.822 160.854 34.78 160.238 34.696C159.65 34.64 159.104 34.472 158.6 34.192C158.096 33.912 157.844 33.464 157.844 32.848C157.844 32.484 157.928 32.204 158.096 32.008C158.208 31.868 158.32 31.798 158.432 31.798C158.544 31.798 158.572 31.868 158.516 32.008C158.432 32.428 158.586 32.82 158.978 33.184C159.37 33.576 159.762 33.828 160.154 33.94C160.434 33.996 160.7 34.038 160.952 34.066C161.204 34.122 161.442 34.15 161.666 34.15C162.786 34.15 163.808 33.856 164.732 33.268C165.656 32.708 166.482 31.98 167.21 31.084C167.966 30.216 168.638 29.334 169.226 28.438C170.066 27.15 170.892 25.68 171.704 24.028C172.516 22.376 173.356 20.682 174.224 18.946C175.092 17.182 176.002 15.474 176.954 13.822C177.934 12.17 178.998 10.7 180.146 9.412C181.294 8.096 182.554 7.088 183.926 6.388C184.822 5.912 185.676 5.674 186.488 5.674C186.936 5.674 187.342 5.73 187.706 5.842C187.818 5.87 187.846 5.94 187.79 6.052C187.762 6.164 187.692 6.206 187.58 6.178C187.468 6.122 187.342 6.094 187.202 6.094C187.09 6.094 186.964 6.094 186.824 6.094C185.368 6.094 183.842 7.032 182.246 8.908C181.014 10.364 179.95 11.918 179.054 13.57C178.158 15.194 177.332 16.874 176.576 18.61C175.82 20.318 175.036 22.012 174.224 23.692C173.44 25.372 172.502 26.982 171.41 28.522C170.654 29.586 169.8 30.58 168.848 31.504C167.896 32.456 166.846 33.226 165.698 33.814C165.054 34.122 164.382 34.36 163.682 34.528C163.01 34.724 162.31 34.822 161.582 34.822ZM204.282 31.336C202.658 31.336 201.51 30.916 200.838 30.076C200.502 29.712 200.264 29.278 200.124 28.774C199.984 28.27 199.914 27.752 199.914 27.22C199.914 26.548 199.998 25.876 200.166 25.204C200.334 24.504 200.544 23.86 200.796 23.272C201.188 22.348 201.706 21.424 202.35 20.5C202.994 19.548 203.764 18.75 204.66 18.106C205.584 17.462 206.592 17.14 207.684 17.14C208.412 17.14 208.986 17.322 209.406 17.686C209.826 18.05 210.036 18.61 210.036 19.366C210.036 20.234 209.77 21.116 209.238 22.012C208.706 22.88 208.034 23.608 207.222 24.196C206.41 24.784 205.57 25.078 204.702 25.078C203.918 25.078 203.232 24.798 202.644 24.238C202.476 24.686 202.336 25.19 202.224 25.75C202.112 26.282 202.056 26.828 202.056 27.388C202.056 28.256 202.224 29.012 202.56 29.656C202.924 30.3 203.568 30.622 204.492 30.622C205.164 30.622 205.808 30.454 206.424 30.118C207.068 29.754 207.642 29.32 208.146 28.816C208.706 28.228 209.238 27.598 209.742 26.926C210.246 26.254 210.736 25.47 211.212 24.574C211.268 24.49 211.31 24.448 211.338 24.448C211.45 24.448 211.506 24.574 211.506 24.826C211.506 24.994 211.45 25.176 211.338 25.372C210.918 26.128 210.428 26.898 209.868 27.682C209.308 28.438 208.734 29.096 208.146 29.656C207.614 30.16 207.04 30.566 206.424 30.874C205.808 31.182 205.094 31.336 204.282 31.336ZM202.854 23.608C203.05 23.888 203.274 24.098 203.526 24.238C203.806 24.35 204.086 24.406 204.366 24.406C205.038 24.406 205.738 24.154 206.466 23.65C207.194 23.118 207.782 22.502 208.23 21.802C208.426 21.494 208.594 21.088 208.734 20.584C208.902 20.08 208.986 19.604 208.986 19.156C208.986 18.764 208.902 18.428 208.734 18.148C208.594 17.84 208.3 17.686 207.852 17.686C207.348 17.686 206.746 17.994 206.046 18.61C205.374 19.226 204.73 20.024 204.114 21.004C203.918 21.34 203.694 21.732 203.442 22.18C203.218 22.628 203.022 23.104 202.854 23.608ZM207.432 15.04H207.348C207.152 15.04 207.054 14.942 207.054 14.746C207.054 14.634 207.11 14.55 207.222 14.494C207.754 14.13 208.37 13.654 209.07 13.066C209.798 12.45 210.456 11.918 211.044 11.47C211.184 11.386 211.282 11.344 211.338 11.344C211.534 11.344 211.716 11.442 211.884 11.638C212.052 11.806 212.136 11.988 212.136 12.184C212.136 12.324 212.066 12.436 211.926 12.52L207.432 15.04ZM209.856 42.466C209.408 42.578 208.96 42.634 208.512 42.634C207.672 42.634 207.042 42.424 206.622 42.004C206.202 41.612 205.992 41.122 205.992 40.534C205.992 40.03 206.16 39.484 206.496 38.896C206.832 38.336 207.336 37.832 208.008 37.384C208.876 36.796 209.66 36.32 210.36 35.956C211.088 35.62 211.872 35.27 212.712 34.906C213.552 34.57 214.602 34.108 215.862 33.52C216.31 32.624 216.744 31.602 217.164 30.454C217.584 29.306 217.99 28.172 218.382 27.052C218.802 25.932 219.194 24.966 219.558 24.154C219.446 24.266 219.222 24.56 218.886 25.036C218.55 25.512 218.298 25.876 218.13 26.128C217.71 26.688 217.192 27.374 216.576 28.186C215.96 28.97 215.302 29.642 214.602 30.202C213.706 30.93 212.894 31.294 212.166 31.294C211.466 31.294 210.92 31 210.528 30.412C210.164 29.824 209.982 29.082 209.982 28.186C209.982 27.57 210.066 26.954 210.234 26.338C211.102 23.118 212.838 20.556 215.442 18.652C215.974 18.26 216.632 17.952 217.416 17.728C218.2 17.476 218.984 17.35 219.768 17.35C220.86 17.35 221.812 17.588 222.624 18.064L222.75 17.938C223.394 16.986 224.038 16.188 224.682 15.544C225.326 14.9 226.096 14.48 226.992 14.284C226.04 15.32 225.13 16.636 224.262 18.232C223.394 19.8 222.596 21.466 221.868 23.23C221.168 24.994 220.524 26.674 219.936 28.27C219.348 29.838 218.844 31.154 218.424 32.218C219.964 31.434 221.35 30.384 222.582 29.068C223.842 27.724 224.906 26.268 225.774 24.7C225.97 24.308 226.18 24.112 226.404 24.112C226.46 24.112 226.488 24.154 226.488 24.238C226.488 24.35 226.432 24.504 226.32 24.7C225.816 25.596 225.27 26.478 224.682 27.346C224.122 28.186 223.478 28.97 222.75 29.698C222.134 30.37 221.434 30.986 220.65 31.546C219.894 32.106 219.054 32.596 218.13 33.016C217.458 34.584 216.744 36.026 215.988 37.342C215.232 38.658 214.364 39.764 213.384 40.66C212.404 41.556 211.228 42.158 209.856 42.466ZM213.048 29.992C213.608 29.992 214.196 29.712 214.812 29.152C215.428 28.564 216.044 27.864 216.66 27.052C217.276 26.212 217.822 25.414 218.298 24.658C218.802 23.874 219.18 23.272 219.432 22.852C219.852 22.208 220.3 21.522 220.776 20.794C221.252 20.066 221.798 19.268 222.414 18.4C221.882 18.12 221.308 17.98 220.692 17.98C219.88 17.98 219.068 18.204 218.256 18.652C217.472 19.1 216.758 19.688 216.114 20.416C215.162 21.452 214.364 22.572 213.72 23.776C213.076 24.952 212.628 25.988 212.376 26.884C212.236 27.388 212.166 27.906 212.166 28.438C212.166 28.858 212.222 29.222 212.334 29.53C212.474 29.838 212.712 29.992 213.048 29.992ZM209.604 41.584C210.584 41.276 211.438 40.73 212.166 39.946C212.894 39.19 213.524 38.308 214.056 37.3C214.616 36.32 215.092 35.326 215.484 34.318C214.616 34.766 213.496 35.242 212.124 35.746C210.78 36.278 209.506 37.006 208.302 37.93C207.77 38.35 207.378 38.784 207.126 39.232C206.846 39.68 206.706 40.1 206.706 40.492C206.706 40.856 206.832 41.164 207.084 41.416C207.336 41.668 207.728 41.794 208.26 41.794C208.456 41.794 208.666 41.78 208.89 41.752C209.114 41.724 209.352 41.668 209.604 41.584ZM227.019 31.252C226.235 31.252 225.661 31 225.297 30.496C224.933 29.964 224.751 29.32 224.751 28.564C224.751 28.34 224.765 28.116 224.793 27.892C224.849 27.64 224.905 27.388 224.961 27.136C225.269 26.016 225.745 24.77 226.389 23.398C227.061 21.998 227.705 20.752 228.321 19.66C228.685 19.044 229.021 18.61 229.329 18.358C229.637 18.078 229.973 17.882 230.337 17.77C230.701 17.63 231.135 17.476 231.639 17.308C231.779 17.252 231.919 17.21 232.059 17.182C232.199 17.154 232.353 17.126 232.521 17.098C231.961 17.658 231.387 18.33 230.799 19.114C230.239 19.898 229.623 20.976 228.951 22.348C228.587 23.076 228.223 23.888 227.859 24.784C227.523 25.68 227.229 26.52 226.977 27.304C226.725 28.088 226.585 28.704 226.557 29.152C226.529 29.684 226.599 30.062 226.767 30.286C226.935 30.51 227.159 30.622 227.439 30.622C227.915 30.622 228.363 30.454 228.783 30.118C229.231 29.782 229.623 29.432 229.959 29.068C230.575 28.368 231.149 27.598 231.681 26.758C232.241 25.918 232.787 25.022 233.319 24.07C233.403 23.958 233.473 23.902 233.529 23.902C233.641 23.902 233.697 23.986 233.697 24.154C233.697 24.294 233.669 24.406 233.613 24.49C233.109 25.414 232.577 26.338 232.017 27.262C231.457 28.186 230.771 29.054 229.959 29.866C229.595 30.23 229.161 30.552 228.657 30.832C228.181 31.112 227.635 31.252 227.019 31.252ZM232.143 14.746C231.835 14.746 231.569 14.634 231.345 14.41C231.149 14.186 231.051 13.92 231.051 13.612C231.051 13.22 231.205 12.87 231.513 12.562C231.849 12.254 232.213 12.072 232.605 12.016C232.913 12.016 233.165 12.128 233.361 12.352C233.585 12.548 233.697 12.814 233.697 13.15C233.697 13.514 233.543 13.878 233.235 14.242C232.927 14.578 232.563 14.746 232.143 14.746ZM240.79 31.252C239.978 31.252 239.334 31 238.858 30.496C238.41 29.992 238.186 29.362 238.186 28.606C238.186 28.242 238.256 27.822 238.396 27.346C238.788 26.114 239.404 24.896 240.244 23.692C241.112 22.46 241.826 21.242 242.386 20.038C242.582 19.646 242.68 19.296 242.68 18.988C242.68 18.68 242.582 18.456 242.386 18.316C242.218 18.148 242.008 18.064 241.756 18.064C241.392 18.064 240.93 18.218 240.37 18.526C239.838 18.806 239.222 19.352 238.522 20.164C238.102 20.668 237.626 21.284 237.094 22.012C236.562 22.74 236.128 23.398 235.792 23.986C235.232 24.938 234.728 25.904 234.28 26.884C233.832 27.836 233.44 28.718 233.104 29.53C232.824 30.174 232.488 30.594 232.096 30.79C231.704 30.958 231.326 31.028 230.962 31C230.598 30.972 230.318 30.972 230.122 31C230.906 29.46 231.676 27.836 232.432 26.128C233.188 24.42 233.832 22.712 234.364 21.004C234.616 20.22 234.826 19.464 234.994 18.736C235.162 17.98 235.232 17.49 235.204 17.266V17.182C235.204 16.958 235.316 16.902 235.54 17.014C235.904 17.21 236.156 17.504 236.296 17.896C236.436 18.26 236.506 18.68 236.506 19.156C236.506 19.688 236.436 20.262 236.296 20.878C236.156 21.466 235.988 21.998 235.792 22.474C236.156 21.97 236.548 21.466 236.968 20.962C237.388 20.43 237.85 19.926 238.354 19.45C238.942 18.862 239.572 18.358 240.244 17.938C240.916 17.49 241.644 17.266 242.428 17.266C243.184 17.266 243.73 17.434 244.066 17.77C244.43 18.106 244.612 18.554 244.612 19.114C244.612 19.702 244.444 20.374 244.108 21.13C243.744 21.998 243.296 22.866 242.764 23.734C242.26 24.602 241.798 25.442 241.378 26.254C241.294 26.422 241.154 26.688 240.958 27.052C240.79 27.388 240.636 27.766 240.496 28.186C240.44 28.382 240.384 28.592 240.328 28.816C240.272 29.012 240.244 29.222 240.244 29.446C240.244 29.726 240.3 29.992 240.412 30.244C240.552 30.468 240.804 30.58 241.168 30.58C241.644 30.58 242.092 30.426 242.512 30.118C242.96 29.782 243.338 29.432 243.646 29.068C244.29 28.368 244.878 27.598 245.41 26.758C245.97 25.89 246.516 24.98 247.048 24.028C247.132 23.916 247.188 23.86 247.216 23.86C247.328 23.86 247.384 23.986 247.384 24.238C247.384 24.406 247.356 24.532 247.3 24.616C246.796 25.54 246.264 26.45 245.704 27.346C245.144 28.214 244.458 29.054 243.646 29.866C243.282 30.23 242.862 30.552 242.386 30.832C241.91 31.112 241.378 31.252 240.79 31.252ZM250.793 31.336C249.169 31.336 248.021 30.916 247.349 30.076C247.013 29.712 246.775 29.278 246.635 28.774C246.495 28.27 246.425 27.752 246.425 27.22C246.425 26.548 246.509 25.876 246.677 25.204C246.845 24.504 247.055 23.86 247.307 23.272C247.699 22.348 248.217 21.424 248.861 20.5C249.505 19.548 250.275 18.75 251.171 18.106C252.095 17.462 253.103 17.14 254.195 17.14C254.923 17.14 255.497 17.322 255.917 17.686C256.337 18.05 256.547 18.61 256.547 19.366C256.547 20.234 256.281 21.116 255.749 22.012C255.217 22.88 254.545 23.608 253.733 24.196C252.921 24.784 252.081 25.078 251.213 25.078C250.429 25.078 249.743 24.798 249.155 24.238C248.987 24.686 248.847 25.19 248.735 25.75C248.623 26.282 248.567 26.828 248.567 27.388C248.567 28.256 248.735 29.012 249.071 29.656C249.435 30.3 250.079 30.622 251.003 30.622C251.675 30.622 252.319 30.454 252.935 30.118C253.579 29.754 254.153 29.32 254.657 28.816C255.217 28.228 255.749 27.598 256.253 26.926C256.757 26.254 257.247 25.47 257.723 24.574C257.779 24.49 257.821 24.448 257.849 24.448C257.961 24.448 258.017 24.574 258.017 24.826C258.017 24.994 257.961 25.176 257.849 25.372C257.429 26.128 256.939 26.898 256.379 27.682C255.819 28.438 255.245 29.096 254.657 29.656C254.125 30.16 253.551 30.566 252.935 30.874C252.319 31.182 251.605 31.336 250.793 31.336ZM249.365 23.608C249.561 23.888 249.785 24.098 250.037 24.238C250.317 24.35 250.597 24.406 250.877 24.406C251.549 24.406 252.249 24.154 252.977 23.65C253.705 23.118 254.293 22.502 254.741 21.802C254.937 21.494 255.105 21.088 255.245 20.584C255.413 20.08 255.497 19.604 255.497 19.156C255.497 18.764 255.413 18.428 255.245 18.148C255.105 17.84 254.811 17.686 254.363 17.686C253.859 17.686 253.257 17.994 252.557 18.61C251.885 19.226 251.241 20.024 250.625 21.004C250.429 21.34 250.205 21.732 249.953 22.18C249.729 22.628 249.533 23.104 249.365 23.608Z" fill="white"/>
</svg>
