<svg width="250" height="46" viewBox="0 0 250 46" fill="none" xmlns="http://www.w3.org/2000/svg">
<path d="M19.9284 7.35557C19.59 7.38634 19.5153 7.40391 19.1593 7.54015C18.6452 7.7379 18.1925 8.10704 17.6212 8.7838C17.3663 9.08702 17.2872 9.14854 17.0675 9.23204C16.6984 9.37266 16.1974 9.67589 15.8414 9.97911C15.0988 10.6075 14.6066 11.4864 14.3869 12.5983C14.3473 12.796 14.3034 13.2926 14.2814 13.7057C14.255 14.2989 14.2243 14.5406 14.132 14.8702C13.8639 15.859 13.9606 17.0939 14.3869 18.0167C14.5802 18.4298 14.7999 18.7462 15.3141 19.357C15.547 19.6339 15.8283 19.9986 15.9381 20.1744C16.2106 20.6051 16.3029 20.5567 16.3029 19.9723C16.3029 19.8185 16.2809 19.6163 16.2545 19.524C16.2238 19.4361 15.9996 19.0978 15.7536 18.777C14.9669 17.7574 14.7033 17.0587 14.7033 15.9908C14.6989 15.4811 14.7164 15.3668 14.8395 14.9361C14.9625 14.5055 14.9801 14.3736 14.9977 13.7276C15.0109 13.13 15.0372 12.9191 15.1383 12.5191C15.4371 11.3107 16.0348 10.5328 17.0412 10.0362C17.7003 9.71544 18.4342 9.53526 19.8185 9.35069C20.5744 9.25401 20.6359 9.19688 20.2052 9.00352C19.8449 8.84093 19.2208 8.80138 18.7023 8.91124C18.5089 8.95079 18.3463 8.97276 18.3375 8.96397C18.3024 8.93321 18.8781 8.463 19.1154 8.33116C19.2472 8.25645 19.5153 8.15098 19.7086 8.09825C20.3766 7.91807 21.0929 8.03673 21.9498 8.46739L22.3893 8.68712L22.631 8.61681C22.7628 8.57725 23.1188 8.47618 23.422 8.38829C23.901 8.24766 24.0372 8.22569 24.4767 8.2169C25.3073 8.20811 25.6676 8.3795 26.5509 9.19249C26.9025 9.51329 27.109 9.6671 27.3639 9.79014C27.9528 10.0758 28.3263 10.3351 28.6207 10.6559C29.2711 11.3678 29.6227 12.3214 29.7282 13.6617L29.7545 14.0133L29.5744 13.6837C28.5416 11.459 26.4323 10.6844 24.6854 10.3219C24.2734 10.2889 24.4053 10.3219 24.4053 10.3219C24.4053 10.3219 26.6959 10.7657 27.7067 11.5787C28.4406 12.1676 29.1745 13.0421 29.5304 13.7672C29.6403 13.9825 29.7457 14.1627 29.7677 14.1627C29.8292 14.1671 29.7545 13.1344 29.6579 12.651C29.4777 11.7501 29.0558 10.9547 28.4757 10.4186C28.2472 10.2076 28.0187 10.0538 27.6012 9.83849C27.1134 9.588 26.964 9.48692 26.5377 9.09141C25.7291 8.34874 25.3073 8.15098 24.5426 8.14659C24.0592 8.14659 23.6725 8.22569 22.8815 8.47618L22.4113 8.62999L21.9235 8.3839C20.86 7.85216 20.0382 7.80821 19.1725 8.23448C18.9176 8.36192 18.7199 8.50255 18.4957 8.71788C18.32 8.88927 18.1881 9.03429 18.2013 9.04747C18.2145 9.06065 18.3507 9.04307 18.5045 9.00792C19.1857 8.85411 19.7526 8.87608 20.2184 9.07384C20.4777 9.18809 20.4513 9.21446 20.0163 9.2628C18.9616 9.38585 17.8234 9.62755 17.3092 9.83849C16.6325 10.1109 15.9953 10.6207 15.6261 11.1744C15.3932 11.5216 15.1515 12.0973 15.0592 12.5191C14.9713 12.9059 14.8966 13.6837 14.901 14.1495C14.9054 14.4308 14.879 14.5846 14.7824 14.8746C14.6637 15.2218 14.6593 15.2877 14.6593 15.9908C14.6593 16.6192 14.6769 16.795 14.756 17.0895C14.9054 17.6344 15.1955 18.1661 15.6876 18.7945C16.2018 19.4537 16.2897 19.6647 16.237 20.1261C16.2194 20.2799 16.193 20.4073 16.1798 20.4073C16.1622 20.4073 16.0744 20.2843 15.9865 20.1305C15.8986 19.9811 15.6261 19.6207 15.38 19.3307C14.8878 18.7462 14.7121 18.4957 14.5099 18.0958C14.1979 17.4806 14.0617 16.8434 14.0617 16.0304C14.0617 15.4635 14.1012 15.1603 14.2462 14.6725C14.3121 14.444 14.3385 14.211 14.3473 13.7716C14.3693 12.818 14.5582 11.9347 14.8878 11.2887C15.3097 10.4449 16.1271 9.69347 17.0148 9.32432C17.3004 9.20567 17.4015 9.13536 17.5509 8.96397C18.1486 8.24327 18.5661 7.88292 19.0451 7.6588C19.59 7.40391 20.3327 7.3336 20.9962 7.46983C21.4401 7.56212 21.6554 7.63243 22.1168 7.85216C22.5475 8.0543 22.4376 8.05431 23.2111 7.82579C24.112 7.55772 24.692 7.50938 25.2765 7.6588C25.8873 7.817 26.2829 8.06309 26.8981 8.66075C27.2672 9.01671 27.3771 9.09581 27.755 9.27159C28.5504 9.64513 29.0558 10.0582 29.4865 10.6954C30.0402 11.5084 30.361 12.7784 30.3126 13.9649C30.2995 14.3429 30.2731 14.5011 30.194 14.6725C30.1929 14.6751 30.1917 14.6777 30.1906 14.6803C30.1016 14.888 30.0983 14.8957 30.1764 15.1778C30.2951 15.6041 30.2819 16.6061 30.1588 17.1114C29.9787 17.8321 29.6754 18.4122 29.1393 19.0802C28.9459 19.3131 28.9152 19.379 28.9152 19.5416C28.9152 19.7657 28.7877 20.2667 28.6735 20.5172C28.5372 20.8028 28.2164 21.0929 27.944 21.172C27.6847 21.2511 27.3859 21.2643 27.2892 21.1983C27.2145 21.15 27.2189 21.1456 27.5529 20.9479C27.9352 20.7237 28.1022 20.5128 28.256 20.0602C28.3043 19.9151 28.3439 19.7877 28.3439 19.7745C28.3439 19.7657 28.2955 19.7438 28.2384 19.7306C28.0011 19.6734 28.0582 19.5152 28.5329 18.9044C28.9987 18.3024 29.0954 18.1573 29.2931 17.7442C29.8292 16.6105 29.8336 15.6437 29.2975 14.5099C28.7438 13.3365 28.0231 12.462 26.9552 11.6534C26.1422 11.0426 25.5446 10.7218 24.8063 10.4977C24.591 10.4274 24.4053 10.3219 24.4053 10.3219C24.4053 10.3219 24.7206 10.3219 24.6854 10.3219C24.191 10.2724 24.3339 10.3538 24.5536 10.4702C25.5512 10.7119 26.8322 11.5084 27.7946 12.4752C28.4801 13.1651 28.9196 13.8067 29.2931 14.6461C29.5436 15.2218 29.6183 15.5558 29.6183 16.0963C29.6183 16.9532 29.2975 17.8146 28.6955 18.5836C27.9879 19.4845 27.9264 19.6163 28.1461 19.7789C28.2428 19.8492 28.2516 19.8756 28.2121 20.0118C28.1198 20.3414 27.8956 20.6402 27.5968 20.8336C27.1002 21.1544 27.1266 21.1236 27.2453 21.2423C27.3331 21.3302 27.3727 21.339 27.6056 21.3126C27.7462 21.2994 27.9616 21.2467 28.0846 21.194C28.568 20.983 28.9328 20.3326 28.9679 19.6163C28.9767 19.4449 29.025 19.357 29.3195 18.9571C29.8908 18.1925 30.1676 17.5641 30.3039 16.7335C30.383 16.2369 30.3698 15.7272 30.2555 15.235C30.1852 14.9186 30.1852 14.9098 30.2819 14.6417C30.3698 14.4 30.3786 14.2814 30.3786 13.6837C30.3786 12.7257 30.2204 12.0006 29.838 11.2008C29.3898 10.256 28.8273 9.71544 27.799 9.22325C27.4254 9.04747 27.3024 8.95518 26.942 8.61241C26.2433 7.93565 25.6764 7.62364 24.9733 7.52696C24.4284 7.45225 23.8747 7.53575 22.8375 7.86095L22.4948 7.97081L22.1564 7.79942C21.9674 7.70274 21.6862 7.58409 21.5324 7.53136C21.2687 7.44786 20.4601 7.30723 20.3019 7.32042C20.2667 7.32042 20.0997 7.338 19.9284 7.35557Z" fill="white"/>
<path d="M24.4053 10.3219C24.4053 10.3219 26.6959 10.7657 27.7067 11.5787C28.4406 12.1676 29.1745 13.0421 29.5304 13.7672C29.6403 13.9825 29.7457 14.1627 29.7677 14.1627C29.8292 14.1671 29.7545 13.1344 29.6579 12.651C29.4777 11.7501 29.0558 10.9547 28.4757 10.4186C28.2472 10.2076 28.0187 10.0538 27.6012 9.83849C27.1134 9.588 26.964 9.48692 26.5377 9.09141C25.7291 8.34874 25.3073 8.15098 24.5426 8.14659C24.0592 8.14659 23.6725 8.22569 22.8815 8.47618L22.4113 8.62999L21.9235 8.3839C20.86 7.85216 20.0382 7.80821 19.1725 8.23448C18.9176 8.36192 18.7199 8.50255 18.4957 8.71788C18.32 8.88927 18.1881 9.03429 18.2013 9.04747C18.2145 9.06065 18.3507 9.04307 18.5045 9.00792C19.1857 8.85411 19.7526 8.87608 20.2184 9.07384C20.4777 9.18809 20.4513 9.21446 20.0163 9.2628C18.9616 9.38585 17.8234 9.62755 17.3092 9.83849C16.6325 10.1109 15.9953 10.6207 15.6261 11.1744C15.3932 11.5216 15.1515 12.0973 15.0592 12.5191C14.9713 12.9059 14.8966 13.6837 14.901 14.1495C14.9054 14.4308 14.879 14.5846 14.7824 14.8746C14.6637 15.2218 14.6593 15.2877 14.6593 15.9908C14.6593 16.6192 14.6769 16.795 14.756 17.0895C14.9054 17.6344 15.1955 18.1661 15.6876 18.7945C16.2018 19.4537 16.2897 19.6647 16.237 20.1261C16.2194 20.2799 16.193 20.4073 16.1798 20.4073C16.1622 20.4073 16.0744 20.2843 15.9865 20.1305C15.8986 19.9811 15.6261 19.6207 15.38 19.3307C14.8878 18.7462 14.7121 18.4957 14.5099 18.0958C14.1979 17.4806 14.0617 16.8434 14.0617 16.0304C14.0617 15.4635 14.1012 15.1603 14.2462 14.6725C14.3121 14.444 14.3385 14.211 14.3473 13.7716C14.3693 12.818 14.5582 11.9347 14.8878 11.2887C15.3097 10.4449 16.1271 9.69347 17.0148 9.32432C17.3004 9.20567 17.4015 9.13536 17.5509 8.96397C18.1486 8.24327 18.5661 7.88292 19.0451 7.6588C19.59 7.40391 20.3327 7.3336 20.9962 7.46983C21.4401 7.56212 21.6554 7.63243 22.1168 7.85216C22.5475 8.0543 22.4376 8.05431 23.2111 7.82579C24.112 7.55772 24.692 7.50938 25.2765 7.6588C25.8873 7.817 26.2829 8.06309 26.8981 8.66075C27.2672 9.01671 27.3771 9.09581 27.755 9.27159C28.5504 9.64513 29.0558 10.0582 29.4865 10.6954C30.0402 11.5084 30.361 12.7784 30.3126 13.9649C30.2995 14.3429 30.2731 14.5011 30.194 14.6725L30.1906 14.6803C30.1016 14.888 30.0983 14.8957 30.1764 15.1778C30.2951 15.6041 30.2819 16.6061 30.1588 17.1114C29.9787 17.8321 29.6754 18.4122 29.1393 19.0802C28.9459 19.3131 28.9152 19.379 28.9152 19.5416C28.9152 19.7657 28.7877 20.2667 28.6735 20.5172C28.5372 20.8028 28.2164 21.0929 27.944 21.172C27.6847 21.2511 27.3859 21.2643 27.2892 21.1983C27.2145 21.15 27.2189 21.1456 27.5529 20.9479C27.9352 20.7237 28.1022 20.5128 28.256 20.0602C28.3043 19.9151 28.3439 19.7877 28.3439 19.7745C28.3439 19.7657 28.2955 19.7438 28.2384 19.7306C28.0011 19.6734 28.0582 19.5152 28.5329 18.9044C28.9987 18.3024 29.0954 18.1573 29.2931 17.7442C29.8292 16.6105 29.8336 15.6437 29.2975 14.5099C28.7438 13.3365 28.0231 12.462 26.9552 11.6534C26.1422 11.0426 25.5446 10.7218 24.8063 10.4977C24.591 10.4274 24.4053 10.3219 24.4053 10.3219Z" fill="white"/>
<path d="M23.84 9.45199C23.0797 9.61898 22.5392 9.85189 21.779 10.3441C21.5592 10.4847 21.1505 10.6912 20.8737 10.8055C19.296 11.4427 18.1139 12.3304 17.1208 13.6136C16.6417 14.2376 16.3209 14.8177 16.0705 15.512C15.7628 16.3778 15.6969 17.5072 15.9342 17.9466C16.0133 18.0916 16.0089 18.0521 15.9254 17.7181C15.8332 17.3578 15.8639 16.492 15.9914 16.013C16.4044 14.4178 17.5822 12.8446 19.1422 11.7943C19.7707 11.3768 20.0827 11.2054 20.8297 10.8934C21.1901 10.744 21.6164 10.5286 21.7833 10.4188C22.214 10.1375 22.8776 9.79037 23.2292 9.66732C23.6466 9.5223 24.1959 9.4476 24.6706 9.47836C24.8991 9.49154 25.0221 9.48715 24.9606 9.46517C24.8463 9.43002 23.9938 9.41683 23.84 9.45199Z" fill="white"/>
<path d="M24.2134 9.86035C23.5762 10.0713 23.2378 10.2119 22.895 10.4097L22.4336 10.6689L22.9829 10.7217C24.1782 10.8359 25.1538 11.1787 26.0635 11.7983C27.5137 12.7915 28.4541 14.29 28.6079 15.8457L28.6475 16.2544L28.6299 15.749C28.6167 15.3008 28.5991 15.1909 28.4541 14.7822C27.8652 13.0991 26.5732 11.7764 24.833 11.0732C24.4023 10.8975 23.5059 10.6909 23.0576 10.6558L22.6533 10.6294L22.8643 10.5063C23.3389 10.2251 23.9058 10.001 24.7407 9.75488C24.9868 9.68457 25.1274 9.61426 25.0923 9.58789C25.0791 9.5791 24.6836 9.69775 24.2134 9.86035Z" fill="white"/>
<path d="M20.2678 9.88689C18.8001 10.155 16.8665 11.4382 15.8381 12.8268C15.5085 13.2751 15.1087 14.3385 15.2625 14.2419C15.2681 14.2385 15.274 14.2238 15.2798 14.2027C15.2965 14.1423 15.3131 14.0293 15.3262 13.9804C15.3701 13.8046 15.7107 13.0905 15.9348 12.7961C16.1853 12.4709 16.8401 11.8205 17.2532 11.4865C18.2068 10.7131 19.3274 10.133 20.2151 9.95281C20.5403 9.88689 21.116 9.86931 21.1204 9.92644C21.1204 9.94841 20.9929 10.0275 20.8347 10.0934C18.6902 11.0207 17.8948 11.526 16.5588 12.8136C16.0767 13.2801 15.3988 14.0228 15.2798 14.2027C15.2654 14.2245 15.2591 14.2381 15.2625 14.2419C15.2844 14.2594 15.3943 14.1452 16.0007 13.486C16.8357 12.5763 17.886 11.6886 18.7297 11.1877C19.134 10.9416 19.8943 10.5724 20.6765 10.2341C21.2258 9.99675 21.3269 9.92644 21.2258 9.86052C21.1335 9.80339 20.6502 9.81658 20.2678 9.88689Z" fill="white"/>
<path d="M15.2798 14.2027C15.2965 14.1423 15.3131 14.0293 15.3262 13.9804C15.3701 13.8046 15.7107 13.0905 15.9348 12.7961C16.1853 12.4709 16.8401 11.8205 17.2532 11.4865C18.2068 10.7131 19.3274 10.133 20.2151 9.95281C20.5403 9.88689 21.116 9.86931 21.1204 9.92644C21.1204 9.94841 20.9929 10.0275 20.8347 10.0934C18.6902 11.0207 17.8948 11.526 16.5588 12.8136C16.0767 13.2801 15.3988 14.0228 15.2798 14.2027Z" fill="white"/>
<path d="M21.9292 11.4688C20.4483 11.7501 19.6792 12.0973 18.6333 12.9718C17.4864 13.9298 16.6953 15.1339 16.3042 16.5269C16.1548 17.0631 16.0274 17.7223 16.0494 17.8629C16.0581 17.92 16.1197 17.6827 16.1856 17.3311C16.3789 16.3248 16.6822 15.5338 17.1875 14.7076C17.5303 14.1495 18.1895 13.3849 18.5542 13.1256L18.752 12.985L18.6773 13.2618C18.6202 13.4859 18.5498 13.6002 18.3081 13.8858C17.7105 14.5802 17.2007 15.4723 16.937 16.2765C16.8272 16.6148 16.814 16.7115 16.814 17.296C16.8096 17.8409 16.8228 17.9552 16.8843 18.0167C16.9502 18.0826 16.959 18.0826 16.9986 18.0079C17.0205 17.9596 17.0953 17.7354 17.1612 17.5069C17.3941 16.6808 17.9434 15.6041 18.4356 15.0064C18.708 14.6768 18.7915 14.6197 18.7212 14.8087C18.6949 14.8702 18.6773 15.1427 18.6773 15.4151C18.6773 15.859 18.6641 15.9513 18.5279 16.3556C18.4444 16.606 18.3609 16.9005 18.3433 17.0147C18.3081 17.252 18.2686 17.3443 18.1148 17.5289C17.9478 17.7267 17.7105 18.254 17.7105 18.4254V18.5748L18.0225 18.544C18.2598 18.5221 18.3433 18.5309 18.396 18.5792C18.4488 18.6363 18.4488 18.6451 18.3697 18.6715C18.2334 18.7154 17.9082 19.1065 17.8511 19.2999C17.6753 19.8888 18.0225 20.8424 18.5323 21.1588C18.6553 21.2335 18.6685 21.2599 18.6245 21.3302C18.5235 21.4884 18.7652 22.4024 19.0552 22.9649C19.2486 23.3429 19.3101 23.4967 19.2442 23.4615C19.2002 23.4308 18.9585 23.5802 18.6993 23.7911C18.396 24.0416 18.0225 24.4503 17.8203 24.7579C17.3941 25.4083 16.7876 26.8145 16.7876 27.1529C16.7876 27.3463 17.0337 27.5616 17.4161 27.6934L17.6929 27.7945L17.5523 28.2911C17.4732 28.5592 17.3941 28.9239 17.3809 29.0953C17.3501 29.3678 17.3589 29.4381 17.4424 29.6095C17.5699 29.8731 17.7896 30.0577 18.0708 30.1412C18.4048 30.2379 18.7124 30.2247 18.9585 30.1017C19.1958 29.983 19.1739 29.9566 19.2705 30.4488C19.3628 30.9102 19.5078 31.2223 19.6924 31.3585C20.0352 31.6134 20.501 31.6925 20.9361 31.5694L21.1382 31.5123L21.3404 31.7013C21.7447 32.0748 22.3072 32.2374 22.9048 32.1495C23.3267 32.088 23.6475 31.9518 23.8804 31.7276L24.0562 31.565L24.3638 31.6178C24.6011 31.6573 24.7329 31.6573 24.9175 31.6178C25.4756 31.4991 25.7041 31.1959 25.8404 30.3785C25.9107 29.9654 25.9151 29.961 26.1919 30.106C26.4995 30.2643 26.9522 30.2774 27.2246 30.1324C27.44 30.0182 27.6641 29.7896 27.7256 29.6226C27.8267 29.359 27.7608 28.7921 27.5586 28.1417C27.5059 27.9835 27.4663 27.8341 27.4663 27.8077C27.4663 27.7857 27.5498 27.7242 27.6553 27.6715C27.9278 27.5352 28.209 27.3199 28.2618 27.2013C28.3716 26.9596 27.8706 25.6851 27.3785 24.9513C27.0708 24.4942 26.482 23.9054 26.2183 23.7867C26.0733 23.7252 26.0161 23.6768 26.0337 23.6329C26.0645 23.5538 25.9283 23.2726 25.8492 23.255C25.8096 23.2462 25.8536 23.1583 25.9722 23.0001C26.3809 22.4552 26.7456 21.7081 27.0664 20.7677C27.4751 19.5636 27.4224 19.0977 26.8423 18.7682C26.5786 18.6231 26.605 18.5968 27.0269 18.588L27.2686 18.5836L27.2642 18.421C27.2598 18.2452 27.1104 17.9156 26.8907 17.5816C26.7896 17.4278 26.7281 17.2433 26.6534 16.8961C26.5962 16.6324 26.5303 16.3775 26.5039 16.3292C26.482 16.2852 26.4248 15.9908 26.3853 15.6788C26.315 15.1295 26.2842 15.0064 26.1304 14.6285L26.0601 14.4527L26.271 14.6812C26.5303 14.9625 26.9038 15.6085 27.1719 16.2413C27.3609 16.6764 27.4619 16.9796 27.6861 17.7618C27.7388 17.942 27.7871 18.0782 27.8003 18.065C27.8311 18.0343 27.6905 17.485 27.5103 16.9312C26.7764 14.6944 25.5503 13.464 23.6431 13.0465C23.1245 12.9322 22.2061 12.9102 21.6963 12.9981C20.5845 13.1871 19.7188 13.6266 18.9058 14.4044C18.0972 15.1822 17.4424 16.3116 17.0733 17.5728L16.9283 18.0518L16.8755 17.7926C16.7964 17.4146 16.8755 16.6808 17.0469 16.1754C17.3062 15.4107 17.7984 14.5758 18.3741 13.9034C18.919 13.275 19.7759 12.7037 20.646 12.3917C22.0171 11.8995 23.7134 12.0006 24.9966 12.6466C26.2842 13.2926 27.1807 14.3297 27.6377 15.6964C27.8399 16.2984 27.9102 16.7774 27.9014 17.4322C27.8926 18.0343 27.9234 18.1925 27.9761 17.7882C28.0157 17.4674 27.9673 16.6895 27.8794 16.3204C27.6421 15.2701 27.2159 14.4571 26.46 13.5958C26.3853 13.5123 26.271 13.297 26.2095 13.1256C26.1436 12.9498 26.0777 12.8048 26.0645 12.8048C26.0469 12.8048 26.0118 12.7433 25.9854 12.6729C25.9283 12.5191 25.9327 12.5191 26.2798 12.7872C27.1719 13.4727 27.9278 14.6021 28.4507 16.026C28.5782 16.3643 28.5826 16.2325 28.4595 15.8634C28.1387 14.9054 27.5411 13.943 26.816 13.2047C25.7261 12.0973 24.3374 11.5128 22.6763 11.4644C22.3247 11.4557 21.9908 11.4557 21.9292 11.4688ZM23.3355 13.5299C24.4693 13.7013 25.5371 14.3297 25.9546 15.068C26.0513 15.2393 26.0601 15.2745 25.9898 15.2174C25.9458 15.1778 25.8623 15.1339 25.8052 15.1207C25.7261 15.1031 25.7085 15.1119 25.7261 15.1646C25.7481 15.2174 25.7305 15.2262 25.6558 15.2042C25.5987 15.1866 25.4756 15.1602 25.3789 15.1471C25.2119 15.1207 25.2076 15.1251 25.2691 15.1998C25.3174 15.2613 25.3218 15.2745 25.2735 15.2481C25.2339 15.2218 25.2207 15.2262 25.2339 15.2701C25.2427 15.3009 25.357 15.3712 25.4844 15.4195C25.7569 15.525 26.126 15.837 26.315 16.1226C26.4468 16.3204 26.6314 16.962 26.6314 17.2125C26.6314 17.2696 26.7193 17.4454 26.8247 17.6036C27.0181 17.8849 27.1719 18.2101 27.2246 18.4474C27.251 18.566 27.2466 18.5704 27.128 18.5396C27.062 18.5265 26.7369 18.4034 26.4117 18.276C26.0865 18.1485 25.6602 17.9947 25.4624 17.9332C25.0494 17.8014 24.2364 17.6388 24.0035 17.6388C23.8716 17.6388 23.8321 17.6168 23.7881 17.5245C23.7134 17.3575 23.7837 17.2564 24.0518 17.1334C24.4737 16.94 25.2339 16.9488 25.8975 17.1554C26.0425 17.2037 26.1744 17.2301 26.1831 17.2213C26.1919 17.2125 26.1436 17.107 26.0733 16.9928C25.9107 16.7291 25.6734 16.5621 25.335 16.4742C25.0318 16.3951 24.4034 16.3863 24.0826 16.4566C23.8101 16.5138 23.5244 16.7247 23.3926 16.962C23.2036 17.3004 23.1685 18.0914 23.3223 18.4034C23.4058 18.5616 23.8409 18.7638 24.4956 18.9527C24.9395 19.0758 24.979 19.0802 25.0274 19.0142C25.1241 18.8824 25.0186 18.7945 24.7022 18.7374C24.544 18.711 24.2935 18.6671 24.1485 18.6451C23.753 18.5748 23.6211 18.4078 23.8189 18.232C23.9024 18.1529 23.9419 18.1529 24.3594 18.2057C25.335 18.3243 26.4292 18.61 26.816 18.8429C27.1587 19.0494 27.2466 19.2032 27.2466 19.6163C27.2466 20.1612 26.8863 21.2511 26.3897 22.1959C25.8184 23.2945 24.6143 24.6129 23.7749 25.0611C23.3047 25.3116 22.9707 25.3951 22.4126 25.3907C21.4898 25.3907 20.8438 25.0787 20.0572 24.2657C19.3716 23.5582 18.9585 22.8199 18.7652 21.9674C18.7212 21.774 18.6729 21.5763 18.6509 21.5279C18.6202 21.4444 18.6202 21.4444 18.708 21.5191C18.8135 21.6114 19.209 21.7696 19.3365 21.7696C19.4507 21.7696 19.4595 21.7916 19.5078 22.2618C19.5562 22.6881 19.6836 22.9869 19.9034 23.1934C20.066 23.3473 20.066 23.3385 19.9473 23.0352C19.8902 22.8902 19.8462 22.6573 19.8286 22.42C19.8023 21.9586 19.8462 21.9146 20.1231 22.1124C20.668 22.5079 21.8457 22.7804 22.7422 22.7188C23.4585 22.6705 24.3286 22.3717 24.9175 21.9762C25.0494 21.8883 25.168 21.8311 25.1856 21.8487C25.2647 21.9366 25.0933 22.8243 24.9307 23.1407C24.8472 23.3121 24.9263 23.2945 25.0933 23.1012C25.2735 22.899 25.4185 22.5826 25.5152 22.1871C25.5723 21.9542 25.6294 21.8355 25.7525 21.6993C26.0425 21.3829 26.1656 21.1236 26.1172 20.9391C26.0953 20.86 26.0865 20.86 25.9458 20.9171C25.7349 21.005 25.5811 20.9918 25.3218 20.8643C25.0845 20.7457 24.8868 20.5435 24.5308 20.0558C24.2935 19.7306 24.1485 19.6427 23.854 19.6383C23.6914 19.6383 23.6211 19.6602 23.5464 19.7393L23.4453 19.8404L23.5508 19.9283C23.6255 19.9898 23.7134 20.0118 23.8496 20.003C24.0035 19.9986 24.065 20.0162 24.1529 20.1041C24.3023 20.2535 24.2583 20.3414 23.9463 20.4952C23.0411 20.9566 22.2632 20.9918 21.2657 20.627C20.7559 20.4425 20.7295 20.4205 20.7867 20.2491C20.8438 20.0909 20.9888 20.0074 21.2657 19.9723C21.626 19.9239 21.6084 19.6778 21.2437 19.6339C21.1206 19.6163 21.0196 19.6383 20.8745 19.713C20.6768 19.8141 20.6416 19.858 20.1934 20.5699C19.9517 20.9522 19.5606 21.1676 18.9805 21.2291L18.7388 21.2511L18.4663 21.005C18.1499 20.7105 18.0005 20.4293 17.9038 19.9547C17.8423 19.6515 17.8423 19.5987 17.9038 19.3878C18.0313 18.9527 18.3125 18.7286 19.0157 18.5133C19.5254 18.3551 20.2286 18.2101 20.6109 18.1837C20.9405 18.1617 21.002 18.1705 21.1294 18.2496C21.2261 18.3111 21.2701 18.3726 21.2701 18.4474C21.2701 18.5616 21.2305 18.5836 20.9405 18.6275C20.2154 18.7418 19.8726 18.8692 19.9209 19.0142C19.9517 19.1153 20.0879 19.0934 20.7954 18.8604C21.6787 18.5748 21.7842 18.5001 21.8413 18.0914C21.9161 17.5333 21.7359 16.8785 21.4458 16.672C21.002 16.3556 20.1187 16.3248 19.4947 16.6017C19.2398 16.7159 18.8838 17.0763 18.9058 17.1905C18.919 17.2301 18.9541 17.2564 18.9893 17.2476C19.8023 17.0191 19.7935 17.0191 20.3033 17.0323C20.6856 17.0411 20.8482 17.0631 20.9712 17.1246C21.191 17.2345 21.2832 17.3795 21.2261 17.5289C21.191 17.6212 21.1558 17.6388 21.0196 17.6388C20.9273 17.6388 20.6768 17.6695 20.4571 17.7047C20.1055 17.7662 19.8067 17.8585 18.4356 18.3375C18.2422 18.4078 18.0181 18.4737 17.9434 18.4869C17.8028 18.5133 17.7984 18.5089 17.7984 18.3726C17.7984 18.1881 18.0137 17.7354 18.2027 17.5245C18.3213 17.3927 18.3653 17.2872 18.4048 17.0675C18.5674 16.1578 18.9234 15.648 19.5913 15.3712C19.8682 15.2569 19.8858 15.2437 19.8243 15.1778C19.7188 15.0636 19.2661 15.1031 19.1563 15.235C19.0596 15.3536 19.0464 15.2701 19.1343 15.0943C19.2178 14.9361 19.7364 14.4483 20.0396 14.2506C20.6724 13.8331 21.2481 13.6222 22.105 13.4903C22.3687 13.4508 22.9488 13.4683 23.3355 13.5299ZM24.6187 20.8951C24.6758 20.9698 24.812 21.106 24.9307 21.1983L25.1372 21.3653L24.8648 21.5499C24.4781 21.8048 24.0342 22.0113 23.5992 22.13C23.274 22.2179 23.1202 22.231 22.4346 22.231C21.7447 22.231 21.5953 22.2179 21.2481 22.1256C20.8306 22.0201 20.3648 21.8224 20.0484 21.6202L19.8594 21.5016L20.0528 21.3521C20.1626 21.2686 20.3077 21.128 20.3824 21.0445C20.545 20.8468 20.6988 20.8336 20.9932 20.9962C21.4722 21.2599 21.7622 21.3829 22.0743 21.4444C22.584 21.5499 22.8653 21.4884 23.6211 21.1148C24.4737 20.693 24.4693 20.693 24.6187 20.8951ZM18.875 24.0943C18.8003 24.3712 18.8003 24.4195 18.8662 24.8062C18.9937 25.5489 19.4903 26.9332 19.9649 27.856C20.7735 29.4337 22.2456 31.4376 22.5928 31.4376C22.7598 31.4376 23.063 31.0728 23.7574 30.0269C24.7329 28.5592 25.335 27.4166 25.8536 26.0543C26.2271 25.0699 26.3062 24.5689 26.1744 24.0636C26.1436 23.9361 26.1348 23.8351 26.1568 23.8351C26.2535 23.8351 26.5523 24.0724 26.816 24.358C27.1499 24.7184 27.5191 25.2589 27.7476 25.7159C27.941 26.0982 28.2134 26.8936 28.2134 27.065C28.2134 27.2144 27.9761 27.443 27.6509 27.6012C27.5235 27.6627 27.4136 27.7286 27.4004 27.7462C27.3916 27.7638 27.44 27.9835 27.5147 28.234C27.7036 28.8888 27.7564 29.2799 27.6905 29.504C27.5191 30.0841 26.8203 30.3346 26.2139 30.0313C26.0689 29.961 25.937 29.8995 25.9239 29.8995C25.8887 29.8995 25.8579 30.0006 25.7525 30.5059C25.6162 31.1476 25.4493 31.3936 25.0757 31.5035C24.8252 31.5782 24.3946 31.5914 24.1748 31.5255C24.0342 31.4859 24.0166 31.4947 23.854 31.6617C23.7574 31.7628 23.5684 31.8946 23.4322 31.9561C23.2036 32.0616 23.1333 32.0748 22.6324 32.0748C22.1314 32.0748 22.0611 32.066 21.8413 31.9605C21.7095 31.899 21.4986 31.7584 21.3799 31.6441L21.1558 31.4464L20.8745 31.5123C20.5142 31.5958 20.2022 31.565 19.9165 31.42C19.5738 31.2442 19.4551 31.0333 19.3145 30.3346C19.2749 30.1324 19.2222 29.9478 19.2046 29.9259C19.187 29.9083 19.0816 29.9391 18.9761 30.0006C18.4883 30.2862 17.8467 30.1368 17.5479 29.6666C17.4424 29.4996 17.438 29.4601 17.46 29.1129C17.4732 28.8844 17.5347 28.5504 17.6182 28.2735C17.6929 28.0186 17.7544 27.7989 17.7544 27.7813C17.7544 27.7682 17.6094 27.6978 17.438 27.6319C17.1172 27.5133 16.8316 27.2892 16.8316 27.1617C16.8316 27.0343 17.148 26.1949 17.3853 25.6895C17.649 25.1226 17.8072 24.8634 18.106 24.4767C18.3301 24.1822 18.9102 23.6725 18.9322 23.7472C18.941 23.7735 18.9146 23.9317 18.875 24.0943ZM25.1812 25.026C25.1812 25.5577 24.7286 26.8058 24.0386 28.1856C23.3575 29.5479 22.7554 30.4268 22.5093 30.4268C22.2808 30.4268 21.8545 29.7984 21.1866 28.4713C20.6285 27.3595 20.211 26.2345 20.1451 25.65C20.1187 25.4522 20.1275 25.4171 20.189 25.4171C20.2286 25.4171 20.2593 25.3907 20.2593 25.36C20.2593 25.3336 20.2945 25.36 20.3384 25.4215C20.378 25.4874 20.5142 25.6851 20.6372 25.8609C20.7603 26.0411 20.9976 26.4059 21.1646 26.6695C21.6216 27.3946 22.2984 28.212 22.1709 27.8868C22.1578 27.8473 22.1314 27.5748 22.1182 27.2848C22.0962 26.8409 22.105 26.7486 22.1621 26.7003C22.2193 26.6476 22.8169 26.5553 23.1377 26.5421C23.2652 26.5377 23.2696 26.5465 23.2828 26.7354C23.3003 26.9727 23.2168 27.9439 23.1597 28.1373C23.0279 28.5987 23.4541 27.8033 23.8013 26.9464C23.9068 26.6827 24.0826 26.1773 24.1968 25.8258C24.4078 25.1578 24.4209 25.1358 24.8033 24.837C24.9834 24.6964 25.023 24.6832 25.0977 24.7271C25.1636 24.7667 25.1812 24.8282 25.1812 25.026Z" fill="white"/>
<path d="M22.2802 14.2856C21.9022 14.3252 21.3969 14.4482 21.1024 14.5713C20.9267 14.646 20.7904 14.7119 20.8036 14.7251C20.8124 14.7383 20.9662 14.7031 21.1464 14.6548C21.6474 14.5098 22.5746 14.4482 23.1723 14.5142C23.6381 14.5625 24.1215 14.6504 24.3236 14.7163L24.4115 14.7471L24.3236 14.6724C24.2226 14.5889 23.6381 14.4043 23.2909 14.3472C22.9789 14.2944 22.4779 14.2637 22.2802 14.2856Z" fill="white"/>
<path d="M21.8191 15.3142C21.261 15.3405 21.0325 15.3669 20.6985 15.4592C20.4743 15.5251 20.281 15.5822 20.2722 15.591C20.2239 15.6393 22.6409 15.6569 23.3352 15.6174C23.7834 15.591 24.258 15.5778 24.3899 15.5954C24.6975 15.6262 24.6096 15.5646 24.1701 15.446C23.6604 15.3054 22.9748 15.2658 21.8191 15.3142Z" fill="white"/>
<path d="M21.3345 23.2461C21.3829 23.2856 21.5103 23.3604 21.6202 23.4131C21.7959 23.4966 21.8926 23.5054 22.543 23.5054C23.1934 23.5054 23.2901 23.4966 23.4659 23.4131C23.5757 23.3604 23.7032 23.2856 23.7515 23.2461C23.835 23.1802 23.8086 23.1802 23.4219 23.2065C22.8858 23.2505 22.1915 23.2505 21.6641 23.2065C21.273 23.1758 21.251 23.1802 21.3345 23.2461Z" fill="white"/>
<path d="M16.5117 20.8192C16.5424 20.8675 16.7995 20.9257 16.9094 20.9873L17.1071 21.1015L16.9577 21.1762C16.5798 21.374 15.8591 22.0463 15.5602 22.4858C15.4064 22.7143 15.1603 23.2241 15.1603 23.3208C15.1603 23.3691 15.2219 23.3735 15.468 23.3427C16.1711 23.2592 16.8654 22.9384 17.384 22.4594C17.718 22.1474 18.0201 21.5959 18.0113 21.363C18.0112 21.3618 18.0112 21.3605 18.0111 21.3594C18.0059 21.2471 17.9591 21.3759 17.9069 21.5586C17.819 21.8837 17.6476 22.1342 17.3049 22.4462C16.8215 22.8857 16.1623 23.1845 15.4592 23.2856C15.1999 23.3252 15.1955 23.2988 15.3845 22.934C15.7097 22.31 16.2722 21.6948 16.8654 21.3125C17.0412 21.1982 17.173 21.0839 17.1599 21.062C17.1423 21.04 17.0588 20.9829 16.9709 20.9345C16.883 20.8862 16.6105 20.7697 16.6105 20.7697C16.6105 20.7697 16.27 20.8368 16.5117 20.8192Z" fill="white"/>
<path d="M16.1667 20.9312C15.4064 21.4542 14.6901 22.4254 14.4352 23.2823C14.299 23.7349 14.3078 23.8053 14.5099 23.8844C14.9318 24.0513 15.7053 24.0118 16.3732 23.7877C17.485 23.4141 18.1442 22.7813 18.197 22.0474C18.2189 21.7442 18.131 21.3619 18.0344 21.3311C17.986 21.315 17.9783 21.3211 18.0111 21.3594C18.0141 21.3629 18.0175 21.3666 18.0212 21.3707C18.1003 21.4674 18.1574 21.9683 18.1178 22.1925C18.0739 22.4122 17.9201 22.6978 17.7223 22.9263C17.4059 23.2867 16.5973 23.6954 15.8986 23.8536C15.5207 23.9371 14.6989 23.9239 14.5319 23.8316C14.4045 23.7657 14.4001 23.6251 14.5231 23.2296C14.7736 22.4034 15.8305 21.2015 16.5117 20.8192C16.6435 20.7445 16.6105 20.7697 16.6105 20.7697C16.6105 20.7697 16.3996 20.773 16.1667 20.9312Z" fill="white"/>
<path d="M16.9094 20.9873C16.7995 20.9257 16.5424 20.8675 16.5117 20.8192C15.8305 21.2015 14.7736 22.4034 14.5231 23.2296C14.4001 23.6251 14.4045 23.7657 14.5319 23.8316C14.6989 23.9239 15.5207 23.9371 15.8986 23.8536C16.5973 23.6954 17.4059 23.2867 17.7223 22.9263C17.9201 22.6978 18.0739 22.4122 18.1178 22.1925C18.1574 21.9683 18.1003 21.4674 18.0212 21.3707C18.0175 21.3666 18.0141 21.3629 18.0111 21.3594C18.0112 21.3605 18.0112 21.3618 18.0113 21.363C18.0201 21.5959 17.718 22.1474 17.384 22.4594C16.8654 22.9384 16.1711 23.2592 15.468 23.3427C15.2219 23.3735 15.1603 23.3691 15.1603 23.3208C15.1603 23.2241 15.4064 22.7143 15.5602 22.4858C15.8591 22.0463 16.5798 21.374 16.9577 21.1762L17.1071 21.1015L16.9094 20.9873Z" fill="white"/>
<path d="M16.1715 25.7116C15.8287 25.7775 14.462 26.3971 14.2731 26.5729C14.1456 26.6916 14.128 26.7882 14.0841 27.6584C14.0358 28.6164 13.7897 31.7541 13.6666 33.0461C13.6183 33.5514 13.5568 34.193 13.5348 34.4699C13.4777 35.1115 13.1876 37.5461 13.1612 37.6383C13.1217 37.757 13.2491 37.8141 13.5919 37.8405C13.8819 37.8625 13.9215 37.8581 13.9479 37.7834C13.9874 37.6867 14.0753 36.9704 14.172 35.9596C14.4313 33.2394 14.4752 32.7253 14.6554 30.3171C14.7169 29.4953 14.7872 28.5856 14.8092 28.2956C14.8312 28.0055 14.8663 27.5749 14.8795 27.3376L14.9103 26.9069L15.1124 26.8014C15.2223 26.7487 15.4376 26.652 15.5914 26.5905L15.8639 26.4762V29.6798V32.8879L15.965 32.9494C16.1935 33.0988 18.6544 33.3185 21.2252 33.4196C22.649 33.4723 25.2067 33.4196 26.5294 33.3053C28.0851 33.1691 28.9684 33.0548 29.0826 32.9626C29.1266 32.9274 29.1354 32.2858 29.1266 29.715C29.1178 27.9572 29.1134 26.5158 29.1134 26.5158C29.1134 26.5158 29.2145 26.5553 29.3331 26.5993C29.4562 26.6476 29.6847 26.7443 29.8473 26.8146C30.111 26.9333 30.1417 26.964 30.1637 27.0959C30.1769 27.175 30.2296 27.8913 30.2779 28.6911C30.3263 29.4865 30.3878 30.3698 30.4098 30.6466C30.4318 30.9235 30.4713 31.4201 30.4977 31.7453C30.6031 33.068 30.6866 33.925 30.9195 36.1178C31.0865 37.6999 31.0953 37.7614 31.1261 37.7965C31.1832 37.8493 31.8116 37.8317 31.8688 37.7746C31.9083 37.735 31.9039 37.6032 31.8468 37.1813C31.6578 35.819 31.4249 33.6393 31.2667 31.7233C31.1525 30.361 30.9459 27.3727 30.9591 27.3595C30.9767 27.3376 31.7897 27.8517 32.0797 28.0671C33.3629 29.0207 34.1451 30.216 34.8746 32.3385C35.2086 33.2965 35.692 35.1291 35.9469 36.3683C35.9733 36.5046 36.0216 36.6364 36.0524 36.6628C36.1271 36.7243 36.5094 36.6144 36.6412 36.4914C36.7335 36.4035 36.7423 36.3288 36.6676 36.1003C36.6544 36.0651 36.5885 35.7663 36.5138 35.4411C36.2237 34.1183 35.8634 32.8659 35.4767 31.82C34.7252 29.7853 34.0133 28.7131 32.796 27.7814C32.2071 27.3288 31.6798 27.0168 30.6954 26.5378C29.3024 25.8566 28.441 25.5622 28.3751 25.7336C28.3663 25.7643 28.3751 26.9289 28.3971 28.3175C28.4366 30.8488 28.4322 32.2858 28.3839 32.3341C28.3487 32.3693 27.171 32.5187 26.3009 32.5978C23.6378 32.8395 20.6188 32.7868 17.5118 32.444C17.0548 32.3957 16.6637 32.3385 16.6461 32.321C16.6241 32.3034 16.6066 30.8092 16.6022 28.9987L16.589 25.7028L16.4352 25.6984C16.3517 25.694 16.233 25.6984 16.1715 25.7116ZM16.5318 29.0382C16.5406 30.862 16.5538 32.3649 16.567 32.3781C16.6153 32.422 18.1051 32.5846 19.5333 32.6945C20.6847 32.7868 23.6861 32.8219 24.9166 32.7604C25.9405 32.7077 27.2589 32.5846 28.0104 32.4704C28.2521 32.4352 28.4586 32.4045 28.4674 32.4045C28.4806 32.4045 28.4762 30.9103 28.463 29.0866C28.4366 26.1422 28.441 25.7643 28.4982 25.738C28.7003 25.6632 30.8624 26.6213 31.86 27.2277C33.5563 28.2604 34.378 29.2536 35.191 31.2619C35.5074 32.0529 35.7887 32.8835 36.0348 33.7887C36.2413 34.5446 36.65 36.2672 36.65 36.3815C36.65 36.4474 36.2325 36.6364 36.1315 36.6144C36.0919 36.6056 36.048 36.5353 36.026 36.4474C35.38 33.3009 34.5978 31.029 33.7057 29.6755C33.1432 28.8185 32.0709 27.8561 31.17 27.3991C31.069 27.3507 30.9767 27.2892 30.9591 27.2629C30.8888 27.1486 30.8712 27.2541 30.8976 27.6232C30.9151 27.8473 30.9547 28.3791 30.9811 28.8009C31.047 29.882 31.2579 32.5143 31.337 33.3053C31.504 34.9797 31.6842 36.5309 31.7941 37.2824C31.8424 37.6032 31.8424 37.7043 31.8028 37.7306C31.7721 37.7526 31.6227 37.7614 31.4645 37.757L31.1788 37.7438L31.1261 37.3703C30.9459 36.0871 30.5812 32.1496 30.4098 29.6798C30.212 26.7882 30.2296 26.9552 30.1285 26.8893C30.0318 26.8234 29.1398 26.4279 29.0958 26.4279C29.0826 26.4279 29.0694 27.8781 29.0694 29.6535C29.0694 31.4289 29.0563 32.8922 29.0387 32.9098C28.942 33.0065 26.8722 33.235 25.2462 33.3273C24.2091 33.3844 20.3859 33.3449 19.3136 33.2658C17.8238 33.1559 16.7692 33.0548 16.255 32.9714C15.9869 32.9318 15.9562 32.9142 15.9342 32.8088C15.921 32.7428 15.9166 31.2707 15.9298 29.5348C15.943 27.8034 15.943 26.3839 15.9342 26.3839C15.921 26.3839 15.6749 26.485 15.3893 26.6081L14.8619 26.8278L14.8356 27.0783C14.8092 27.3156 14.7565 28.0231 14.5455 30.8883C14.3785 33.1603 13.9918 37.3 13.9083 37.6999C13.8907 37.779 13.8644 37.7878 13.5699 37.7658L13.2491 37.7438L13.2623 37.568C13.2667 37.4713 13.3107 37.0539 13.359 36.6452C13.6622 34.092 14.027 29.8776 14.1764 27.2716C14.1766 27.2684 14.1768 27.2652 14.1769 27.2621C14.2071 26.7441 14.2079 26.7304 14.339 26.6213C14.651 26.3576 16.11 25.7336 16.422 25.7248H16.5231L16.5318 29.0382Z" fill="white"/>
<path d="M16.1715 25.7116C15.8287 25.7775 14.462 26.3971 14.2731 26.5729C14.1456 26.6916 14.128 26.7882 14.0841 27.6584C14.0358 28.6164 13.7897 31.7541 13.6666 33.0461C13.6183 33.5514 13.5568 34.193 13.5348 34.4699C13.4777 35.1115 13.1876 37.5461 13.1612 37.6383C13.1217 37.757 13.2491 37.8141 13.5919 37.8405C13.8819 37.8625 13.9215 37.8581 13.9479 37.7834C13.9874 37.6867 14.0753 36.9704 14.172 35.9596C14.4313 33.2394 14.4752 32.7253 14.6554 30.3171C14.7169 29.4953 14.7872 28.5856 14.8092 28.2956C14.8312 28.0055 14.8663 27.5749 14.8795 27.3376L14.9103 26.9069L15.1124 26.8014C15.2223 26.7487 15.4376 26.652 15.5914 26.5905L15.8639 26.4762V29.6798V32.8879L15.965 32.9494C16.1935 33.0988 18.6544 33.3185 21.2252 33.4196C22.649 33.4723 25.2067 33.4196 26.5294 33.3053C28.0851 33.1691 28.9684 33.0548 29.0826 32.9626C29.1266 32.9274 29.1354 32.2858 29.1266 29.715C29.1178 27.9572 29.1134 26.5158 29.1134 26.5158C29.1134 26.5158 29.2145 26.5553 29.3331 26.5993C29.4562 26.6476 29.6847 26.7443 29.8473 26.8146C30.111 26.9333 30.1417 26.964 30.1637 27.0959C30.1769 27.175 30.2296 27.8913 30.2779 28.6911C30.3263 29.4865 30.3878 30.3698 30.4098 30.6466C30.4318 30.9235 30.4713 31.4201 30.4977 31.7453C30.6031 33.068 30.6866 33.925 30.9195 36.1178C31.0865 37.6999 31.0953 37.7614 31.1261 37.7965C31.1832 37.8493 31.8116 37.8317 31.8688 37.7746C31.9083 37.735 31.9039 37.6032 31.8468 37.1813C31.6578 35.819 31.4249 33.6393 31.2667 31.7233C31.1525 30.361 30.9459 27.3727 30.9591 27.3595C30.9767 27.3376 31.7897 27.8517 32.0797 28.0671C33.3629 29.0207 34.1451 30.216 34.8746 32.3385C35.2086 33.2965 35.692 35.1291 35.9469 36.3683C35.9733 36.5046 36.0216 36.6364 36.0524 36.6628C36.1271 36.7243 36.5094 36.6144 36.6412 36.4914C36.7335 36.4035 36.7423 36.3288 36.6676 36.1003C36.6544 36.0651 36.5885 35.7663 36.5138 35.4411C36.2237 34.1183 35.8634 32.8659 35.4767 31.82C34.7252 29.7853 34.0133 28.7131 32.796 27.7814C32.2071 27.3288 31.6798 27.0168 30.6954 26.5378C29.3024 25.8566 28.441 25.5622 28.3751 25.7336C28.3663 25.7643 28.3751 26.9289 28.3971 28.3175C28.4366 30.8488 28.4322 32.2858 28.3839 32.3341C28.3487 32.3693 27.171 32.5187 26.3009 32.5978C23.6378 32.8395 20.6188 32.7868 17.5118 32.444C17.0548 32.3957 16.6637 32.3385 16.6461 32.321C16.6241 32.3034 16.6066 30.8092 16.6022 28.9987L16.589 25.7028L16.4352 25.6984C16.3517 25.694 16.233 25.6984 16.1715 25.7116ZM16.5318 29.0382C16.5406 30.862 16.5538 32.3649 16.567 32.3781C16.6153 32.422 18.1051 32.5846 19.5333 32.6945C20.6847 32.7868 23.6861 32.8219 24.9166 32.7604C25.9405 32.7077 27.2589 32.5846 28.0104 32.4704C28.2521 32.4352 28.4586 32.4045 28.4674 32.4045C28.4806 32.4045 28.4762 30.9103 28.463 29.0866C28.4366 26.1422 28.441 25.7643 28.4982 25.738C28.7003 25.6632 30.8624 26.6213 31.86 27.2277C33.5563 28.2604 34.378 29.2536 35.191 31.2619C35.5074 32.0529 35.7887 32.8835 36.0348 33.7887C36.2413 34.5446 36.65 36.2672 36.65 36.3815C36.65 36.4474 36.2325 36.6364 36.1315 36.6144C36.0919 36.6056 36.048 36.5353 36.026 36.4474C35.38 33.3009 34.5978 31.029 33.7057 29.6755C33.1432 28.8185 32.0709 27.8561 31.17 27.3991C31.069 27.3507 30.9767 27.2892 30.9591 27.2629C30.8888 27.1486 30.8712 27.2541 30.8976 27.6232C30.9151 27.8473 30.9547 28.3791 30.9811 28.8009C31.047 29.882 31.2579 32.5143 31.337 33.3053C31.504 34.9797 31.6842 36.5309 31.7941 37.2824C31.8424 37.6032 31.8424 37.7043 31.8028 37.7306C31.7721 37.7526 31.6227 37.7614 31.4645 37.757L31.1788 37.7438L31.1261 37.3703C30.9459 36.0871 30.5812 32.1496 30.4098 29.6798C30.212 26.7882 30.2296 26.9552 30.1285 26.8893C30.0318 26.8234 29.1398 26.4279 29.0958 26.4279C29.0826 26.4279 29.0694 27.8781 29.0694 29.6535C29.0694 31.4289 29.0563 32.8922 29.0387 32.9098C28.942 33.0065 26.8722 33.235 25.2462 33.3273C24.2091 33.3844 20.3859 33.3449 19.3136 33.2658C17.8238 33.1559 16.7692 33.0548 16.255 32.9714C15.9869 32.9318 15.9562 32.9142 15.9342 32.8088C15.921 32.7428 15.9166 31.2707 15.9298 29.5348C15.943 27.8034 15.943 26.3839 15.9342 26.3839C15.921 26.3839 15.6749 26.485 15.3893 26.6081L14.8619 26.8278L14.8356 27.0783C14.8092 27.3156 14.7565 28.0231 14.5455 30.8883C14.3785 33.1603 13.9918 37.3 13.9083 37.6999C13.8907 37.779 13.8644 37.7878 13.5699 37.7658L13.2491 37.7438L13.2623 37.568C13.2667 37.4713 13.3107 37.0539 13.359 36.6452C13.6622 34.092 14.027 29.8776 14.1764 27.2716C14.1766 27.2684 14.1768 27.2652 14.1769 27.2621C14.2071 26.7441 14.2079 26.7304 14.339 26.6213C14.651 26.3576 16.11 25.7336 16.422 25.7248H16.5231L16.5318 29.0382Z" fill="white"/>
<path d="M16.5318 29.0382C16.5406 30.862 16.5538 32.3649 16.567 32.3781C16.6153 32.422 18.1051 32.5846 19.5333 32.6945C20.6847 32.7868 23.6861 32.8219 24.9166 32.7604C25.9405 32.7077 27.2589 32.5846 28.0104 32.4704C28.2521 32.4352 28.4586 32.4045 28.4674 32.4045C28.4806 32.4045 28.4762 30.9103 28.463 29.0866C28.4366 26.1422 28.441 25.7643 28.4982 25.738C28.7003 25.6632 30.8624 26.6213 31.86 27.2277C33.5563 28.2604 34.378 29.2536 35.191 31.2619C35.5074 32.0529 35.7887 32.8835 36.0348 33.7887C36.2413 34.5446 36.65 36.2672 36.65 36.3815C36.65 36.4474 36.2325 36.6364 36.1315 36.6144C36.0919 36.6056 36.048 36.5353 36.026 36.4474C35.38 33.3009 34.5978 31.029 33.7057 29.6755C33.1432 28.8185 32.0709 27.8561 31.17 27.3991C31.069 27.3507 30.9767 27.2892 30.9591 27.2629C30.8888 27.1486 30.8712 27.2541 30.8976 27.6232C30.9151 27.8473 30.9547 28.3791 30.9811 28.8009C31.047 29.882 31.2579 32.5143 31.337 33.3053C31.504 34.9797 31.6842 36.5309 31.7941 37.2824C31.8424 37.6032 31.8424 37.7043 31.8028 37.7306C31.7721 37.7526 31.6227 37.7614 31.4645 37.757L31.1788 37.7438L31.1261 37.3703C30.9459 36.0871 30.5812 32.1496 30.4098 29.6798C30.212 26.7882 30.2296 26.9552 30.1285 26.8893C30.0318 26.8234 29.1398 26.4279 29.0958 26.4279C29.0826 26.4279 29.0694 27.8781 29.0694 29.6535C29.0694 31.4289 29.0563 32.8922 29.0387 32.9098C28.942 33.0065 26.8722 33.235 25.2462 33.3273C24.2091 33.3844 20.3859 33.3449 19.3136 33.2658C17.8238 33.1559 16.7692 33.0548 16.255 32.9714C15.9869 32.9318 15.9562 32.9142 15.9342 32.8088C15.921 32.7428 15.9166 31.2707 15.9298 29.5348C15.943 27.8034 15.943 26.3839 15.9342 26.3839C15.921 26.3839 15.6749 26.485 15.3893 26.6081L14.8619 26.8278L14.8356 27.0783C14.8092 27.3156 14.7565 28.0231 14.5455 30.8883C14.3785 33.1603 13.9918 37.3 13.9083 37.6999C13.8907 37.779 13.8644 37.7878 13.5699 37.7658L13.2491 37.7438L13.2623 37.568C13.2667 37.4713 13.3107 37.0539 13.359 36.6452C13.6622 34.092 14.027 29.8776 14.1764 27.2716L14.1769 27.2621C14.2071 26.7441 14.2079 26.7304 14.339 26.6213C14.651 26.3576 16.11 25.7336 16.422 25.7248H16.5231L16.5318 29.0382Z" fill="white"/>
<path d="M16.5318 29.0382C16.5406 30.862 16.5538 32.3649 16.567 32.3781C16.6153 32.422 18.1051 32.5846 19.5333 32.6945C20.6847 32.7868 23.6861 32.8219 24.9166 32.7604C25.9405 32.7077 27.2589 32.5846 28.0104 32.4704C28.2521 32.4352 28.4586 32.4045 28.4674 32.4045C28.4806 32.4045 28.4762 30.9103 28.463 29.0866C28.4366 26.1422 28.441 25.7643 28.4982 25.738C28.7003 25.6632 30.8624 26.6213 31.86 27.2277C33.5563 28.2604 34.378 29.2536 35.191 31.2619C35.5074 32.0529 35.7887 32.8835 36.0348 33.7887C36.2413 34.5446 36.65 36.2672 36.65 36.3815C36.65 36.4474 36.2325 36.6364 36.1315 36.6144C36.0919 36.6056 36.048 36.5353 36.026 36.4474C35.38 33.3009 34.5978 31.029 33.7057 29.6755C33.1432 28.8185 32.0709 27.8561 31.17 27.3991C31.069 27.3507 30.9767 27.2892 30.9591 27.2629C30.8888 27.1486 30.8712 27.2541 30.8976 27.6232C30.9151 27.8473 30.9547 28.3791 30.9811 28.8009C31.047 29.882 31.2579 32.5143 31.337 33.3053C31.504 34.9797 31.6842 36.5309 31.7941 37.2824C31.8424 37.6032 31.8424 37.7043 31.8028 37.7306C31.7721 37.7526 31.6227 37.7614 31.4645 37.757L31.1788 37.7438L31.1261 37.3703C30.9459 36.0871 30.5812 32.1496 30.4098 29.6798C30.212 26.7882 30.2296 26.9552 30.1285 26.8893C30.0318 26.8234 29.1398 26.4279 29.0958 26.4279C29.0826 26.4279 29.0694 27.8781 29.0694 29.6535C29.0694 31.4289 29.0563 32.8922 29.0387 32.9098C28.942 33.0065 26.8722 33.235 25.2462 33.3273C24.2091 33.3844 20.3859 33.3449 19.3136 33.2658C17.8238 33.1559 16.7692 33.0548 16.255 32.9714C15.9869 32.9318 15.9562 32.9142 15.9342 32.8088C15.921 32.7428 15.9166 31.2707 15.9298 29.5348C15.943 27.8034 15.943 26.3839 15.9342 26.3839C15.921 26.3839 15.6749 26.485 15.3893 26.6081L14.8619 26.8278L14.8356 27.0783C14.8092 27.3156 14.7565 28.0231 14.5455 30.8883C14.3785 33.1603 13.9918 37.3 13.9083 37.6999C13.8907 37.779 13.8644 37.7878 13.5699 37.7658L13.2491 37.7438L13.2623 37.568C13.2667 37.4713 13.3107 37.0539 13.359 36.6452C13.6622 34.092 14.027 29.8776 14.1764 27.2716L14.1769 27.2621C14.2071 26.7441 14.2079 26.7304 14.339 26.6213C14.651 26.3576 16.11 25.7336 16.422 25.7248H16.5231L16.5318 29.0382Z" fill="white"/>
<path d="M28.8519 25.7067C29.1947 25.7726 30.5614 26.3922 30.7504 26.568C30.8778 26.6867 30.8954 26.7834 30.9393 27.6535C30.9877 28.6115 31.2338 31.7492 31.3568 33.0412C31.4052 33.5465 31.4667 34.1881 31.4887 34.465C31.5458 35.1066 31.8358 37.5412 31.8622 37.6335C31.9017 37.7521 31.7743 37.8092 31.4315 37.8356C31.1415 37.8576 31.1019 37.8532 31.0756 37.7785C31.036 37.6818 30.9481 36.9655 30.8515 35.9547C30.5922 33.2345 30.5482 32.7204 30.3681 30.3122C30.3065 29.4904 30.2362 28.5807 30.2142 28.2907C30.1923 28.0006 30.1571 27.57 30.1439 27.3327L30.1132 26.902L29.911 26.7965C29.8012 26.7438 29.5858 26.6471 29.432 26.5856L29.1596 26.4714V29.675V32.883L29.0585 32.9445C28.83 33.0939 26.369 33.3136 23.7982 33.4147C22.3744 33.4674 19.8168 33.4147 18.494 33.3005C16.9384 33.1642 16.0551 33.05 15.9408 32.9577C15.8969 32.9225 15.8881 32.2809 15.8969 29.7101C15.9057 27.9523 15.91 26.5109 15.91 26.5109C15.91 26.5109 15.809 26.5505 15.6903 26.5944C15.5673 26.6427 15.3388 26.7394 15.1762 26.8097C14.9125 26.9284 14.8817 26.9591 14.8598 27.091C14.8466 27.1701 14.7938 27.8864 14.7455 28.6862C14.6972 29.4816 14.6356 30.3649 14.6137 30.6418C14.5917 30.9186 14.5521 31.4152 14.5258 31.7404C14.4203 33.0631 14.3368 33.9201 14.1039 36.113C13.9369 37.695 13.9281 37.7565 13.8974 37.7917C13.8402 37.8444 13.2118 37.8268 13.1547 37.7697C13.1151 37.7301 13.1195 37.5983 13.1766 37.1764C13.3656 35.8141 13.5985 33.6344 13.7567 31.7184C13.871 30.3561 14.0775 27.3678 14.0643 27.3547C14.0468 27.3327 13.2338 27.8468 12.9437 28.0622C11.6605 29.0158 10.8783 30.2111 10.1488 32.3337C9.81483 33.2917 9.33143 35.1242 9.07655 36.3634C9.05018 36.4997 9.00184 36.6315 8.97108 36.6579C8.89637 36.7194 8.51405 36.6095 8.38221 36.4865C8.28993 36.3986 8.28114 36.3239 8.35585 36.0954C8.36903 36.0602 8.43495 35.7614 8.50966 35.4362C8.79969 34.1134 9.16005 32.861 9.54677 31.8151C10.2982 29.7804 11.0101 28.7082 12.2274 27.7765C12.8163 27.3239 13.3436 27.0119 14.328 26.5329C15.7211 25.8517 16.5824 25.5573 16.6483 25.7287C16.6571 25.7594 16.6483 26.924 16.6264 28.3127C16.5868 30.8439 16.5912 32.2809 16.6395 32.3293C16.6747 32.3644 17.8524 32.5138 18.7225 32.5929C21.3856 32.8346 24.4047 32.7819 27.5116 32.4391C27.9686 32.3908 28.3598 32.3337 28.3773 32.3161C28.3993 32.2985 28.4169 30.8044 28.4213 28.9938L28.4345 25.6979L28.5883 25.6935C28.6718 25.6891 28.7904 25.6935 28.8519 25.7067ZM28.4916 29.0334C28.4828 30.8571 28.4696 32.36 28.4564 32.3732C28.4081 32.4172 26.9183 32.5797 25.4901 32.6896C24.3388 32.7819 21.3373 32.8171 20.1068 32.7555C19.0829 32.7028 17.7645 32.5797 17.0131 32.4655C16.7714 32.4303 16.5648 32.3996 16.556 32.3996C16.5429 32.3996 16.5473 30.9054 16.5604 29.0817C16.5868 26.1374 16.5824 25.7594 16.5253 25.7331C16.3231 25.6584 14.161 26.6164 13.1635 27.2228C11.4672 28.2555 10.6454 29.2487 9.83241 31.257C9.516 32.048 9.23475 32.8786 8.98866 33.7839C8.78212 34.5397 8.37342 36.2624 8.37342 36.3766C8.37342 36.4425 8.7909 36.6315 8.89198 36.6095C8.93153 36.6007 8.97548 36.5304 8.99745 36.4425C9.64344 33.2961 10.4257 31.0241 11.3178 29.6706C11.8803 28.8136 12.9525 27.8512 13.8534 27.3942C13.9545 27.3459 14.0468 27.2843 14.0643 27.258C14.1347 27.1437 14.1522 27.2492 14.1259 27.6183C14.1083 27.8424 14.0687 28.3742 14.0424 28.7961C13.9765 29.8771 13.7655 32.5094 13.6864 33.3005C13.5194 34.9748 13.3392 36.526 13.2294 37.2775C13.181 37.5983 13.181 37.6994 13.2206 37.7257C13.2514 37.7477 13.4008 37.7565 13.559 37.7521L13.8446 37.7389L13.8974 37.3654C14.0775 36.0822 14.4423 32.1447 14.6137 29.675C14.8114 26.7834 14.7938 26.9504 14.8949 26.8844C14.9916 26.8185 15.8837 26.423 15.9276 26.423C15.9408 26.423 15.954 27.8732 15.954 29.6486C15.954 31.424 15.9672 32.8874 15.9848 32.9049C16.0814 33.0016 18.1513 33.2301 19.7772 33.3224C20.8143 33.3796 24.6376 33.34 25.7099 33.2609C27.1996 33.151 28.2543 33.05 28.7684 32.9665C29.0365 32.9269 29.0673 32.9093 29.0892 32.8039C29.1024 32.738 29.1068 31.2658 29.0936 29.5299C29.0805 27.7985 29.0805 26.3791 29.0892 26.3791C29.1024 26.3791 29.3485 26.4801 29.6342 26.6032L30.1615 26.8229L30.1879 27.0734C30.2142 27.3107 30.267 28.0182 30.4779 30.8835C30.6449 33.1554 31.0316 37.2951 31.1151 37.695C31.1327 37.7741 31.1591 37.7829 31.4535 37.7609L31.7743 37.7389L31.7611 37.5631C31.7567 37.4665 31.7128 37.049 31.6644 36.6403C31.3612 34.0871 30.9965 29.8727 30.8471 27.2668C30.8469 27.2635 30.8467 27.2604 30.8465 27.2572C30.8163 26.7393 30.8155 26.7256 30.6845 26.6164C30.3724 26.3527 28.9135 25.7287 28.6015 25.7199H28.5004L28.4916 29.0334Z" fill="white"/>
<path d="M28.8519 25.7067C29.1947 25.7726 30.5614 26.3922 30.7504 26.568C30.8778 26.6867 30.8954 26.7834 30.9393 27.6535C30.9877 28.6115 31.2338 31.7492 31.3568 33.0412C31.4052 33.5465 31.4667 34.1881 31.4887 34.465C31.5458 35.1066 31.8358 37.5412 31.8622 37.6335C31.9017 37.7521 31.7743 37.8092 31.4315 37.8356C31.1415 37.8576 31.1019 37.8532 31.0756 37.7785C31.036 37.6818 30.9481 36.9655 30.8515 35.9547C30.5922 33.2345 30.5482 32.7204 30.3681 30.3122C30.3065 29.4904 30.2362 28.5807 30.2142 28.2907C30.1923 28.0006 30.1571 27.57 30.1439 27.3327L30.1132 26.902L29.911 26.7965C29.8012 26.7438 29.5858 26.6471 29.432 26.5856L29.1596 26.4714V29.675V32.883L29.0585 32.9445C28.83 33.0939 26.369 33.3136 23.7982 33.4147C22.3744 33.4674 19.8168 33.4147 18.494 33.3005C16.9384 33.1642 16.0551 33.05 15.9408 32.9577C15.8969 32.9225 15.8881 32.2809 15.8969 29.7101C15.9057 27.9523 15.91 26.5109 15.91 26.5109C15.91 26.5109 15.809 26.5505 15.6903 26.5944C15.5673 26.6427 15.3388 26.7394 15.1762 26.8097C14.9125 26.9284 14.8817 26.9591 14.8598 27.091C14.8466 27.1701 14.7938 27.8864 14.7455 28.6862C14.6972 29.4816 14.6356 30.3649 14.6137 30.6418C14.5917 30.9186 14.5521 31.4152 14.5258 31.7404C14.4203 33.0631 14.3368 33.9201 14.1039 36.113C13.9369 37.695 13.9281 37.7565 13.8974 37.7917C13.8402 37.8444 13.2118 37.8268 13.1547 37.7697C13.1151 37.7301 13.1195 37.5983 13.1766 37.1764C13.3656 35.8141 13.5985 33.6344 13.7567 31.7184C13.871 30.3561 14.0775 27.3678 14.0643 27.3547C14.0468 27.3327 13.2338 27.8468 12.9437 28.0622C11.6605 29.0158 10.8783 30.2111 10.1488 32.3337C9.81483 33.2917 9.33143 35.1242 9.07655 36.3634C9.05018 36.4997 9.00184 36.6315 8.97108 36.6579C8.89637 36.7194 8.51405 36.6095 8.38221 36.4865C8.28993 36.3986 8.28114 36.3239 8.35585 36.0954C8.36903 36.0602 8.43495 35.7614 8.50966 35.4362C8.79969 34.1134 9.16005 32.861 9.54677 31.8151C10.2982 29.7804 11.0101 28.7082 12.2274 27.7765C12.8163 27.3239 13.3436 27.0119 14.328 26.5329C15.7211 25.8517 16.5824 25.5573 16.6483 25.7287C16.6571 25.7594 16.6483 26.924 16.6264 28.3127C16.5868 30.8439 16.5912 32.2809 16.6395 32.3293C16.6747 32.3644 17.8524 32.5138 18.7225 32.5929C21.3856 32.8346 24.4047 32.7819 27.5116 32.4391C27.9686 32.3908 28.3598 32.3337 28.3773 32.3161C28.3993 32.2985 28.4169 30.8044 28.4213 28.9938L28.4345 25.6979L28.5883 25.6935C28.6718 25.6891 28.7904 25.6935 28.8519 25.7067ZM28.4916 29.0334C28.4828 30.8571 28.4696 32.36 28.4564 32.3732C28.4081 32.4172 26.9183 32.5797 25.4901 32.6896C24.3388 32.7819 21.3373 32.8171 20.1068 32.7555C19.0829 32.7028 17.7645 32.5797 17.0131 32.4655C16.7714 32.4303 16.5648 32.3996 16.556 32.3996C16.5429 32.3996 16.5473 30.9054 16.5604 29.0817C16.5868 26.1374 16.5824 25.7594 16.5253 25.7331C16.3231 25.6584 14.161 26.6164 13.1635 27.2228C11.4672 28.2555 10.6454 29.2487 9.83241 31.257C9.516 32.048 9.23475 32.8786 8.98866 33.7839C8.78212 34.5397 8.37342 36.2624 8.37342 36.3766C8.37342 36.4425 8.7909 36.6315 8.89198 36.6095C8.93153 36.6007 8.97548 36.5304 8.99745 36.4425C9.64344 33.2961 10.4257 31.0241 11.3178 29.6706C11.8803 28.8136 12.9525 27.8512 13.8534 27.3942C13.9545 27.3459 14.0468 27.2843 14.0643 27.258C14.1347 27.1437 14.1522 27.2492 14.1259 27.6183C14.1083 27.8424 14.0687 28.3742 14.0424 28.7961C13.9765 29.8771 13.7655 32.5094 13.6864 33.3005C13.5194 34.9748 13.3392 36.526 13.2294 37.2775C13.181 37.5983 13.181 37.6994 13.2206 37.7257C13.2514 37.7477 13.4008 37.7565 13.559 37.7521L13.8446 37.7389L13.8974 37.3654C14.0775 36.0822 14.4423 32.1447 14.6137 29.675C14.8114 26.7834 14.7938 26.9504 14.8949 26.8844C14.9916 26.8185 15.8837 26.423 15.9276 26.423C15.9408 26.423 15.954 27.8732 15.954 29.6486C15.954 31.424 15.9672 32.8874 15.9848 32.9049C16.0814 33.0016 18.1513 33.2301 19.7772 33.3224C20.8143 33.3796 24.6376 33.34 25.7099 33.2609C27.1996 33.151 28.2543 33.05 28.7684 32.9665C29.0365 32.9269 29.0673 32.9093 29.0892 32.8039C29.1024 32.738 29.1068 31.2658 29.0936 29.5299C29.0805 27.7985 29.0805 26.3791 29.0892 26.3791C29.1024 26.3791 29.3485 26.4801 29.6342 26.6032L30.1615 26.8229L30.1879 27.0734C30.2142 27.3107 30.267 28.0182 30.4779 30.8835C30.6449 33.1554 31.0316 37.2951 31.1151 37.695C31.1327 37.7741 31.1591 37.7829 31.4535 37.7609L31.7743 37.7389L31.7611 37.5631C31.7567 37.4665 31.7128 37.049 31.6644 36.6403C31.3612 34.0871 30.9965 29.8727 30.8471 27.2668C30.8469 27.2635 30.8467 27.2604 30.8465 27.2572C30.8163 26.7393 30.8155 26.7256 30.6845 26.6164C30.3724 26.3527 28.9135 25.7287 28.6015 25.7199H28.5004L28.4916 29.0334Z" fill="white"/>
<path d="M28.4916 29.0334C28.4828 30.8571 28.4696 32.36 28.4564 32.3732C28.4081 32.4172 26.9183 32.5797 25.4901 32.6896C24.3388 32.7819 21.3373 32.8171 20.1068 32.7555C19.0829 32.7028 17.7645 32.5797 17.0131 32.4655C16.7714 32.4303 16.5648 32.3996 16.556 32.3996C16.5429 32.3996 16.5473 30.9054 16.5604 29.0817C16.5868 26.1374 16.5824 25.7594 16.5253 25.7331C16.3231 25.6584 14.161 26.6164 13.1635 27.2228C11.4672 28.2555 10.6454 29.2487 9.83241 31.257C9.516 32.048 9.23475 32.8786 8.98866 33.7839C8.78212 34.5397 8.37342 36.2624 8.37342 36.3766C8.37342 36.4425 8.7909 36.6315 8.89198 36.6095C8.93153 36.6007 8.97548 36.5304 8.99745 36.4425C9.64344 33.2961 10.4257 31.0241 11.3178 29.6706C11.8803 28.8136 12.9525 27.8512 13.8534 27.3942C13.9545 27.3459 14.0468 27.2843 14.0643 27.258C14.1347 27.1437 14.1522 27.2492 14.1259 27.6183C14.1083 27.8424 14.0687 28.3742 14.0424 28.7961C13.9765 29.8771 13.7655 32.5094 13.6864 33.3005C13.5194 34.9748 13.3392 36.526 13.2294 37.2775C13.181 37.5983 13.181 37.6994 13.2206 37.7257C13.2514 37.7477 13.4008 37.7565 13.559 37.7521L13.8446 37.7389L13.8974 37.3654C14.0775 36.0822 14.4423 32.1447 14.6137 29.675C14.8114 26.7834 14.7938 26.9504 14.8949 26.8844C14.9916 26.8185 15.8837 26.423 15.9276 26.423C15.9408 26.423 15.954 27.8732 15.954 29.6486C15.954 31.424 15.9672 32.8874 15.9848 32.9049C16.0814 33.0016 18.1513 33.2301 19.7772 33.3224C20.8143 33.3796 24.6376 33.34 25.7099 33.2609C27.1996 33.151 28.2543 33.05 28.7684 32.9665C29.0365 32.9269 29.0673 32.9093 29.0892 32.8039C29.1024 32.738 29.1068 31.2658 29.0936 29.5299C29.0805 27.7985 29.0805 26.3791 29.0892 26.3791C29.1024 26.3791 29.3485 26.4801 29.6342 26.6032L30.1615 26.8229L30.1879 27.0734C30.2142 27.3107 30.267 28.0182 30.4779 30.8835C30.6449 33.1554 31.0316 37.2951 31.1151 37.695C31.1327 37.7741 31.1591 37.7829 31.4535 37.7609L31.7743 37.7389L31.7611 37.5631C31.7567 37.4665 31.7128 37.049 31.6644 36.6403C31.3612 34.0871 30.9965 29.8727 30.8471 27.2668L30.8465 27.2572C30.8163 26.7393 30.8155 26.7256 30.6845 26.6164C30.3724 26.3527 28.9135 25.7287 28.6015 25.7199H28.5004L28.4916 29.0334Z" fill="white"/>
<path d="M28.4916 29.0334C28.4828 30.8571 28.4696 32.36 28.4564 32.3732C28.4081 32.4172 26.9183 32.5797 25.4901 32.6896C24.3388 32.7819 21.3373 32.8171 20.1068 32.7555C19.0829 32.7028 17.7645 32.5797 17.0131 32.4655C16.7714 32.4303 16.5648 32.3996 16.556 32.3996C16.5429 32.3996 16.5473 30.9054 16.5604 29.0817C16.5868 26.1374 16.5824 25.7594 16.5253 25.7331C16.3231 25.6584 14.161 26.6164 13.1635 27.2228C11.4672 28.2555 10.6454 29.2487 9.83241 31.257C9.516 32.048 9.23475 32.8786 8.98866 33.7839C8.78212 34.5397 8.37342 36.2624 8.37342 36.3766C8.37342 36.4425 8.7909 36.6315 8.89198 36.6095C8.93153 36.6007 8.97548 36.5304 8.99745 36.4425C9.64344 33.2961 10.4257 31.0241 11.3178 29.6706C11.8803 28.8136 12.9525 27.8512 13.8534 27.3942C13.9545 27.3459 14.0468 27.2843 14.0643 27.258C14.1347 27.1437 14.1522 27.2492 14.1259 27.6183C14.1083 27.8424 14.0687 28.3742 14.0424 28.7961C13.9765 29.8771 13.7655 32.5094 13.6864 33.3005C13.5194 34.9748 13.3392 36.526 13.2294 37.2775C13.181 37.5983 13.181 37.6994 13.2206 37.7257C13.2514 37.7477 13.4008 37.7565 13.559 37.7521L13.8446 37.7389L13.8974 37.3654C14.0775 36.0822 14.4423 32.1447 14.6137 29.675C14.8114 26.7834 14.7938 26.9504 14.8949 26.8844C14.9916 26.8185 15.8837 26.423 15.9276 26.423C15.9408 26.423 15.954 27.8732 15.954 29.6486C15.954 31.424 15.9672 32.8874 15.9848 32.9049C16.0814 33.0016 18.1513 33.2301 19.7772 33.3224C20.8143 33.3796 24.6376 33.34 25.7099 33.2609C27.1996 33.151 28.2543 33.05 28.7684 32.9665C29.0365 32.9269 29.0673 32.9093 29.0892 32.8039C29.1024 32.738 29.1068 31.2658 29.0936 29.5299C29.0805 27.7985 29.0805 26.3791 29.0892 26.3791C29.1024 26.3791 29.3485 26.4801 29.6342 26.6032L30.1615 26.8229L30.1879 27.0734C30.2142 27.3107 30.267 28.0182 30.4779 30.8835C30.6449 33.1554 31.0316 37.2951 31.1151 37.695C31.1327 37.7741 31.1591 37.7829 31.4535 37.7609L31.7743 37.7389L31.7611 37.5631C31.7567 37.4665 31.7128 37.049 31.6644 36.6403C31.3612 34.0871 30.9965 29.8727 30.8471 27.2668L30.8465 27.2572C30.8163 26.7393 30.8155 26.7256 30.6845 26.6164C30.3724 26.3527 28.9135 25.7287 28.6015 25.7199H28.5004L28.4916 29.0334Z" fill="white"/>
<path d="M13.7539 26.8145C13.5693 26.8979 12.6553 27.4736 12.3389 27.7109C10.6514 28.9546 9.65381 30.7651 8.79688 34.1182C8.62109 34.7905 8.30469 36.2891 8.30469 36.4253C8.30469 36.522 8.63428 36.667 8.86719 36.667C8.96826 36.667 9.05176 36.6582 9.05176 36.6406C9.05176 36.6274 9.12207 36.2583 9.20996 35.8188C9.53516 34.1489 9.979 32.6021 10.48 31.376C11.1523 29.7324 12.1587 28.5107 13.5693 27.6143C13.8418 27.4429 13.9297 27.3638 13.9253 27.2935C13.9253 27.2539 13.9165 27.2539 13.8989 27.2935C13.8901 27.3242 13.7583 27.4209 13.6089 27.5088C12.8311 27.9746 11.9302 28.814 11.3677 29.5962C11.0425 30.0532 10.4624 31.1826 10.2207 31.833C9.81201 32.9492 9.44287 34.3115 9.15723 35.7397C9.06055 36.2144 8.96387 36.6011 8.93311 36.6099C8.90234 36.623 8.77051 36.5967 8.63867 36.5615C8.34424 36.4736 8.34863 36.5088 8.50244 35.7222C8.84961 33.9468 9.35498 32.2505 9.91748 30.9541C10.4448 29.7456 11.1831 28.7305 12.0664 28.0098C12.4004 27.7329 13.209 27.1924 13.666 26.9375C13.8242 26.8496 13.9209 26.7793 13.8857 26.7837C13.8506 26.7837 13.7891 26.7969 13.7539 26.8145Z" fill="white"/>
<path d="M32.4231 29.8643C32.0628 30.519 31.8475 31.3452 31.7684 32.4043C31.72 33.0635 31.7376 33.4546 31.8299 33.6743L31.887 33.8062L31.9353 33.6875C31.9617 33.6216 32.0452 33.27 32.1199 32.9097C32.1946 32.5449 32.3045 32.022 32.366 31.7451C32.5901 30.7651 32.678 29.7676 32.5418 29.7676C32.5066 29.7676 32.4539 29.8115 32.4231 29.8643ZM32.5374 30.1938C32.5066 30.6904 32.41 31.2705 32.2518 31.978C32.1814 32.2856 32.076 32.791 32.0145 33.0942C31.9529 33.4019 31.8958 33.6567 31.887 33.6699C31.8299 33.7227 31.8079 33.2832 31.8299 32.6504C31.8562 31.9473 31.9617 31.2046 32.1023 30.7651C32.199 30.4575 32.4891 29.8115 32.533 29.8115C32.5506 29.8115 32.5506 29.9829 32.5374 30.1938Z" fill="white"/>
<path d="M32.5374 30.1938C32.5066 30.6904 32.41 31.2705 32.2518 31.978C32.1814 32.2856 32.076 32.791 32.0145 33.0942C31.9529 33.4019 31.8958 33.6567 31.887 33.6699C31.8299 33.7227 31.8079 33.2832 31.8299 32.6504C31.8562 31.9473 31.9617 31.2046 32.1023 30.7651C32.199 30.4575 32.4891 29.8115 32.533 29.8115C32.5506 29.8115 32.5506 29.9829 32.5374 30.1938Z" fill="white"/>
<path d="M12.5769 29.8643C12.9372 30.519 13.1525 31.3452 13.2316 32.4043C13.28 33.0635 13.2624 33.4546 13.1701 33.6743L13.113 33.8062L13.0647 33.6875C13.0383 33.6216 12.9548 33.27 12.8801 32.9097C12.8054 32.5449 12.6955 32.022 12.634 31.7451C12.4099 30.7651 12.322 29.7676 12.4582 29.7676C12.4934 29.7676 12.5461 29.8115 12.5769 29.8643ZM12.4626 30.1938C12.4934 30.6904 12.59 31.2705 12.7482 31.978C12.8186 32.2856 12.924 32.791 12.9855 33.0942C13.0471 33.4019 13.1042 33.6567 13.113 33.6699C13.1701 33.7227 13.1921 33.2832 13.1701 32.6504C13.1438 31.9473 13.0383 31.2046 12.8977 30.7651C12.801 30.4575 12.5109 29.8115 12.467 29.8115C12.4494 29.8115 12.4494 29.9829 12.4626 30.1938Z" fill="white"/>
<path d="M12.4626 30.1938C12.4934 30.6904 12.59 31.2705 12.7482 31.978C12.8186 32.2856 12.924 32.791 12.9855 33.0942C13.0471 33.4019 13.1042 33.6567 13.113 33.6699C13.1701 33.7227 13.1921 33.2832 13.1701 32.6504C13.1438 31.9473 13.0383 31.2046 12.8977 30.7651C12.801 30.4575 12.5109 29.8115 12.467 29.8115C12.4494 29.8115 12.4494 29.9829 12.4626 30.1938Z" fill="white"/>
<path d="M54.2844 30.864C54.263 30.928 54.2097 30.96 54.1244 30.96C53.9324 30.96 53.8684 30.8747 53.9324 30.704C54.423 29.7867 55.1697 28.8373 56.1724 27.856C57.175 26.8747 58.391 26.0213 59.8204 25.296C61.2497 24.5493 62.839 24.1013 64.5884 23.952C64.7377 23.9307 64.8764 23.92 65.0044 23.92C65.1324 23.92 65.271 23.92 65.4204 23.92C66.807 23.92 67.8097 24.2293 68.4284 24.848C69.047 25.4453 69.3137 26.2027 69.2284 27.12C69.1217 28.4 68.663 29.5733 67.8524 30.64C67.063 31.7067 66.039 32.624 64.7804 33.392C63.543 34.16 62.1884 34.7467 60.7164 35.152C59.2444 35.5787 57.783 35.792 56.3324 35.792C54.7964 35.792 53.367 35.5253 52.0444 34.992C50.743 34.48 49.687 33.6693 48.8764 32.56C48.087 31.4293 47.6924 29.9573 47.6924 28.144C47.6924 27.9733 47.6924 27.8027 47.6924 27.632C47.6924 27.4613 47.703 27.2907 47.7244 27.12C47.8524 25.7547 48.2364 24.3467 48.8764 22.896C49.5377 21.4453 50.423 20.0587 51.5324 18.736C52.663 17.4133 53.9857 16.2293 55.5004 15.184C57.0364 14.1387 58.7324 13.3067 60.5884 12.688C62.4444 12.0693 64.439 11.76 66.5724 11.76C67.9804 11.76 69.015 12.016 69.6764 12.528C70.359 13.04 70.7004 13.6373 70.7004 14.32C70.7004 14.8533 70.4977 15.408 70.0924 15.984C69.687 16.5387 69.1004 17.0293 68.3324 17.456C67.479 17.9253 66.5404 18.2987 65.5164 18.576C64.5137 18.832 63.543 19.024 62.6044 19.152C61.6657 19.2587 60.887 19.344 60.2684 19.408H60.2364C60.1724 19.408 60.1404 19.376 60.1404 19.312C60.1404 19.2053 60.215 19.1413 60.3644 19.12C61.7724 18.9707 63.1484 18.6933 64.4924 18.288C65.8364 17.8613 66.9884 17.36 67.9484 16.784C68.4817 16.464 68.9084 16.0693 69.2284 15.6C69.5484 15.1307 69.7084 14.6613 69.7084 14.192C69.7084 13.6587 69.4417 13.2 68.9084 12.816C68.3964 12.4107 67.5324 12.208 66.3164 12.208C64.4604 12.208 62.7217 12.5173 61.1004 13.136C59.5004 13.7333 58.039 14.5547 56.7164 15.6C55.415 16.624 54.2737 17.7973 53.2924 19.12C52.3324 20.4213 51.5644 21.7867 50.9884 23.216C50.4337 24.624 50.0924 26 49.9644 27.344C49.943 27.5573 49.9217 27.76 49.9004 27.952C49.9004 28.144 49.9004 28.336 49.9004 28.528C49.9004 30.1707 50.2097 31.504 50.8284 32.528C51.447 33.552 52.2684 34.288 53.2924 34.736C54.3164 35.2053 55.4364 35.44 56.6524 35.44C57.911 35.44 59.1804 35.2267 60.4604 34.8C61.7404 34.3733 62.935 33.7867 64.0444 33.04C65.1537 32.272 66.0604 31.376 66.7644 30.352C67.4897 29.328 67.895 28.2293 67.9804 27.056C68.0657 26.1813 67.831 25.488 67.2764 24.976C66.743 24.4427 65.847 24.2293 64.5884 24.336C62.903 24.4853 61.367 24.9227 59.9804 25.648C58.5937 26.352 57.4097 27.1733 56.4284 28.112C55.4684 29.0507 54.7537 29.968 54.2844 30.864ZM76.0566 34.224C75.3313 34.224 74.8193 34.0107 74.5206 33.584C74.2433 33.1573 74.1046 32.6987 74.1046 32.208C74.1046 31.9947 74.126 31.792 74.1686 31.6C74.2113 31.3867 74.2646 31.184 74.3286 30.992C74.6913 30.0533 75.1926 29.1573 75.8326 28.304C76.4726 27.4507 77.006 26.5653 77.4326 25.648C77.582 25.3707 77.6566 25.1147 77.6566 24.88C77.6566 24.624 77.582 24.432 77.4326 24.304C77.2833 24.176 77.1233 24.112 76.9526 24.112C76.5473 24.112 76.0993 24.2933 75.6086 24.656C75.1393 24.9973 74.6806 25.4347 74.2326 25.968C73.8273 26.4373 73.4113 26.9813 72.9846 27.6C72.558 28.1973 72.1526 28.8373 71.7686 29.52C71.406 30.1387 71.0326 30.7893 70.6486 31.472C70.2646 32.1333 69.9553 32.6987 69.7206 33.168C69.55 33.5307 69.3686 33.7653 69.1766 33.872C68.9846 33.9787 68.8033 34.032 68.6326 34.032C68.5473 34.032 68.462 34.0213 68.3766 34C68.2913 34 68.2166 34 68.1526 34C68.3446 33.2747 68.6966 32.2827 69.2086 31.024C69.742 29.744 70.3713 28.2293 71.0966 26.48C71.502 25.5413 71.982 24.464 72.5366 23.248C73.0913 22.0107 73.7206 20.752 74.4246 19.472C75.1286 18.1707 75.9073 16.944 76.7606 15.792C77.614 14.6187 78.5313 13.5947 79.5126 12.72C80.5153 11.8453 81.5713 11.2373 82.6806 10.896C82.8086 10.8747 82.9366 10.8533 83.0646 10.832C83.1926 10.8107 83.3206 10.8 83.4486 10.8C83.7686 10.8 84.046 10.8747 84.2806 11.024C84.5793 11.216 84.7286 11.5573 84.7286 12.048C84.7286 12.3893 84.6326 12.8053 84.4406 13.296C84.0993 14.1493 83.534 15.0667 82.7446 16.048C81.9766 17.0293 81.07 18.032 80.0246 19.056C78.7233 20.3147 77.4753 21.424 76.2806 22.384C75.086 23.344 74.126 24.1013 73.4006 24.656C72.974 25.5733 72.622 26.3733 72.3446 27.056C72.0673 27.7173 71.886 28.1973 71.8006 28.496C72.142 27.984 72.526 27.4293 72.9526 26.832C73.4006 26.2133 73.7953 25.7333 74.1366 25.392C74.6273 24.9013 75.118 24.4853 75.6086 24.144C76.0993 23.8027 76.5793 23.6107 77.0486 23.568C77.774 23.504 78.2966 23.6 78.6166 23.856C78.9366 24.0907 79.0966 24.4427 79.0966 24.912C79.0966 25.3813 78.9686 25.904 78.7126 26.48C78.4353 27.1413 78.1046 27.8027 77.7206 28.464C77.3366 29.1253 76.9846 29.7653 76.6646 30.384C76.5793 30.5547 76.4193 30.8853 76.1846 31.376C75.9713 31.8453 75.8326 32.2933 75.7686 32.72C75.7686 32.7413 75.758 32.7733 75.7366 32.816C75.7366 32.8587 75.7366 32.9013 75.7366 32.944C75.7366 33.1787 75.8006 33.36 75.9286 33.488C76.0566 33.5947 76.206 33.648 76.3766 33.648C76.7393 33.648 77.0806 33.5307 77.4006 33.296C77.7206 33.0613 77.998 32.8053 78.2326 32.528C78.7233 31.9947 79.1713 31.408 79.5766 30.768C79.982 30.128 80.3873 29.4453 80.7926 28.72C80.8566 28.6347 80.9206 28.592 80.9846 28.592C81.07 28.592 81.1126 28.656 81.1126 28.784C81.1126 28.8907 81.0913 28.976 81.0486 29.04C80.6646 29.744 80.2486 30.448 79.8006 31.152C79.374 31.856 78.8513 32.5173 78.2326 33.136C77.9553 33.4133 77.6353 33.6693 77.2726 33.904C76.91 34.1173 76.5046 34.224 76.0566 34.224ZM73.6886 24.016C74.9686 23.0773 76.1206 22.128 77.1446 21.168C78.1686 20.208 79.2033 19.1733 80.2486 18.064C80.5473 17.744 80.9313 17.3173 81.4006 16.784C81.8913 16.2507 82.3713 15.6747 82.8406 15.056C83.31 14.4373 83.662 13.84 83.8966 13.264C84.11 12.7733 84.2166 12.3573 84.2166 12.016C84.2166 11.44 83.95 11.152 83.4166 11.152C83.1393 11.152 82.83 11.2373 82.4886 11.408C82.1473 11.5787 81.8273 11.8133 81.5286 12.112C80.5046 13.072 79.502 14.2453 78.5206 15.632C77.5606 16.9973 76.6646 18.416 75.8326 19.888C75.022 21.36 74.3073 22.736 73.6886 24.016ZM83.6744 34.256C82.437 34.256 81.5624 33.936 81.0504 33.296C80.7944 33.0187 80.613 32.688 80.5064 32.304C80.3997 31.92 80.3464 31.5253 80.3464 31.12C80.3464 30.608 80.4104 30.096 80.5384 29.584C80.6664 29.0507 80.8264 28.56 81.0184 28.112C81.317 27.408 81.7117 26.704 82.2024 26C82.693 25.2747 83.2797 24.6667 83.9624 24.176C84.6664 23.6853 85.4344 23.44 86.2664 23.44C86.821 23.44 87.2584 23.5787 87.5784 23.856C87.8984 24.1333 88.0584 24.56 88.0584 25.136C88.0584 25.7973 87.8557 26.4693 87.4504 27.152C87.045 27.8133 86.533 28.368 85.9144 28.816C85.2957 29.264 84.6557 29.488 83.9944 29.488C83.397 29.488 82.8744 29.2747 82.4264 28.848C82.2984 29.1893 82.1917 29.5733 82.1064 30C82.021 30.4053 81.9784 30.8213 81.9784 31.248C81.9784 31.9093 82.1064 32.4853 82.3624 32.976C82.6397 33.4667 83.1304 33.712 83.8344 33.712C84.3464 33.712 84.837 33.584 85.3064 33.328C85.797 33.0507 86.2344 32.72 86.6184 32.336C87.045 31.888 87.4504 31.408 87.8344 30.896C88.2184 30.384 88.5917 29.7867 88.9544 29.104C88.997 29.04 89.029 29.008 89.0504 29.008C89.1357 29.008 89.1784 29.104 89.1784 29.296C89.1784 29.424 89.1357 29.5627 89.0504 29.712C88.7304 30.288 88.357 30.8747 87.9304 31.472C87.5037 32.048 87.0664 32.5493 86.6184 32.976C86.213 33.36 85.7757 33.6693 85.3064 33.904C84.837 34.1387 84.293 34.256 83.6744 34.256ZM82.5864 28.368C82.7357 28.5813 82.9064 28.7413 83.0984 28.848C83.3117 28.9333 83.525 28.976 83.7384 28.976C84.2504 28.976 84.7837 28.784 85.3384 28.4C85.893 27.9947 86.341 27.5253 86.6824 26.992C86.8317 26.7573 86.9597 26.448 87.0664 26.064C87.1944 25.68 87.2584 25.3173 87.2584 24.976C87.2584 24.6773 87.1944 24.4213 87.0664 24.208C86.9597 23.9733 86.7357 23.856 86.3944 23.856C86.0104 23.856 85.5517 24.0907 85.0184 24.56C84.5064 25.0293 84.0157 25.6373 83.5464 26.384C83.397 26.64 83.2264 26.9387 83.0344 27.28C82.8637 27.6213 82.7144 27.984 82.5864 28.368ZM88.8494 43.088C88.7 43.1093 88.5614 43.12 88.4334 43.12C88.3054 43.1413 88.1774 43.152 88.0494 43.152C87.324 43.152 86.78 42.96 86.4174 42.576C86.0334 42.192 85.8414 41.7333 85.8414 41.2C85.8414 40.752 85.98 40.2827 86.2574 39.792C86.5134 39.3227 86.908 38.9173 87.4414 38.576C88.4867 37.8933 89.6707 37.264 90.9934 36.688C92.3374 36.1333 93.6494 35.4933 94.9294 34.768C94.9934 34.5973 95.0574 34.4053 95.1214 34.192C95.2067 34 95.2707 33.7973 95.3134 33.584C95.3774 33.2853 95.4094 33.0187 95.4094 32.784C95.4094 32.272 95.2707 31.8987 94.9934 31.664C94.7374 31.4293 94.3854 31.312 93.9374 31.312C93.4467 31.312 92.892 31.44 92.2734 31.696C92.1027 31.76 91.9107 31.8347 91.6974 31.92C91.484 32.0053 91.26 32.1013 91.0254 32.208C90.812 32.6347 90.492 33.0187 90.0654 33.36C89.66 33.7013 89.3187 33.8933 89.0414 33.936C88.9774 33.9573 88.8814 33.968 88.7534 33.968C88.348 33.968 88.1454 33.7867 88.1454 33.424C88.1454 33.0613 88.3374 32.7733 88.7214 32.56C89.2974 32.2187 89.8414 31.856 90.3534 31.472C90.8867 31.088 91.4307 30.6293 91.9854 30.096C92.5614 29.5413 93.212 28.8587 93.9374 28.048C94.3854 27.536 94.844 27.0453 95.3134 26.576C95.804 26.0853 96.2947 25.616 96.7854 25.168C96.636 25.1253 96.4014 25.0933 96.0814 25.072C95.7614 25.0293 95.4307 24.9867 95.0894 24.944C94.7694 24.9013 94.5134 24.8693 94.3214 24.848C94.1934 24.8267 94.0654 24.816 93.9374 24.816C93.8307 24.816 93.724 24.816 93.6174 24.816C93.148 24.816 92.7107 24.9013 92.3054 25.072C91.9214 25.2213 91.5587 25.5307 91.2174 26C90.94 26.384 90.62 26.896 90.2574 27.536C89.916 28.1547 89.4787 28.9333 88.9454 29.872C88.8814 30 88.8174 30.064 88.7534 30.064C88.668 30.064 88.6254 29.9893 88.6254 29.84C88.6254 29.7333 88.668 29.6053 88.7534 29.456C89.18 28.7307 89.5214 28.0907 89.7774 27.536C90.0334 26.9813 90.3534 26.3733 90.7374 25.712C91.036 25.1787 91.3347 24.752 91.6334 24.432C91.9534 24.0907 92.3694 23.856 92.8814 23.728C93.052 23.6853 93.2227 23.6533 93.3934 23.632C93.5854 23.6107 93.7774 23.6 93.9694 23.6C94.396 23.6 94.812 23.6213 95.2174 23.664C95.644 23.7067 96.028 23.728 96.3694 23.728C96.54 23.728 96.8067 23.728 97.1694 23.728C97.5534 23.7067 97.9267 23.6853 98.2894 23.664C98.652 23.6213 98.8974 23.568 99.0254 23.504C99.196 23.568 99.2814 23.7173 99.2814 23.952C99.2814 24.2293 99.1427 24.5387 98.8654 24.88C98.588 25.2 98.172 25.328 97.6174 25.264C97.084 25.6053 96.4974 26.096 95.8574 26.736C95.2174 27.376 94.6734 27.9307 94.2254 28.4C94.0547 28.592 93.788 28.8587 93.4254 29.2C93.0627 29.5413 92.6787 29.9147 92.2734 30.32C91.8894 30.7253 91.5374 31.12 91.2174 31.504C91.2174 31.5253 91.2067 31.5467 91.1854 31.568C91.1854 31.5893 91.1854 31.6213 91.1854 31.664C91.5907 31.408 92.06 31.1947 92.5934 31.024C93.02 30.896 93.3934 30.8107 93.7134 30.768C94.0547 30.704 94.364 30.672 94.6414 30.672C95.3667 30.672 95.868 30.8533 96.1454 31.216C96.444 31.5787 96.5934 32.0373 96.5934 32.592C96.5934 32.8907 96.5614 33.2213 96.4974 33.584C97.2014 32.944 97.8627 32.24 98.4814 31.472C99.1 30.6827 99.612 29.9253 100.017 29.2C100.209 28.9013 100.38 28.752 100.529 28.752C100.572 28.752 100.593 28.784 100.593 28.848C100.593 28.9333 100.551 29.0507 100.465 29.2C100.081 29.8827 99.6654 30.5547 99.2174 31.216C98.7694 31.856 98.2787 32.4533 97.7454 33.008C97.3614 33.392 96.9027 33.7973 96.3694 34.224C96.3054 34.4587 96.2307 34.704 96.1454 34.96C96.06 35.216 95.964 35.472 95.8574 35.728C95.3667 36.944 94.7694 38.0747 94.0654 39.12C93.3827 40.1653 92.604 41.0293 91.7294 41.712C90.876 42.416 89.916 42.8747 88.8494 43.088ZM88.6574 42.544C89.7454 42.224 90.652 41.6693 91.3774 40.88C92.124 40.112 92.764 39.2267 93.2974 38.224C93.8307 37.2427 94.3214 36.2827 94.7694 35.344C94.2574 35.6853 93.564 36.048 92.6894 36.432C91.836 36.8373 90.9614 37.2427 90.0654 37.648C89.1694 38.0747 88.3907 38.512 87.7294 38.96C87.2814 39.2587 86.9507 39.6107 86.7374 40.016C86.524 40.4427 86.4174 40.848 86.4174 41.232C86.4174 41.6373 86.5347 41.9787 86.7694 42.256C87.0254 42.5333 87.388 42.672 87.8574 42.672C87.964 42.672 88.0814 42.6613 88.2094 42.64C88.3587 42.6187 88.508 42.5867 88.6574 42.544ZM117.445 34.192C116.805 34.192 116.314 34 115.973 33.616C115.631 33.2107 115.461 32.7093 115.461 32.112C115.461 31.4507 115.631 30.7893 115.973 30.128C116.314 29.4453 116.698 28.784 117.125 28.144C117.573 27.504 117.967 26.896 118.309 26.32C118.65 25.744 118.821 25.232 118.821 24.784C118.821 24.6133 118.778 24.464 118.693 24.336C118.607 24.1867 118.447 24.112 118.213 24.112C117.53 24.112 116.815 24.432 116.069 25.072C115.343 25.6907 114.639 26.4907 113.957 27.472C113.274 28.4533 112.655 29.4773 112.101 30.544C111.567 31.6107 111.151 32.592 110.853 33.488C110.511 33.4027 110.277 33.2747 110.149 33.104C110.042 32.912 109.989 32.7093 109.989 32.496C109.989 32.1547 110.031 31.824 110.117 31.504C110.223 31.184 110.383 30.7893 110.597 30.32C110.81 29.8507 111.087 29.2533 111.429 28.528C111.77 27.7813 112.175 26.8213 112.645 25.648C112.709 25.4773 112.751 25.328 112.773 25.2C112.794 25.072 112.805 24.9547 112.805 24.848C112.805 24.3573 112.602 24.112 112.197 24.112C111.685 24.112 111.162 24.3253 110.629 24.752C110.095 25.1573 109.573 25.7013 109.061 26.384C108.57 27.0667 108.101 27.8027 107.653 28.592C107.205 29.3813 106.799 30.16 106.437 30.928C106.074 31.6747 105.775 32.3253 105.541 32.88C105.327 33.3707 105.071 33.6907 104.773 33.84C104.474 33.968 104.186 34.032 103.909 34.032C103.823 34.032 103.717 34.0213 103.589 34C103.482 34 103.375 34 103.269 34C103.695 33.1467 104.143 32.2187 104.613 31.216C105.103 30.192 105.551 29.168 105.957 28.144C106.362 27.12 106.693 26.1387 106.949 25.2C107.205 24.2613 107.333 23.4507 107.333 22.768C107.333 22.6827 107.322 22.6187 107.301 22.576C107.301 22.5333 107.301 22.4907 107.301 22.448C107.301 22.384 107.322 22.352 107.365 22.352C107.578 22.352 107.749 22.4907 107.877 22.768C108.005 23.024 108.09 23.3227 108.133 23.664C108.197 23.984 108.229 24.24 108.229 24.432C108.229 24.9653 108.165 25.52 108.037 26.096C107.909 26.6507 107.759 27.12 107.589 27.504C108.399 26.416 109.231 25.488 110.085 24.72C110.959 23.952 111.823 23.568 112.677 23.568C113.253 23.568 113.669 23.6853 113.925 23.92C114.181 24.1547 114.309 24.4853 114.309 24.912C114.309 25.2107 114.255 25.5093 114.149 25.808C114.063 26.1067 113.914 26.512 113.701 27.024C114.511 25.9147 115.301 25.0613 116.069 24.464C116.858 23.8667 117.637 23.568 118.405 23.568C119.023 23.568 119.482 23.7067 119.781 23.984C120.101 24.2613 120.261 24.6347 120.261 25.104C120.261 25.616 120.09 26.224 119.749 26.928C119.429 27.6107 119.055 28.3253 118.629 29.072C118.202 29.7973 117.818 30.4907 117.477 31.152C117.157 31.792 116.997 32.3253 116.997 32.752C116.997 32.9867 117.05 33.2 117.157 33.392C117.263 33.584 117.455 33.68 117.733 33.68C118.095 33.68 118.437 33.5627 118.757 33.328C119.098 33.072 119.386 32.8053 119.621 32.528C120.111 31.9947 120.559 31.408 120.965 30.768C121.391 30.1067 121.807 29.4133 122.213 28.688C122.277 28.6027 122.319 28.56 122.341 28.56C122.426 28.56 122.469 28.656 122.469 28.848C122.469 28.976 122.447 29.072 122.405 29.136C122.021 29.84 121.615 30.5333 121.189 31.216C120.762 31.8773 120.239 32.5173 119.621 33.136C119.343 33.4133 119.023 33.6587 118.661 33.872C118.298 34.0853 117.893 34.192 117.445 34.192ZM128.793 34.224C128.111 34.224 127.641 34.0107 127.385 33.584C127.129 33.136 127.001 32.6453 127.001 32.112C127.001 32.0053 127.012 31.824 127.033 31.568C127.076 31.2907 127.119 31.0347 127.161 30.8C126.863 31.2053 126.5 31.6533 126.073 32.144C125.668 32.6347 125.252 33.0507 124.825 33.392C124.143 33.9467 123.524 34.224 122.969 34.224C122.436 34.224 122.02 34 121.721 33.552C121.444 33.104 121.305 32.5387 121.305 31.856C121.305 30.9813 121.497 30.096 121.881 29.2C122.265 28.304 122.767 27.4613 123.385 26.672C124.025 25.8613 124.729 25.168 125.497 24.592C125.945 24.272 126.489 24.016 127.129 23.824C127.791 23.6107 128.452 23.504 129.113 23.504C129.86 23.504 130.511 23.6213 131.065 23.856C131.641 24.0693 132.036 24.3787 132.249 24.784C131.801 25.36 131.343 26.0747 130.873 26.928C130.404 27.76 129.999 28.5173 129.657 29.2C129.423 29.6693 129.167 30.256 128.889 30.96C128.612 31.6427 128.473 32.2293 128.473 32.72C128.473 32.9333 128.527 33.1467 128.633 33.36C128.74 33.5733 128.943 33.68 129.241 33.68C129.583 33.68 129.913 33.552 130.233 33.296C130.553 33.04 130.82 32.784 131.033 32.528C131.524 31.9947 131.972 31.408 132.377 30.768C132.783 30.128 133.188 29.4453 133.593 28.72C133.657 28.6347 133.721 28.592 133.785 28.592C133.871 28.592 133.913 28.656 133.913 28.784C133.913 28.8907 133.892 28.976 133.849 29.04C133.487 29.744 133.081 30.448 132.633 31.152C132.185 31.856 131.652 32.5173 131.033 33.136C130.735 33.4347 130.383 33.6907 129.977 33.904C129.572 34.1173 129.177 34.224 128.793 34.224ZM123.673 33.232C124.079 33.232 124.516 33.0187 124.985 32.592C125.476 32.144 125.945 31.6107 126.393 30.992C126.863 30.352 127.279 29.744 127.641 29.168C128.025 28.5707 128.324 28.112 128.537 27.792C128.985 27.088 129.401 26.5013 129.785 26.032C130.169 25.5627 130.767 25.2 131.577 24.944C131.62 24.944 131.652 24.944 131.673 24.944C131.716 24.9227 131.759 24.912 131.801 24.912C131.609 24.6133 131.289 24.3893 130.841 24.24C130.393 24.0907 129.956 24.016 129.529 24.016C128.868 24.016 128.228 24.1973 127.609 24.56C126.991 24.9227 126.425 25.3813 125.913 25.936C125.423 26.512 124.943 27.1413 124.473 27.824C124.004 28.5067 123.62 29.2 123.321 29.904C123.044 30.608 122.905 31.28 122.905 31.92C122.905 32.2613 122.959 32.5707 123.065 32.848C123.193 33.104 123.396 33.232 123.673 33.232ZM145.351 34.192C144.711 34.192 144.22 34 143.879 33.616C143.538 33.2107 143.367 32.7093 143.367 32.112C143.367 31.4507 143.538 30.7893 143.879 30.128C144.22 29.4453 144.604 28.784 145.031 28.144C145.479 27.504 145.874 26.896 146.215 26.32C146.556 25.744 146.727 25.232 146.727 24.784C146.727 24.6133 146.684 24.464 146.599 24.336C146.514 24.1867 146.354 24.112 146.119 24.112C145.436 24.112 144.722 24.432 143.975 25.072C143.25 25.6907 142.546 26.4907 141.863 27.472C141.18 28.4533 140.562 29.4773 140.007 30.544C139.474 31.6107 139.058 32.592 138.759 33.488C138.418 33.4027 138.183 33.2747 138.055 33.104C137.948 32.912 137.895 32.7093 137.895 32.496C137.895 32.1547 137.938 31.824 138.023 31.504C138.13 31.184 138.29 30.7893 138.503 30.32C138.716 29.8507 138.994 29.2533 139.335 28.528C139.676 27.7813 140.082 26.8213 140.551 25.648C140.615 25.4773 140.658 25.328 140.679 25.2C140.7 25.072 140.711 24.9547 140.711 24.848C140.711 24.3573 140.508 24.112 140.103 24.112C139.591 24.112 139.068 24.3253 138.535 24.752C138.002 25.1573 137.479 25.7013 136.967 26.384C136.476 27.0667 136.007 27.8027 135.559 28.592C135.111 29.3813 134.706 30.16 134.343 30.928C133.98 31.6747 133.682 32.3253 133.447 32.88C133.234 33.3707 132.978 33.6907 132.679 33.84C132.38 33.968 132.092 34.032 131.815 34.032C131.73 34.032 131.623 34.0213 131.495 34C131.388 34 131.282 34 131.175 34C131.602 33.1467 132.05 32.2187 132.519 31.216C133.01 30.192 133.458 29.168 133.863 28.144C134.268 27.12 134.599 26.1387 134.855 25.2C135.111 24.2613 135.239 23.4507 135.239 22.768C135.239 22.6827 135.228 22.6187 135.207 22.576C135.207 22.5333 135.207 22.4907 135.207 22.448C135.207 22.384 135.228 22.352 135.271 22.352C135.484 22.352 135.655 22.4907 135.783 22.768C135.911 23.024 135.996 23.3227 136.039 23.664C136.103 23.984 136.135 24.24 136.135 24.432C136.135 24.9653 136.071 25.52 135.943 26.096C135.815 26.6507 135.666 27.12 135.495 27.504C136.306 26.416 137.138 25.488 137.991 24.72C138.866 23.952 139.73 23.568 140.583 23.568C141.159 23.568 141.575 23.6853 141.831 23.92C142.087 24.1547 142.215 24.4853 142.215 24.912C142.215 25.2107 142.162 25.5093 142.055 25.808C141.97 26.1067 141.82 26.512 141.607 27.024C142.418 25.9147 143.207 25.0613 143.975 24.464C144.764 23.8667 145.543 23.568 146.311 23.568C146.93 23.568 147.388 23.7067 147.687 23.984C148.007 24.2613 148.167 24.6347 148.167 25.104C148.167 25.616 147.996 26.224 147.655 26.928C147.335 27.6107 146.962 28.3253 146.535 29.072C146.108 29.7973 145.724 30.4907 145.383 31.152C145.063 31.792 144.903 32.3253 144.903 32.752C144.903 32.9867 144.956 33.2 145.063 33.392C145.17 33.584 145.362 33.68 145.639 33.68C146.002 33.68 146.343 33.5627 146.663 33.328C147.004 33.072 147.292 32.8053 147.527 32.528C148.018 31.9947 148.466 31.408 148.871 30.768C149.298 30.1067 149.714 29.4133 150.119 28.688C150.183 28.6027 150.226 28.56 150.247 28.56C150.332 28.56 150.375 28.656 150.375 28.848C150.375 28.976 150.354 29.072 150.311 29.136C149.927 29.84 149.522 30.5333 149.095 31.216C148.668 31.8773 148.146 32.5173 147.527 33.136C147.25 33.4133 146.93 33.6587 146.567 33.872C146.204 34.0853 145.799 34.192 145.351 34.192ZM150.78 34.192C150.182 34.192 149.745 34 149.468 33.616C149.19 33.2107 149.052 32.72 149.052 32.144C149.052 31.9733 149.062 31.8027 149.084 31.632C149.126 31.44 149.169 31.248 149.212 31.056C149.446 30.2027 149.809 29.2533 150.3 28.208C150.812 27.1413 151.302 26.192 151.772 25.36C152.049 24.8907 152.305 24.56 152.54 24.368C152.774 24.1547 153.03 24.0053 153.308 23.92C153.585 23.8133 153.916 23.696 154.3 23.568C154.406 23.5253 154.513 23.4933 154.62 23.472C154.726 23.4507 154.844 23.4293 154.972 23.408C154.545 23.8347 154.108 24.3467 153.66 24.944C153.233 25.5413 152.764 26.3627 152.252 27.408C151.974 27.9627 151.697 28.5813 151.42 29.264C151.164 29.9467 150.94 30.5867 150.748 31.184C150.556 31.7813 150.449 32.2507 150.428 32.592C150.406 32.9973 150.46 33.2853 150.588 33.456C150.716 33.6267 150.886 33.712 151.1 33.712C151.462 33.712 151.804 33.584 152.124 33.328C152.465 33.072 152.764 32.8053 153.02 32.528C153.489 31.9947 153.926 31.408 154.332 30.768C154.758 30.128 155.174 29.4453 155.58 28.72C155.644 28.6347 155.697 28.592 155.74 28.592C155.825 28.592 155.868 28.656 155.868 28.784C155.868 28.8907 155.846 28.976 155.804 29.04C155.42 29.744 155.014 30.448 154.588 31.152C154.161 31.856 153.638 32.5173 153.02 33.136C152.742 33.4133 152.412 33.6587 152.028 33.872C151.665 34.0853 151.249 34.192 150.78 34.192ZM154.684 21.616C154.449 21.616 154.246 21.5307 154.076 21.36C153.926 21.1893 153.852 20.9867 153.852 20.752C153.852 20.4533 153.969 20.1867 154.204 19.952C154.46 19.7173 154.737 19.5787 155.036 19.536C155.27 19.536 155.462 19.6213 155.612 19.792C155.782 19.9413 155.868 20.144 155.868 20.4C155.868 20.6773 155.75 20.9547 155.516 21.232C155.281 21.488 155.004 21.616 154.684 21.616ZM159.096 34.288C157.88 34.288 156.93 33.9573 156.248 33.296C155.586 32.6347 155.256 31.7493 155.256 30.64C155.256 30.256 155.298 29.8507 155.384 29.424C155.469 28.976 155.608 28.5173 155.8 28.048C156.098 27.344 156.482 26.6507 156.952 25.968C157.421 25.2853 157.986 24.7093 158.648 24.24C159.309 23.7707 160.045 23.504 160.856 23.44C161.154 23.4187 161.432 23.44 161.688 23.504C161.944 23.568 162.168 23.696 162.36 23.888C162.53 24.0373 162.648 24.2293 162.712 24.464C162.797 24.6773 162.84 24.9013 162.84 25.136C162.84 25.7973 162.637 26.4693 162.232 27.152C161.826 27.8133 161.314 28.368 160.696 28.816C160.077 29.264 159.437 29.488 158.776 29.488C158.178 29.488 157.656 29.2747 157.208 28.848C157.016 29.5093 156.92 30.1707 156.92 30.832C156.92 31.6427 157.101 32.336 157.464 32.912C157.848 33.4667 158.498 33.744 159.416 33.744C160.333 33.744 161.122 33.4987 161.784 33.008C162.466 32.5173 163.053 31.9093 163.544 31.184C164.056 30.4373 164.504 29.7227 164.888 29.04C164.93 28.976 164.973 28.944 165.016 28.944C165.101 28.944 165.144 29.0293 165.144 29.2C165.144 29.3067 165.112 29.424 165.048 29.552C164.642 30.2773 164.173 31.0027 163.64 31.728C163.128 32.4533 162.498 33.0613 161.752 33.552C161.026 34.0427 160.141 34.288 159.096 34.288ZM157.368 28.368C157.517 28.5813 157.688 28.7413 157.88 28.848C158.093 28.9333 158.306 28.976 158.52 28.976C159.032 28.976 159.565 28.784 160.12 28.4C160.674 27.9947 161.122 27.5253 161.464 26.992C161.613 26.7573 161.741 26.448 161.848 26.064C161.976 25.68 162.04 25.3173 162.04 24.976C162.04 24.6773 161.976 24.4213 161.848 24.208C161.741 23.9733 161.517 23.856 161.176 23.856C160.792 23.856 160.333 24.0907 159.8 24.56C159.288 25.0293 158.797 25.6373 158.328 26.384C158.178 26.64 158.008 26.9387 157.816 27.28C157.645 27.6213 157.496 27.984 157.368 28.368ZM194.674 38C193.65 38 192.722 37.776 191.89 37.328C191.079 36.88 190.343 36.2933 189.682 35.568C189.042 34.8427 188.455 34.0747 187.922 33.264C187.709 32.944 187.453 32.496 187.154 31.92C186.855 31.3227 186.546 30.672 186.226 29.968C185.906 29.264 185.586 28.5813 185.266 27.92C184.967 27.2373 184.701 26.6613 184.466 26.192C184.21 25.6373 183.997 25.2853 183.826 25.136C183.677 24.9867 183.655 24.8587 183.762 24.752C183.783 24.752 183.794 24.7413 183.794 24.72C183.879 24.6347 183.986 24.6133 184.114 24.656C184.221 24.6987 184.317 24.7413 184.402 24.784C184.509 24.8267 184.615 24.8693 184.722 24.912C185.49 25.168 186.311 25.296 187.186 25.296C188.103 25.296 189.021 25.1467 189.938 24.848C190.855 24.528 191.698 24.0907 192.466 23.536C193.234 22.96 193.842 22.2667 194.29 21.456C194.759 20.624 194.994 19.696 194.994 18.672C194.994 17.7547 194.77 16.88 194.322 16.048C193.874 15.216 193.213 14.5227 192.338 13.968C191.357 13.3493 190.098 12.88 188.562 12.56C187.026 12.2187 185.437 12.048 183.794 12.048C182.535 12.048 181.266 12.176 179.986 12.432C178.727 12.6667 177.554 13.0293 176.466 13.52C175.378 13.9893 174.461 14.5867 173.714 15.312C173.159 15.8667 172.658 16.5813 172.21 17.456C171.762 18.3307 171.538 19.2053 171.538 20.08C171.538 20.4853 171.602 20.88 171.73 21.264C171.922 21.8613 172.285 22.32 172.818 22.64C173.373 22.9387 173.991 23.088 174.674 23.088C175.207 23.088 175.762 22.992 176.338 22.8C176.359 22.8 176.37 22.8 176.37 22.8C176.391 22.7787 176.413 22.768 176.434 22.768C176.498 22.768 176.53 22.7893 176.53 22.832C176.53 22.9387 176.466 23.0133 176.338 23.056C175.762 23.2693 175.111 23.376 174.386 23.376C173.703 23.376 173.042 23.248 172.402 22.992C171.783 22.736 171.271 22.3413 170.866 21.808C170.482 21.2747 170.29 20.592 170.29 19.76C170.29 19.0773 170.386 18.4587 170.578 17.904C170.77 17.328 171.026 16.8053 171.346 16.336C171.901 15.504 172.637 14.7893 173.554 14.192C174.471 13.5947 175.506 13.104 176.658 12.72C177.81 12.336 179.005 12.0587 180.242 11.888C181.479 11.696 182.695 11.6 183.89 11.6C185.575 11.6 187.197 11.728 188.754 11.984C190.333 12.2187 191.634 12.56 192.658 13.008C194.087 13.6053 195.111 14.384 195.73 15.344C196.349 16.304 196.658 17.3067 196.658 18.352C196.658 19.5467 196.381 20.6027 195.826 21.52C195.271 22.4373 194.535 23.216 193.618 23.856C192.722 24.4747 191.73 24.9547 190.642 25.296C189.575 25.616 188.519 25.776 187.474 25.776C187.026 25.776 186.578 25.7547 186.13 25.712C185.703 25.648 185.287 25.5627 184.882 25.456C185.181 25.8613 185.554 26.3947 186.002 27.056C186.45 27.696 186.909 28.3787 187.378 29.104C187.869 29.808 188.317 30.4693 188.722 31.088C189.149 31.7067 189.49 32.176 189.746 32.496C190.215 33.1147 190.77 33.776 191.41 34.48C192.05 35.184 192.743 35.7813 193.49 36.272C194.258 36.7627 195.047 37.008 195.858 37.008C196.413 37.008 196.893 36.8693 197.298 36.592C197.703 36.3147 198.013 35.9947 198.226 35.632C198.461 35.2267 198.578 34.7147 198.578 34.096C198.578 33.6053 198.514 33.1147 198.386 32.624C198.258 32.112 198.109 31.664 197.938 31.28C197.661 30.6613 197.426 30.224 197.234 29.968C197.127 29.7973 197.074 29.6907 197.074 29.648C197.074 29.5627 197.117 29.52 197.202 29.52C197.33 29.52 197.511 29.616 197.746 29.808C198.215 30.2773 198.578 30.832 198.834 31.472C199.111 32.112 199.25 32.7733 199.25 33.456C199.25 34.3733 198.994 35.2373 198.482 36.048C198.119 36.624 197.607 37.0933 196.946 37.456C196.285 37.8187 195.527 38 194.674 38ZM170.61 36.912C170.397 36.912 170.055 36.88 169.586 36.816C169.138 36.7733 168.722 36.6453 168.338 36.432C167.954 36.2187 167.762 35.8773 167.762 35.408C167.762 35.1307 167.826 34.9173 167.954 34.768C168.039 34.6613 168.125 34.608 168.21 34.608C168.295 34.608 168.317 34.6613 168.274 34.768C168.21 35.088 168.327 35.3867 168.626 35.664C168.925 35.9627 169.223 36.1547 169.522 36.24C169.735 36.2827 169.938 36.3147 170.13 36.336C170.322 36.3787 170.503 36.4 170.674 36.4C171.527 36.4 172.306 36.176 173.01 35.728C173.714 35.3013 174.343 34.7467 174.898 34.064C175.474 33.4027 175.986 32.7307 176.434 32.048C177.074 31.0667 177.703 29.9467 178.322 28.688C178.941 27.4293 179.581 26.1387 180.242 24.816C180.903 23.472 181.597 22.1707 182.322 20.912C183.069 19.6533 183.879 18.5333 184.754 17.552C185.629 16.5493 186.589 15.7813 187.634 15.248C188.317 14.8853 188.967 14.704 189.586 14.704C189.927 14.704 190.237 14.7467 190.514 14.832C190.599 14.8533 190.621 14.9067 190.578 14.992C190.557 15.0773 190.503 15.1093 190.418 15.088C190.333 15.0453 190.237 15.024 190.13 15.024C190.045 15.024 189.949 15.024 189.842 15.024C188.733 15.024 187.57 15.7387 186.354 17.168C185.415 18.2773 184.605 19.4613 183.922 20.72C183.239 21.9573 182.61 23.2373 182.034 24.56C181.458 25.8613 180.861 27.152 180.242 28.432C179.645 29.712 178.93 30.9387 178.098 32.112C177.522 32.9227 176.871 33.68 176.146 34.384C175.421 35.1093 174.621 35.696 173.746 36.144C173.255 36.3787 172.743 36.56 172.21 36.688C171.698 36.8373 171.165 36.912 170.61 36.912ZM203.143 34.256C201.906 34.256 201.031 33.936 200.519 33.296C200.263 33.0187 200.082 32.688 199.975 32.304C199.868 31.92 199.815 31.5253 199.815 31.12C199.815 30.608 199.879 30.096 200.007 29.584C200.135 29.0507 200.295 28.56 200.487 28.112C200.786 27.408 201.18 26.704 201.671 26C202.162 25.2747 202.748 24.6667 203.431 24.176C204.135 23.6853 204.903 23.44 205.735 23.44C206.29 23.44 206.727 23.5787 207.047 23.856C207.367 24.1333 207.527 24.56 207.527 25.136C207.527 25.7973 207.324 26.4693 206.919 27.152C206.514 27.8133 206.002 28.368 205.383 28.816C204.764 29.264 204.124 29.488 203.463 29.488C202.866 29.488 202.343 29.2747 201.895 28.848C201.767 29.1893 201.66 29.5733 201.575 30C201.49 30.4053 201.447 30.8213 201.447 31.248C201.447 31.9093 201.575 32.4853 201.831 32.976C202.108 33.4667 202.599 33.712 203.303 33.712C203.815 33.712 204.306 33.584 204.775 33.328C205.266 33.0507 205.703 32.72 206.087 32.336C206.514 31.888 206.919 31.408 207.303 30.896C207.687 30.384 208.06 29.7867 208.423 29.104C208.466 29.04 208.498 29.008 208.519 29.008C208.604 29.008 208.647 29.104 208.647 29.296C208.647 29.424 208.604 29.5627 208.519 29.712C208.199 30.288 207.826 30.8747 207.399 31.472C206.972 32.048 206.535 32.5493 206.087 32.976C205.682 33.36 205.244 33.6693 204.775 33.904C204.306 34.1387 203.762 34.256 203.143 34.256ZM202.055 28.368C202.204 28.5813 202.375 28.7413 202.567 28.848C202.78 28.9333 202.994 28.976 203.207 28.976C203.719 28.976 204.252 28.784 204.807 28.4C205.362 27.9947 205.81 27.5253 206.151 26.992C206.3 26.7573 206.428 26.448 206.535 26.064C206.663 25.68 206.727 25.3173 206.727 24.976C206.727 24.6773 206.663 24.4213 206.535 24.208C206.428 23.9733 206.204 23.856 205.863 23.856C205.479 23.856 205.02 24.0907 204.487 24.56C203.975 25.0293 203.484 25.6373 203.015 26.384C202.866 26.64 202.695 26.9387 202.503 27.28C202.332 27.6213 202.183 27.984 202.055 28.368ZM205.543 21.84H205.479C205.33 21.84 205.255 21.7653 205.255 21.616C205.255 21.5307 205.298 21.4667 205.383 21.424C205.788 21.1467 206.258 20.784 206.791 20.336C207.346 19.8667 207.847 19.4613 208.295 19.12C208.402 19.056 208.476 19.024 208.519 19.024C208.668 19.024 208.807 19.0987 208.935 19.248C209.063 19.376 209.127 19.5147 209.127 19.664C209.127 19.7707 209.074 19.856 208.967 19.92L205.543 21.84ZM207.39 42.736C207.049 42.8213 206.707 42.864 206.366 42.864C205.726 42.864 205.246 42.704 204.926 42.384C204.606 42.0853 204.446 41.712 204.446 41.264C204.446 40.88 204.574 40.464 204.83 40.016C205.086 39.5893 205.47 39.2053 205.982 38.864C206.643 38.416 207.241 38.0533 207.774 37.776C208.329 37.52 208.926 37.2533 209.566 36.976C210.206 36.72 211.006 36.368 211.966 35.92C212.307 35.2373 212.638 34.4587 212.958 33.584C213.278 32.7093 213.587 31.8453 213.886 30.992C214.206 30.1387 214.505 29.4027 214.782 28.784C214.697 28.8693 214.526 29.0933 214.27 29.456C214.014 29.8187 213.822 30.096 213.694 30.288C213.374 30.7147 212.979 31.2373 212.51 31.856C212.041 32.4533 211.539 32.9653 211.006 33.392C210.323 33.9467 209.705 34.224 209.15 34.224C208.617 34.224 208.201 34 207.902 33.552C207.625 33.104 207.486 32.5387 207.486 31.856C207.486 31.3867 207.55 30.9173 207.678 30.448C208.339 27.9947 209.662 26.0427 211.646 24.592C212.051 24.2933 212.553 24.0587 213.15 23.888C213.747 23.696 214.345 23.6 214.942 23.6C215.774 23.6 216.499 23.7813 217.118 24.144L217.214 24.048C217.705 23.3227 218.195 22.7147 218.686 22.224C219.177 21.7333 219.763 21.4133 220.446 21.264C219.721 22.0533 219.027 23.056 218.366 24.272C217.705 25.4667 217.097 26.736 216.542 28.08C216.009 29.424 215.518 30.704 215.07 31.92C214.622 33.1147 214.238 34.1173 213.918 34.928C215.091 34.3307 216.147 33.5307 217.086 32.528C218.046 31.504 218.857 30.3947 219.518 29.2C219.667 28.9013 219.827 28.752 219.998 28.752C220.041 28.752 220.062 28.784 220.062 28.848C220.062 28.9333 220.019 29.0507 219.934 29.2C219.55 29.8827 219.134 30.5547 218.686 31.216C218.259 31.856 217.769 32.4533 217.214 33.008C216.745 33.52 216.211 33.9893 215.614 34.416C215.038 34.8427 214.398 35.216 213.694 35.536C213.182 36.7307 212.638 37.8293 212.062 38.832C211.486 39.8347 210.825 40.6773 210.078 41.36C209.331 42.0427 208.435 42.5013 207.39 42.736ZM209.822 33.232C210.249 33.232 210.697 33.0187 211.166 32.592C211.635 32.144 212.105 31.6107 212.574 30.992C213.043 30.352 213.459 29.744 213.822 29.168C214.206 28.5707 214.494 28.112 214.686 27.792C215.006 27.3013 215.347 26.7787 215.71 26.224C216.073 25.6693 216.489 25.0613 216.958 24.4C216.553 24.1867 216.115 24.08 215.646 24.08C215.027 24.08 214.409 24.2507 213.79 24.592C213.193 24.9333 212.649 25.3813 212.158 25.936C211.433 26.7253 210.825 27.5787 210.334 28.496C209.843 29.392 209.502 30.1813 209.31 30.864C209.203 31.248 209.15 31.6427 209.15 32.048C209.15 32.368 209.193 32.6453 209.278 32.88C209.385 33.1147 209.566 33.232 209.822 33.232ZM207.198 42.064C207.945 41.8293 208.595 41.4133 209.15 40.816C209.705 40.24 210.185 39.568 210.59 38.8C211.017 38.0533 211.379 37.296 211.678 36.528C211.017 36.8693 210.163 37.232 209.118 37.616C208.094 38.0213 207.123 38.576 206.206 39.28C205.801 39.6 205.502 39.9307 205.31 40.272C205.097 40.6133 204.99 40.9333 204.99 41.232C204.99 41.5093 205.086 41.744 205.278 41.936C205.47 42.128 205.769 42.224 206.174 42.224C206.323 42.224 206.483 42.2133 206.654 42.192C206.825 42.1707 207.006 42.128 207.198 42.064ZM220.467 34.192C219.87 34.192 219.432 34 219.155 33.616C218.878 33.2107 218.739 32.72 218.739 32.144C218.739 31.9733 218.75 31.8027 218.771 31.632C218.814 31.44 218.856 31.248 218.899 31.056C219.134 30.2027 219.496 29.2533 219.987 28.208C220.499 27.1413 220.99 26.192 221.459 25.36C221.736 24.8907 221.992 24.56 222.227 24.368C222.462 24.1547 222.718 24.0053 222.995 23.92C223.272 23.8133 223.603 23.696 223.987 23.568C224.094 23.5253 224.2 23.4933 224.307 23.472C224.414 23.4507 224.531 23.4293 224.659 23.408C224.232 23.8347 223.795 24.3467 223.347 24.944C222.92 25.5413 222.451 26.3627 221.939 27.408C221.662 27.9627 221.384 28.5813 221.107 29.264C220.851 29.9467 220.627 30.5867 220.435 31.184C220.243 31.7813 220.136 32.2507 220.115 32.592C220.094 32.9973 220.147 33.2853 220.275 33.456C220.403 33.6267 220.574 33.712 220.787 33.712C221.15 33.712 221.491 33.584 221.811 33.328C222.152 33.072 222.451 32.8053 222.707 32.528C223.176 31.9947 223.614 31.408 224.019 30.768C224.446 30.128 224.862 29.4453 225.267 28.72C225.331 28.6347 225.384 28.592 225.427 28.592C225.512 28.592 225.555 28.656 225.555 28.784C225.555 28.8907 225.534 28.976 225.491 29.04C225.107 29.744 224.702 30.448 224.275 31.152C223.848 31.856 223.326 32.5173 222.707 33.136C222.43 33.4133 222.099 33.6587 221.715 33.872C221.352 34.0853 220.936 34.192 220.467 34.192ZM224.371 21.616C224.136 21.616 223.934 21.5307 223.763 21.36C223.614 21.1893 223.539 20.9867 223.539 20.752C223.539 20.4533 223.656 20.1867 223.891 19.952C224.147 19.7173 224.424 19.5787 224.723 19.536C224.958 19.536 225.15 19.6213 225.299 19.792C225.47 19.9413 225.555 20.144 225.555 20.4C225.555 20.6773 225.438 20.9547 225.203 21.232C224.968 21.488 224.691 21.616 224.371 21.616ZM230.959 34.192C230.34 34.192 229.85 34 229.487 33.616C229.146 33.232 228.975 32.752 228.975 32.176C228.975 31.8987 229.028 31.5787 229.135 31.216C229.434 30.2773 229.903 29.3493 230.543 28.432C231.204 27.4933 231.748 26.5653 232.175 25.648C232.324 25.3493 232.399 25.0827 232.399 24.848C232.399 24.6133 232.324 24.4427 232.175 24.336C232.047 24.208 231.887 24.144 231.695 24.144C231.418 24.144 231.066 24.2613 230.639 24.496C230.234 24.7093 229.764 25.1253 229.231 25.744C228.911 26.128 228.548 26.5973 228.143 27.152C227.738 27.7067 227.407 28.208 227.151 28.656C226.724 29.3813 226.34 30.1173 225.999 30.864C225.658 31.5893 225.359 32.2613 225.103 32.88C224.89 33.3707 224.634 33.6907 224.335 33.84C224.036 33.968 223.748 34.0213 223.471 34C223.194 33.9787 222.98 33.9787 222.831 34C223.428 32.8267 224.015 31.5893 224.591 30.288C225.167 28.9867 225.658 27.6853 226.063 26.384C226.255 25.7867 226.415 25.2107 226.543 24.656C226.671 24.08 226.724 23.7067 226.703 23.536V23.472C226.703 23.3013 226.788 23.2587 226.959 23.344C227.236 23.4933 227.428 23.7173 227.535 24.016C227.642 24.2933 227.695 24.6133 227.695 24.976C227.695 25.3813 227.642 25.8187 227.535 26.288C227.428 26.736 227.3 27.1413 227.151 27.504C227.428 27.12 227.727 26.736 228.047 26.352C228.367 25.9467 228.719 25.5627 229.103 25.2C229.551 24.752 230.031 24.368 230.543 24.048C231.055 23.7067 231.61 23.536 232.207 23.536C232.783 23.536 233.199 23.664 233.455 23.92C233.732 24.176 233.871 24.5173 233.871 24.944C233.871 25.392 233.743 25.904 233.487 26.48C233.21 27.1413 232.868 27.8027 232.463 28.464C232.079 29.1253 231.727 29.7653 231.407 30.384C231.343 30.512 231.236 30.7147 231.087 30.992C230.959 31.248 230.842 31.536 230.735 31.856C230.692 32.0053 230.65 32.1653 230.607 32.336C230.564 32.4853 230.543 32.6453 230.543 32.816C230.543 33.0293 230.586 33.232 230.671 33.424C230.778 33.5947 230.97 33.68 231.247 33.68C231.61 33.68 231.951 33.5627 232.271 33.328C232.612 33.072 232.9 32.8053 233.135 32.528C233.626 31.9947 234.074 31.408 234.479 30.768C234.906 30.1067 235.322 29.4133 235.727 28.688C235.791 28.6027 235.834 28.56 235.855 28.56C235.94 28.56 235.983 28.656 235.983 28.848C235.983 28.976 235.962 29.072 235.919 29.136C235.535 29.84 235.13 30.5333 234.703 31.216C234.276 31.8773 233.754 32.5173 233.135 33.136C232.858 33.4133 232.538 33.6587 232.175 33.872C231.812 34.0853 231.407 34.192 230.959 34.192ZM238.581 34.256C237.343 34.256 236.469 33.936 235.957 33.296C235.701 33.0187 235.519 32.688 235.413 32.304C235.306 31.92 235.253 31.5253 235.253 31.12C235.253 30.608 235.317 30.096 235.445 29.584C235.573 29.0507 235.733 28.56 235.925 28.112C236.223 27.408 236.618 26.704 237.109 26C237.599 25.2747 238.186 24.6667 238.869 24.176C239.573 23.6853 240.341 23.44 241.173 23.44C241.727 23.44 242.165 23.5787 242.485 23.856C242.805 24.1333 242.965 24.56 242.965 25.136C242.965 25.7973 242.762 26.4693 242.357 27.152C241.951 27.8133 241.439 28.368 240.821 28.816C240.202 29.264 239.562 29.488 238.901 29.488C238.303 29.488 237.781 29.2747 237.333 28.848C237.205 29.1893 237.098 29.5733 237.013 30C236.927 30.4053 236.885 30.8213 236.885 31.248C236.885 31.9093 237.013 32.4853 237.269 32.976C237.546 33.4667 238.037 33.712 238.741 33.712C239.253 33.712 239.743 33.584 240.213 33.328C240.703 33.0507 241.141 32.72 241.525 32.336C241.951 31.888 242.357 31.408 242.741 30.896C243.125 30.384 243.498 29.7867 243.861 29.104C243.903 29.04 243.935 29.008 243.957 29.008C244.042 29.008 244.085 29.104 244.085 29.296C244.085 29.424 244.042 29.5627 243.957 29.712C243.637 30.288 243.263 30.8747 242.837 31.472C242.41 32.048 241.973 32.5493 241.525 32.976C241.119 33.36 240.682 33.6693 240.213 33.904C239.743 34.1387 239.199 34.256 238.581 34.256ZM237.493 28.368C237.642 28.5813 237.813 28.7413 238.005 28.848C238.218 28.9333 238.431 28.976 238.645 28.976C239.157 28.976 239.69 28.784 240.245 28.4C240.799 27.9947 241.247 27.5253 241.589 26.992C241.738 26.7573 241.866 26.448 241.973 26.064C242.101 25.68 242.165 25.3173 242.165 24.976C242.165 24.6773 242.101 24.4213 241.973 24.208C241.866 23.9733 241.642 23.856 241.301 23.856C240.917 23.856 240.458 24.0907 239.925 24.56C239.413 25.0293 238.922 25.6373 238.453 26.384C238.303 26.64 238.133 26.9387 237.941 27.28C237.77 27.6213 237.621 27.984 237.493 28.368Z" fill="white"/>
</svg>
