<svg width="1366" height="1366" viewBox="0 0 1366 1366" fill="none" xmlns="http://www.w3.org/2000/svg">
<path d="M587.628 122.041C575.179 123.172 572.431 123.819 559.335 128.831C540.419 136.106 523.767 149.687 502.749 174.585C493.372 185.74 490.462 188.004 482.378 191.075C468.798 196.249 450.367 207.405 437.271 218.56C409.948 241.679 391.841 274.014 383.757 314.918C382.302 322.193 380.685 340.462 379.877 355.66C378.907 377.486 377.775 386.378 374.38 398.503C364.518 434.88 368.075 480.311 383.757 514.262C390.871 529.46 398.954 541.1 417.87 563.573C426.439 573.758 436.786 587.177 440.828 593.644C450.852 609.488 454.247 607.71 454.247 586.207C454.247 580.549 453.439 573.112 452.469 569.716C451.337 566.483 443.091 554.034 434.038 542.232C405.098 504.723 395.398 479.017 395.398 439.73C395.236 420.976 395.883 416.773 400.409 400.929C404.936 385.085 405.583 380.234 406.23 356.468C406.715 334.48 407.685 326.72 411.403 312.008C422.397 267.547 444.385 238.931 481.408 220.662C505.659 208.86 532.659 202.231 583.586 195.441C611.394 191.884 613.658 189.782 597.814 182.668C584.556 176.686 561.599 175.231 542.521 179.273C535.407 180.728 529.426 181.537 529.102 181.213C527.809 180.082 548.988 162.782 557.719 157.932C562.569 155.184 572.431 151.304 579.545 149.363C604.119 142.735 630.472 147.1 661.998 162.944L678.166 171.028L687.058 168.441C691.908 166.986 705.004 163.267 716.159 160.034C733.782 154.86 738.794 154.052 754.961 153.729C785.518 153.405 798.775 159.711 831.271 189.62C844.205 201.423 851.804 207.081 861.181 211.608C882.845 222.117 896.588 231.656 907.42 243.458C931.348 269.649 944.282 304.732 948.162 354.043L949.132 366.977L942.503 354.851C904.509 273.004 826.906 244.509 762.64 231.171C747.483 229.958 752.334 231.171 752.334 231.171C752.334 231.171 836.607 247.5 873.792 277.409C900.791 299.074 927.791 331.247 940.886 357.923C944.928 365.845 948.809 372.474 949.617 372.474C951.88 372.636 949.132 334.642 945.575 316.858C938.946 283.715 923.426 254.452 902.085 234.727C893.678 226.967 885.271 221.309 869.911 213.386C851.966 204.171 846.469 200.453 830.786 185.902C801.038 158.579 785.518 151.304 757.386 151.142C739.602 151.142 725.375 154.052 696.273 163.267L678.974 168.926L661.028 159.872C621.903 140.31 591.67 138.693 559.82 154.375C550.443 159.064 543.168 164.238 534.922 172.16C528.455 178.465 523.605 183.8 524.09 184.285C524.575 184.77 529.587 184.123 535.246 182.83C560.305 177.171 581.161 177.98 598.299 185.255C607.838 189.459 606.867 190.429 590.862 192.207C552.06 196.734 510.186 205.626 491.27 213.386C466.373 223.41 442.93 242.164 429.349 262.535C420.78 275.308 411.888 296.487 408.493 312.008C405.26 326.235 402.511 354.851 402.673 371.989C402.835 382.336 401.865 387.995 398.308 398.665C393.943 411.437 393.781 413.863 393.781 439.73C393.781 462.85 394.428 469.317 397.338 480.149C402.835 500.197 413.505 519.759 431.613 542.879C450.528 567.13 453.762 574.89 451.822 591.866C451.175 597.524 450.205 602.213 449.72 602.213C449.073 602.213 445.84 597.686 442.606 592.028C439.373 586.531 429.349 573.273 420.295 562.603C402.188 541.1 395.721 531.885 388.284 517.172C376.805 494.538 371.793 471.095 371.793 441.185C371.793 420.329 373.248 409.174 378.583 391.228C381.009 382.821 381.979 374.252 382.302 358.085C383.11 323.002 390.062 290.505 402.188 266.739C417.709 235.698 447.78 208.051 480.438 194.471C490.947 190.105 494.666 187.519 500.162 181.213C522.15 154.699 537.509 141.441 555.132 133.196C575.179 123.819 602.502 121.232 626.915 126.244C643.244 129.639 651.166 132.226 668.142 140.31C683.986 147.747 679.944 147.747 708.399 139.34C741.542 129.478 762.883 127.699 784.386 133.196C806.859 139.016 821.409 148.07 844.044 170.058C857.624 183.153 861.666 186.064 875.57 192.53C904.833 206.273 923.426 221.47 939.27 244.913C959.641 274.823 971.443 321.547 969.664 365.199C969.179 379.103 968.209 384.923 965.299 391.228C965.257 391.326 965.216 391.422 965.175 391.517C961.901 399.156 961.778 399.441 964.653 409.821C969.018 425.503 968.533 462.365 964.006 480.957C957.377 507.472 946.222 528.813 926.497 553.387C919.384 561.956 918.252 564.381 918.252 570.363C918.252 578.609 913.564 597.039 909.36 606.255C904.348 616.764 892.546 627.434 882.522 630.344C872.983 633.254 861.989 633.739 858.433 631.314C855.684 629.536 855.846 629.374 868.133 622.099C882.199 613.854 888.342 606.093 894.001 589.441C895.779 584.105 897.234 579.417 897.234 578.932C897.234 578.609 895.456 577.8 893.354 577.315C884.624 575.213 886.726 569.393 904.186 546.92C921.324 524.771 924.881 519.436 932.156 504.238C951.88 462.526 952.042 426.958 932.318 385.246C911.947 342.079 885.432 309.906 846.145 280.158C816.236 257.685 794.248 245.883 767.087 237.638C759.165 235.051 752.334 231.171 752.334 231.171C752.334 231.171 763.934 231.171 762.64 231.171C744.452 229.352 749.706 232.343 757.79 236.627C794.49 245.519 841.618 274.823 877.025 310.391C902.246 335.774 918.414 359.378 932.156 390.258C941.372 411.437 944.12 423.725 944.12 443.611C944.12 475.137 932.318 506.825 910.168 535.118C884.139 568.261 881.875 573.112 889.959 579.094C893.516 581.68 893.839 582.65 892.384 587.662C888.989 599.788 880.744 610.782 869.75 617.895C851.481 629.698 852.451 628.566 856.816 632.931C860.049 636.165 861.504 636.488 870.073 635.518C875.247 635.033 883.169 633.093 887.696 631.153C905.48 623.392 918.899 599.465 920.192 573.112C920.516 566.806 922.294 563.573 933.126 548.86C954.144 520.729 964.329 497.61 969.341 467.053C972.251 448.784 971.766 430.03 967.563 411.922C964.976 400.282 964.976 399.959 968.533 390.096C971.766 381.204 972.09 376.839 972.09 354.851C972.09 319.606 966.269 292.93 952.204 263.505C935.713 228.746 915.019 208.86 877.187 190.752C863.445 184.285 858.918 180.89 845.66 168.279C819.954 143.382 799.098 131.903 773.23 128.346C753.183 125.597 732.812 128.669 694.657 140.633L682.046 144.675L669.597 138.37C662.645 134.813 652.298 130.448 646.639 128.508C636.939 125.436 607.191 120.262 601.371 120.747C600.077 120.747 593.934 121.394 587.628 122.041Z" fill="#73230D"/>
<path d="M752.334 231.171C752.334 231.171 836.607 247.5 873.792 277.409C900.791 299.074 927.791 331.247 940.886 357.923C944.928 365.845 948.809 372.474 949.617 372.474C951.88 372.636 949.132 334.642 945.575 316.858C938.946 283.715 923.426 254.452 902.085 234.727C893.678 226.967 885.271 221.309 869.911 213.386C851.966 204.171 846.469 200.453 830.786 185.902C801.038 158.579 785.518 151.304 757.386 151.142C739.602 151.142 725.375 154.052 696.273 163.267L678.974 168.926L661.028 159.872C621.903 140.31 591.67 138.693 559.82 154.375C550.443 159.064 543.168 164.238 534.922 172.16C528.455 178.465 523.605 183.8 524.09 184.285C524.575 184.77 529.587 184.123 535.246 182.83C560.305 177.171 581.161 177.98 598.299 185.255C607.838 189.459 606.867 190.429 590.862 192.207C552.06 196.734 510.186 205.626 491.27 213.386C466.373 223.41 442.93 242.164 429.349 262.535C420.78 275.308 411.888 296.487 408.493 312.008C405.26 326.235 402.511 354.851 402.673 371.989C402.835 382.336 401.865 387.995 398.308 398.665C393.943 411.437 393.781 413.863 393.781 439.73C393.781 462.85 394.428 469.317 397.338 480.149C402.835 500.197 413.505 519.759 431.613 542.879C450.528 567.13 453.762 574.89 451.822 591.866C451.175 597.524 450.205 602.213 449.72 602.213C449.073 602.213 445.84 597.686 442.606 592.028C439.373 586.531 429.349 573.273 420.295 562.603C402.188 541.1 395.721 531.885 388.284 517.172C376.805 494.538 371.793 471.095 371.793 441.185C371.793 420.329 373.248 409.174 378.583 391.228C381.009 382.821 381.979 374.252 382.302 358.085C383.11 323.002 390.062 290.505 402.188 266.739C417.709 235.698 447.78 208.051 480.438 194.471C490.947 190.105 494.666 187.519 500.162 181.213C522.15 154.699 537.509 141.441 555.132 133.196C575.179 123.819 602.502 121.232 626.915 126.244C643.244 129.639 651.166 132.226 668.142 140.31C683.986 147.747 679.944 147.747 708.399 139.34C741.542 129.478 762.883 127.699 784.386 133.196C806.859 139.016 821.409 148.07 844.044 170.058C857.624 183.153 861.666 186.064 875.57 192.53C904.833 206.273 923.426 221.47 939.27 244.913C959.641 274.823 971.443 321.547 969.664 365.199C969.179 379.103 968.209 384.923 965.299 391.228L965.175 391.517C961.901 399.156 961.778 399.441 964.653 409.821C969.018 425.503 968.533 462.365 964.006 480.957C957.377 507.472 946.222 528.813 926.497 553.387C919.384 561.956 918.252 564.381 918.252 570.363C918.252 578.609 913.564 597.039 909.36 606.255C904.348 616.764 892.546 627.434 882.522 630.344C872.983 633.254 861.989 633.739 858.433 631.314C855.684 629.536 855.846 629.374 868.133 622.099C882.199 613.854 888.342 606.093 894.001 589.441C895.779 584.105 897.234 579.417 897.234 578.932C897.234 578.609 895.456 577.8 893.354 577.315C884.624 575.213 886.726 569.393 904.186 546.92C921.324 524.771 924.881 519.436 932.156 504.238C951.88 462.526 952.042 426.958 932.318 385.246C911.947 342.079 885.432 309.906 846.145 280.158C816.236 257.685 794.248 245.883 767.087 237.638C759.165 235.051 752.334 231.171 752.334 231.171Z" fill="#73230D"/>
<path d="M731.518 199.159C703.548 205.303 683.662 213.871 655.693 231.979C647.609 237.153 632.573 244.751 622.388 248.955C564.347 272.398 520.856 305.056 484.318 352.265C466.696 375.222 454.893 396.563 445.678 422.108C434.361 453.958 431.936 495.508 440.666 511.675C443.576 517.011 443.414 515.556 440.343 503.268C436.947 490.011 438.079 458.161 442.768 440.539C457.965 381.851 501.294 323.972 558.688 285.331C581.808 269.972 593.286 263.667 620.771 252.188C634.028 246.691 649.711 238.769 655.854 234.727C671.698 224.38 696.111 211.608 709.045 207.081C724.404 201.746 744.614 198.997 762.074 200.129C770.481 200.614 775.008 200.453 772.745 199.644C768.541 198.351 737.177 197.866 731.518 199.159Z" fill="#73230D"/>
<path d="M745.261 214.195C721.818 221.956 709.369 227.129 696.759 234.404L679.783 243.943L699.992 245.883C743.968 250.087 779.859 262.697 813.326 285.493C866.678 322.032 901.277 377.163 906.935 434.395L908.39 449.431L907.744 430.839C907.259 414.348 906.612 410.306 901.277 395.27C879.612 333.349 832.08 284.685 768.057 258.817C752.213 252.35 719.231 244.752 702.741 243.458L687.867 242.488L695.627 237.961C713.088 227.614 733.944 219.369 764.662 210.315C773.716 207.728 778.889 205.141 777.596 204.171C777.111 203.848 762.56 208.213 745.261 214.195Z" fill="#73230D"/>
<path d="M600.077 215.165C546.078 225.027 474.941 272.236 437.11 323.325C424.984 339.816 410.272 378.941 415.931 375.384C416.14 375.259 416.354 374.719 416.567 373.944C417.182 371.72 417.795 367.564 418.274 365.765C419.891 359.298 432.421 333.025 440.667 322.193C449.882 310.229 473.971 286.302 489.169 274.014C524.252 245.56 565.479 224.219 598.137 217.59C610.101 215.165 631.28 214.518 631.442 216.62C631.442 217.428 626.754 220.338 620.933 222.764C542.036 256.877 512.773 275.469 463.624 322.84C445.887 340.001 420.946 367.323 416.567 373.944C416.037 374.746 415.809 375.244 415.931 375.384C416.739 376.031 420.781 371.827 443.092 347.576C473.81 314.11 512.45 281.451 543.491 263.02C558.365 253.967 586.335 240.386 615.113 227.937C635.322 219.207 639.041 216.62 635.322 214.195C631.927 212.093 614.143 212.578 600.077 215.165Z" fill="#73230D"/>
<path d="M416.567 373.944C417.182 371.72 417.795 367.564 418.274 365.765C419.891 359.298 432.421 333.025 440.667 322.193C449.882 310.229 473.971 286.302 489.169 274.014C524.252 245.56 565.479 224.219 598.137 217.59C610.101 215.165 631.28 214.518 631.442 216.62C631.442 217.428 626.754 220.338 620.933 222.764C542.036 256.877 512.773 275.469 463.624 322.84C445.887 340.001 420.946 367.323 416.567 373.944Z" fill="#73230D"/>
<path d="M661.19 273.368C606.706 283.715 578.413 296.487 539.934 328.66C497.737 363.905 468.636 408.204 454.247 459.455C448.75 479.179 444.062 503.43 444.87 508.604C445.193 510.705 447.457 501.975 449.882 489.041C456.995 452.018 468.151 422.916 486.744 392.522C499.354 371.989 523.605 343.858 537.024 334.319L544.3 329.145L541.551 339.331C539.449 347.576 536.863 351.78 527.97 362.288C505.983 387.833 487.229 420.653 477.528 450.239C473.486 462.688 473.001 466.245 473.001 487.748C472.84 507.795 473.325 511.999 475.588 514.262C478.013 516.687 478.336 516.687 479.792 513.939C480.6 512.16 483.348 503.915 485.774 495.508C494.342 465.113 514.552 425.503 532.659 403.515C542.683 391.39 545.755 389.288 543.168 396.24C542.198 398.503 541.551 408.527 541.551 418.551C541.551 434.88 541.066 438.275 536.054 453.149C532.982 462.365 529.911 473.197 529.264 477.4C527.97 486.131 526.515 489.526 520.857 496.316C514.713 503.592 505.983 522.993 505.983 529.298V534.795L517.462 533.663C526.192 532.855 529.264 533.178 531.204 534.957C533.144 537.058 533.144 537.382 530.234 538.352C525.222 539.968 513.258 554.357 511.156 561.471C504.689 583.135 517.462 618.219 536.216 629.859C540.743 632.608 541.228 633.578 539.611 636.165C535.893 641.985 544.785 675.613 555.455 696.307C562.569 710.211 564.832 715.87 562.407 714.577C560.79 713.445 551.898 718.942 542.359 726.702C531.204 735.918 517.462 750.953 510.025 762.27C494.342 786.198 472.031 837.934 472.031 850.383C472.031 857.497 481.085 865.419 495.151 870.269L505.336 873.987L500.163 892.257C497.252 902.119 494.342 915.538 493.857 921.843C492.725 931.867 493.049 934.453 496.121 940.759C500.809 950.459 508.893 957.25 519.24 960.321C531.527 963.878 542.845 963.393 551.898 958.866C560.629 954.501 559.82 953.531 563.377 971.639C566.772 988.614 572.108 1000.09 578.898 1005.11C591.508 1014.48 608.646 1017.39 624.652 1012.87L632.089 1010.76L639.526 1017.72C654.4 1031.46 675.094 1037.44 697.082 1034.21C712.602 1031.94 724.405 1026.93 732.973 1018.69L739.44 1012.7L750.758 1014.64C759.488 1016.1 764.338 1016.1 771.129 1014.64C791.661 1010.28 800.068 999.123 805.08 969.052C807.667 953.854 807.829 953.693 818.014 959.028C829.331 964.848 845.984 965.333 856.007 959.998C863.93 955.794 872.175 947.387 874.438 941.244C878.157 931.543 875.732 910.687 868.295 886.76C866.355 880.939 864.9 875.442 864.9 874.472C864.9 873.664 867.971 871.401 871.852 869.46C881.875 864.449 892.223 856.527 894.163 852.161C898.204 843.269 879.774 796.384 861.666 769.384C850.349 752.57 828.685 730.906 818.984 726.54C813.649 724.277 811.547 722.499 812.194 720.882C813.326 717.972 808.314 707.625 805.403 706.978C803.948 706.655 805.565 703.421 809.93 697.601C824.966 677.553 838.385 650.069 850.187 615.47C865.223 571.172 863.283 554.034 841.942 541.909C832.241 536.573 833.211 535.603 848.732 535.28L857.624 535.118L857.463 529.136C857.301 522.669 851.804 510.544 843.72 498.256C840.002 492.598 837.738 485.808 834.99 473.035C832.888 463.335 830.463 453.958 829.493 452.179C828.685 450.563 826.583 439.73 825.128 428.252C822.541 408.042 821.409 403.515 815.751 389.611L813.164 383.144L820.924 391.551C830.463 401.899 844.205 425.665 854.067 448.946C861.019 464.952 864.738 476.107 872.983 504.885C874.923 511.514 876.702 516.526 877.187 516.041C878.319 514.909 873.145 494.7 866.516 474.329C839.517 392.037 794.41 346.768 724.243 331.409C705.165 327.205 671.376 326.397 652.621 329.63C611.718 336.582 579.868 352.75 549.958 381.366C520.21 409.982 496.121 451.533 482.54 497.933L477.205 515.556L475.265 506.017C472.355 492.113 475.265 465.113 481.57 446.521C491.109 418.389 509.216 387.671 530.396 362.935C550.443 339.816 581.97 318.798 613.981 307.319C664.424 289.212 726.83 292.93 774.039 316.696C821.409 340.462 854.391 378.618 871.205 428.898C878.642 451.048 881.229 468.67 880.905 492.76C880.582 514.909 881.714 520.729 883.654 505.855C885.109 494.053 883.33 465.437 880.097 451.856C871.367 413.216 855.684 383.306 827.876 351.618C825.128 348.546 820.924 340.624 818.661 334.319C816.236 327.852 813.811 322.517 813.325 322.517C812.679 322.517 811.385 320.253 810.415 317.666C808.314 312.008 808.475 312.008 821.248 321.87C854.067 347.091 881.875 388.641 901.115 441.024C905.803 453.473 905.965 448.622 901.438 435.042C889.636 399.797 867.648 364.39 840.972 337.229C800.877 296.487 749.788 274.984 688.675 273.206C675.741 272.883 663.454 272.883 661.19 273.368ZM712.926 349.193C754.638 355.498 793.925 378.618 809.284 405.779C812.84 412.084 813.164 413.378 810.577 411.276C808.96 409.821 805.888 408.204 803.787 407.719C800.877 407.072 800.23 407.396 800.877 409.336C801.685 411.276 801.038 411.599 798.29 410.791C796.188 410.144 791.661 409.174 788.104 408.689C781.961 407.719 781.799 407.881 784.062 410.629C785.841 412.892 786.003 413.377 784.224 412.407C782.769 411.437 782.284 411.599 782.769 413.216C783.092 414.348 787.296 416.934 791.984 418.713C802.008 422.593 815.589 434.072 822.541 444.581C827.391 451.856 834.181 475.46 834.181 484.676C834.181 486.778 837.415 493.245 841.295 499.065C848.409 509.412 854.067 521.376 856.007 530.106C856.978 534.471 856.816 534.633 852.451 533.501C850.026 533.016 838.062 528.49 826.098 523.801C814.134 519.112 798.451 513.454 791.176 511.19C775.979 506.34 746.069 500.358 737.5 500.358C732.65 500.358 731.195 499.55 729.578 496.155C726.83 490.011 729.417 486.293 739.279 481.766C754.799 474.652 782.769 474.975 807.182 482.574C812.517 484.352 817.367 485.323 817.691 484.999C818.014 484.676 816.236 480.796 813.649 476.592C807.667 466.892 798.936 460.748 786.488 457.515C775.332 454.604 752.213 454.281 740.41 456.868C730.387 458.97 719.878 466.73 715.028 475.46C708.076 487.909 706.782 517.011 712.441 528.49C715.513 534.31 731.518 541.747 755.608 548.699C771.937 553.226 773.392 553.387 775.17 550.962C778.727 546.112 774.847 542.879 763.206 540.777C757.386 539.807 748.171 538.19 742.836 537.382C728.285 534.795 723.435 528.651 730.71 522.184C733.782 519.274 735.237 519.274 750.596 521.214C786.488 525.579 826.744 536.088 840.972 544.657C853.582 552.256 856.816 557.914 856.816 573.112C856.816 593.159 843.559 633.254 825.289 668.014C804.272 708.433 759.973 756.935 729.093 773.426C711.794 782.641 699.507 785.713 678.974 785.552C645.023 785.552 621.257 774.073 592.317 744.163C567.096 718.133 551.898 690.972 544.785 659.607C543.168 652.494 541.389 645.218 540.581 643.44C539.449 640.368 539.449 640.368 542.683 643.117C546.563 646.512 561.114 652.332 565.802 652.332C570.006 652.332 570.329 653.14 572.108 670.44C573.886 686.122 578.575 697.116 586.658 704.714C592.64 710.373 592.64 710.05 588.275 698.894C586.173 693.559 584.556 684.99 583.91 676.26C582.94 659.284 584.556 657.667 594.742 664.943C614.79 679.493 658.118 689.517 691.1 687.254C717.453 685.475 749.464 674.481 771.129 659.931C775.979 656.697 780.344 654.595 780.991 655.242C783.901 658.476 777.596 691.134 771.614 702.774C768.542 709.08 771.452 708.433 777.596 701.319C784.224 693.882 789.559 682.242 793.116 667.691C795.218 659.122 797.32 654.757 801.847 649.745C812.517 638.105 817.044 628.566 815.266 621.776C814.457 618.865 814.134 618.865 808.96 620.967C801.2 624.201 795.541 623.716 786.003 619.027C777.272 614.662 769.997 607.225 756.901 589.279C748.171 577.315 742.836 574.082 732.003 573.92C726.021 573.92 723.435 574.728 720.686 577.638L716.968 581.357L720.848 584.59C723.596 586.854 726.83 587.662 731.842 587.339C737.5 587.177 739.764 587.824 742.997 591.057C748.494 596.554 746.877 599.788 735.399 605.446C702.094 622.422 673.477 623.716 636.777 610.297C618.023 603.506 617.053 602.698 619.155 596.393C621.257 590.572 626.592 587.501 636.777 586.207C650.035 584.429 649.388 575.375 635.969 573.758C631.442 573.112 627.723 573.92 622.388 576.668C615.113 580.387 613.82 582.004 597.329 608.195C588.437 622.261 574.048 630.183 552.707 632.446L543.815 633.254L533.791 624.201C522.15 613.369 516.653 603.021 513.096 585.561C510.833 574.405 510.833 572.465 513.096 564.705C517.785 548.699 528.132 540.453 554 532.531C572.754 526.711 598.622 521.376 612.688 520.406C624.813 519.597 627.077 519.921 631.765 522.831C635.322 525.094 636.939 527.358 636.939 530.106C636.939 534.31 635.484 535.118 624.813 536.735C598.137 540.938 585.527 545.627 587.305 550.962C588.437 554.681 593.449 553.872 619.478 545.304C651.975 534.795 655.855 532.046 657.957 517.011C660.705 496.478 654.076 472.389 643.406 464.79C627.077 453.149 594.58 452.018 571.623 462.203C562.245 466.407 549.15 479.664 549.958 483.867C550.443 485.323 551.737 486.293 553.03 485.969C582.94 477.562 582.616 477.562 601.371 478.047C615.436 478.371 621.418 479.179 625.945 481.442C634.029 485.484 637.424 490.819 635.322 496.316C634.029 499.712 632.735 500.358 627.723 500.358C624.328 500.358 615.113 501.49 607.029 502.783C594.095 505.047 583.101 508.442 532.659 526.064C525.545 528.651 517.3 531.076 514.552 531.561C509.378 532.531 509.216 532.37 509.216 527.358C509.216 520.568 517.138 503.915 524.09 496.155C528.456 491.304 530.072 487.424 531.527 479.341C537.509 445.874 550.605 427.12 575.179 416.934C585.365 412.731 586.012 412.246 583.748 409.821C579.868 405.617 563.215 407.072 559.174 411.922C555.617 416.288 555.132 413.216 558.365 406.749C561.437 400.929 580.515 382.983 591.67 375.707C614.951 360.348 636.131 352.588 667.657 347.738C677.357 346.283 698.698 346.929 712.926 349.193ZM760.135 620.159C762.236 622.907 767.248 627.919 771.614 631.314L779.212 637.458L769.188 644.248C754.961 653.625 738.632 661.224 722.626 665.589C710.662 668.823 705.004 669.308 679.783 669.308C654.4 669.308 648.903 668.823 636.131 665.428C620.771 661.547 603.634 654.272 591.993 646.835L585.041 642.47L592.155 636.973C596.197 633.901 601.532 628.728 604.281 625.656C610.263 618.38 615.921 617.895 626.753 623.877C644.376 633.578 655.046 638.105 666.525 640.368C685.28 644.248 695.627 641.985 723.435 628.243C754.799 612.722 754.638 612.722 760.135 620.159ZM548.826 737.858C546.078 748.043 546.078 749.822 548.503 764.049C553.192 791.372 571.461 842.299 588.922 876.251C618.67 934.292 672.831 1008.02 685.603 1008.02C691.746 1008.02 702.902 994.596 728.447 956.118C764.338 902.119 786.488 860.083 805.565 809.964C819.307 773.749 822.218 755.318 817.367 736.726C816.236 732.037 815.912 728.319 816.721 728.319C820.277 728.319 831.271 737.049 840.972 747.558C853.259 760.815 866.84 780.701 875.247 797.515C882.36 811.581 892.384 840.844 892.384 847.149C892.384 852.646 883.654 861.053 871.69 866.874C867.001 869.137 862.959 871.562 862.474 872.209C862.151 872.856 863.93 880.939 866.678 890.155C873.63 914.244 875.57 928.633 873.145 936.879C866.84 958.22 841.133 967.435 818.822 956.28C813.487 953.693 808.637 951.429 808.152 951.429C806.859 951.429 805.727 955.148 801.847 973.74C796.835 997.345 790.691 1006.4 776.949 1010.44C767.733 1013.19 751.889 1013.67 743.806 1011.25C738.632 1009.79 737.985 1010.12 732.003 1016.26C728.447 1019.98 721.495 1024.83 716.483 1027.09C708.076 1030.97 705.489 1031.46 687.058 1031.46C668.627 1031.46 666.04 1031.13 657.957 1027.25C653.106 1024.99 645.346 1019.82 640.981 1015.61L632.735 1008.34L622.388 1010.76C609.131 1013.84 597.652 1012.7 587.143 1007.37C574.533 1000.9 570.167 993.141 564.994 967.435C563.539 959.998 561.599 953.208 560.952 952.399C560.305 951.753 556.425 952.884 552.545 955.148C534.599 965.657 510.995 960.16 500.001 942.861C496.121 936.717 495.959 935.262 496.767 922.49C497.252 914.083 499.516 901.795 502.588 891.61C505.336 882.233 507.6 874.149 507.6 873.502C507.6 873.017 502.264 870.431 495.959 868.005C484.157 863.64 473.648 855.395 473.648 850.706C473.648 846.018 485.288 815.138 494.019 796.545C503.719 775.689 509.54 766.151 520.533 751.923C528.779 741.091 550.12 722.337 550.928 725.085C551.252 726.055 550.282 731.876 548.826 737.858ZM780.829 772.133C780.829 791.695 764.177 837.611 738.794 888.376C713.734 938.495 691.585 970.83 682.531 970.83C674.124 970.83 658.442 947.711 633.867 898.885C613.334 857.982 597.975 816.593 595.55 795.09C594.58 787.815 594.904 786.522 597.167 786.522C598.622 786.522 599.754 785.552 599.754 784.42C599.754 783.45 601.047 784.42 602.664 786.683C604.119 789.108 609.131 796.384 613.658 802.851C618.185 809.479 626.915 822.898 633.059 832.599C649.873 859.275 674.771 889.346 670.082 877.382C669.597 875.927 668.627 865.904 668.142 855.233C667.334 838.904 667.657 835.509 669.759 833.73C671.861 831.79 693.848 828.395 705.65 827.91C710.339 827.749 710.501 828.072 710.986 835.024C711.632 843.754 708.561 879.484 706.459 886.598C701.609 903.574 717.291 874.311 730.063 842.784C733.943 833.084 740.41 814.491 744.614 801.557C752.374 776.983 752.859 776.174 766.925 765.181C773.554 760.007 775.009 759.522 777.757 761.139C780.182 762.594 780.829 764.857 780.829 772.133Z" fill="#73230D"/>
<path d="M674.124 377.001C660.22 378.456 641.628 382.983 630.795 387.51C624.328 390.258 619.316 392.683 619.801 393.168C620.125 393.653 625.783 392.36 632.412 390.581C650.843 385.246 684.956 382.983 706.944 385.408C724.081 387.186 741.866 390.42 749.303 392.845L752.536 393.977L749.303 391.228C745.584 388.156 724.081 381.366 711.309 379.264C699.83 377.324 681.399 376.192 674.124 377.001Z" fill="#73230D"/>
<path d="M657.148 414.833C636.616 415.803 628.208 416.773 615.921 420.168C607.676 422.593 600.562 424.695 600.239 425.018C598.46 426.796 687.381 427.443 712.926 425.988C729.417 425.018 746.877 424.533 751.728 425.18C763.045 426.311 759.811 424.048 743.644 419.683C724.89 414.509 699.668 413.054 657.148 414.833Z" fill="#73230D"/>
<path d="M639.364 706.655C641.142 708.11 645.831 710.858 649.873 712.798C656.34 715.87 659.897 716.193 683.824 716.193C707.752 716.193 711.309 715.87 717.776 712.798C721.818 710.858 726.506 708.11 728.285 706.655C731.357 704.229 730.387 704.229 716.159 705.2C696.435 706.816 670.891 706.816 651.49 705.2C637.101 704.068 636.292 704.229 639.364 706.655Z" fill="#73230D"/>
<path d="M461.927 617.37C463.059 619.148 472.516 621.29 476.558 623.553L483.834 627.757L478.337 630.505C464.433 637.781 437.918 662.517 426.924 678.684C421.266 687.091 412.212 705.846 412.212 709.402C412.212 711.181 414.475 711.343 423.529 710.211C449.397 707.139 474.941 695.337 494.019 677.714C506.306 666.235 517.421 645.946 517.098 637.377C517.096 637.331 517.094 637.286 517.092 637.243C516.9 633.112 515.178 637.852 513.258 644.571C510.025 656.535 503.719 665.75 491.109 677.229C473.325 693.397 449.074 704.391 423.206 708.109C413.667 709.564 413.505 708.594 420.457 695.175C432.421 672.217 453.115 649.583 474.941 635.517C481.408 631.314 486.259 627.11 485.774 626.302C485.127 625.494 482.055 623.392 478.822 621.613C475.588 619.835 465.565 615.551 465.565 615.551C465.565 615.551 453.035 618.017 461.927 617.37Z" fill="#73230D"/>
<path d="M449.235 621.492C421.265 640.731 394.912 676.461 385.535 707.988C380.523 724.64 380.847 727.227 388.284 730.137C403.804 736.281 432.259 734.826 456.834 726.58C497.737 712.838 521.988 689.557 523.928 662.557C524.737 651.402 521.503 637.336 517.946 636.204C516.169 635.612 515.884 635.834 517.092 637.243C517.203 637.372 517.326 637.51 517.461 637.66C520.372 641.216 522.473 659.647 521.018 667.893C519.402 675.976 513.743 686.485 506.468 694.892C494.827 708.149 465.079 723.185 439.373 729.005C425.469 732.077 395.236 731.592 389.092 728.197C384.404 725.772 384.242 720.598 388.769 706.048C397.984 675.653 436.868 631.435 461.927 617.37C466.777 614.621 465.565 615.551 465.565 615.551C465.565 615.551 457.804 615.672 449.235 621.492Z" fill="#73230D"/>
<path d="M476.558 623.553C472.516 621.29 463.059 619.148 461.927 617.37C436.868 631.435 397.984 675.653 388.769 706.048C384.242 720.598 384.404 725.772 389.092 728.197C395.236 731.592 425.469 732.077 439.373 729.005C465.079 723.185 494.827 708.149 506.468 694.892C513.743 686.485 519.402 675.976 521.018 667.893C522.473 659.647 520.372 641.216 517.461 637.66C517.326 637.51 517.203 637.372 517.092 637.243C517.094 637.286 517.096 637.331 517.098 637.377C517.421 645.946 506.306 666.235 494.019 677.714C474.941 695.337 449.397 707.139 423.529 710.211C414.475 711.343 412.212 711.181 412.212 709.402C412.212 705.846 421.266 687.091 426.924 678.684C437.918 662.517 464.433 637.781 478.337 630.505L483.834 627.757L476.558 623.553Z" fill="#73230D"/>
<path d="M449.397 797.354C436.786 799.779 386.506 822.575 379.554 829.042C374.865 833.407 374.218 836.964 372.602 868.976C370.823 904.221 361.769 1019.66 357.243 1067.19C355.464 1085.78 353.201 1109.39 352.392 1119.57C350.291 1143.18 339.62 1232.74 338.65 1236.14C337.195 1240.5 341.883 1242.6 354.494 1243.57C365.165 1244.38 366.62 1244.22 367.59 1241.47C369.045 1237.92 372.278 1211.56 375.835 1174.38C385.374 1074.3 386.991 1055.39 393.619 966.788C395.883 936.555 398.469 903.089 399.278 892.418C400.086 881.748 401.38 865.904 401.865 857.173L402.996 841.329L410.433 837.449C414.475 835.509 422.397 831.952 428.056 829.689L438.08 825.485V943.346V1061.37L441.798 1063.63C450.205 1069.13 540.743 1077.21 635.322 1080.93C687.705 1082.87 781.799 1080.93 830.463 1076.73C887.696 1071.71 920.192 1067.51 924.396 1064.12C926.012 1062.82 926.336 1039.22 926.012 944.639C925.689 879.969 925.527 826.94 925.527 826.94C925.527 826.94 929.246 828.395 933.611 830.012C938.138 831.79 946.545 835.347 952.527 837.934C962.227 842.299 963.359 843.431 964.167 848.281C964.652 851.191 966.593 877.544 968.371 906.969C970.149 936.232 972.413 968.729 973.221 978.914C974.03 989.099 975.485 1007.37 976.455 1019.33C980.335 1068 983.407 1099.52 991.975 1180.2C998.119 1238.4 998.442 1240.66 999.574 1241.96C1001.68 1243.9 1024.8 1243.25 1026.9 1241.15C1028.35 1239.69 1028.19 1234.84 1026.09 1219.32C1019.14 1169.2 1010.57 1089.01 1004.75 1018.52C1000.54 968.405 992.946 858.467 993.431 857.982C994.077 857.173 1023.99 876.089 1034.66 884.011C1081.87 919.095 1110.64 963.07 1137.48 1041.16C1149.77 1076.4 1167.55 1143.82 1176.93 1189.41C1177.9 1194.43 1179.68 1199.28 1180.81 1200.25C1183.56 1202.51 1197.63 1198.47 1202.48 1193.94C1205.87 1190.71 1206.19 1187.96 1203.45 1179.55C1202.96 1178.26 1200.54 1167.26 1197.79 1155.3C1187.12 1106.64 1173.86 1060.56 1159.63 1022.08C1131.99 947.226 1105.79 907.777 1061.01 873.502C1039.35 856.85 1019.95 845.371 983.73 827.749C932.479 802.689 900.791 791.857 898.366 798.162C898.043 799.294 898.366 842.138 899.174 893.227C900.63 986.351 900.468 1039.22 898.689 1041C897.396 1042.29 854.067 1047.79 822.056 1050.7C724.081 1059.59 613.011 1057.65 498.707 1045.04C481.893 1043.26 467.504 1041.16 466.858 1040.51C466.049 1039.87 465.403 984.896 465.241 918.286L464.756 797.031L459.097 796.869C456.025 796.707 451.66 796.869 449.397 797.354ZM462.654 919.741C462.977 986.836 463.462 1042.13 463.948 1042.61C465.726 1044.23 520.533 1050.21 573.078 1054.25C615.436 1057.65 725.86 1058.94 771.128 1056.68C808.799 1054.74 857.301 1050.21 884.947 1046.01C893.839 1044.72 901.438 1043.58 901.761 1043.58C902.246 1043.58 902.085 988.614 901.6 921.52C900.63 813.198 900.791 799.294 902.893 798.324C910.33 795.575 989.874 830.82 1026.57 853.131C1088.98 891.125 1119.21 927.663 1149.12 1001.55C1160.76 1030.65 1171.11 1061.21 1180.16 1094.51C1187.76 1122.32 1202.8 1185.7 1202.8 1189.9C1202.8 1192.32 1187.44 1199.28 1183.72 1198.47C1182.27 1198.14 1180.65 1195.56 1179.84 1192.32C1156.07 1076.57 1127.3 992.98 1094.48 943.184C1073.78 911.658 1034.33 876.251 1001.19 859.437C997.472 857.658 994.077 855.395 993.431 854.425C990.844 850.221 990.197 854.101 991.167 867.682C991.814 875.928 993.269 895.49 994.239 911.011C996.664 950.783 1004.42 1047.63 1007.33 1076.73C1013.48 1138.32 1020.11 1195.4 1024.15 1223.04C1025.93 1234.84 1025.93 1238.56 1024.47 1239.53C1023.34 1240.34 1017.84 1240.66 1012.02 1240.5L1001.51 1240.02L999.574 1226.28C992.945 1179.07 979.527 1034.21 973.221 943.346C965.946 836.964 966.593 843.108 962.874 840.683C959.317 838.257 926.497 823.707 924.881 823.707C924.396 823.707 923.911 877.059 923.911 942.376C923.911 1007.69 923.426 1061.53 922.779 1062.18C919.222 1065.73 843.073 1074.14 783.254 1077.54C745.099 1079.64 604.442 1078.18 564.994 1075.27C510.186 1071.23 471.385 1067.51 452.469 1064.44C442.607 1062.98 441.475 1062.34 440.666 1058.46C440.181 1056.03 440.02 1001.87 440.505 938.01C440.99 874.311 440.99 822.09 440.666 822.09C440.181 822.09 431.128 825.809 420.619 830.335L401.218 838.419L400.248 847.635C399.278 856.365 397.338 882.394 389.577 987.806C383.434 1071.39 369.206 1223.69 366.135 1238.4C365.488 1241.31 364.518 1241.63 353.686 1240.83L341.883 1240.02L342.369 1233.55C342.53 1229.99 344.147 1214.64 345.925 1199.6C357.081 1105.67 370.5 950.621 375.997 854.748C376.004 854.63 376.01 854.513 376.017 854.396C377.129 835.341 377.158 834.838 381.979 830.82C393.458 821.12 447.133 798.162 458.612 797.839H462.331L462.654 919.741Z" fill="#73230D"/>
<path d="M449.397 797.354C436.786 799.779 386.506 822.575 379.554 829.042C374.865 833.407 374.218 836.964 372.602 868.976C370.823 904.221 361.769 1019.66 357.243 1067.19C355.464 1085.78 353.201 1109.39 352.392 1119.57C350.291 1143.18 339.62 1232.74 338.65 1236.14C337.195 1240.5 341.883 1242.6 354.494 1243.57C365.165 1244.38 366.62 1244.22 367.59 1241.47C369.045 1237.92 372.278 1211.56 375.835 1174.38C385.374 1074.3 386.991 1055.39 393.619 966.788C395.883 936.555 398.469 903.089 399.278 892.418C400.086 881.748 401.38 865.904 401.865 857.173L402.996 841.329L410.433 837.449C414.475 835.509 422.397 831.952 428.056 829.689L438.08 825.485V943.346V1061.37L441.798 1063.63C450.205 1069.13 540.743 1077.21 635.322 1080.93C687.705 1082.87 781.799 1080.93 830.463 1076.73C887.696 1071.71 920.192 1067.51 924.396 1064.12C926.012 1062.82 926.336 1039.22 926.012 944.639C925.689 879.969 925.527 826.94 925.527 826.94C925.527 826.94 929.246 828.395 933.611 830.012C938.138 831.79 946.545 835.347 952.527 837.934C962.227 842.299 963.359 843.431 964.167 848.281C964.652 851.191 966.593 877.544 968.371 906.969C970.149 936.232 972.413 968.729 973.221 978.914C974.03 989.099 975.485 1007.37 976.455 1019.33C980.335 1068 983.407 1099.52 991.975 1180.2C998.119 1238.4 998.442 1240.66 999.574 1241.96C1001.68 1243.9 1024.8 1243.25 1026.9 1241.15C1028.35 1239.69 1028.19 1234.84 1026.09 1219.32C1019.14 1169.2 1010.57 1089.01 1004.75 1018.52C1000.54 968.405 992.946 858.467 993.431 857.982C994.077 857.173 1023.99 876.089 1034.66 884.011C1081.87 919.095 1110.64 963.07 1137.48 1041.16C1149.77 1076.4 1167.55 1143.82 1176.93 1189.41C1177.9 1194.43 1179.68 1199.28 1180.81 1200.25C1183.56 1202.51 1197.63 1198.47 1202.48 1193.94C1205.87 1190.71 1206.19 1187.96 1203.45 1179.55C1202.96 1178.26 1200.54 1167.26 1197.79 1155.3C1187.12 1106.64 1173.86 1060.56 1159.63 1022.08C1131.99 947.226 1105.79 907.777 1061.01 873.502C1039.35 856.85 1019.95 845.371 983.73 827.749C932.479 802.689 900.791 791.857 898.366 798.162C898.043 799.294 898.366 842.138 899.174 893.227C900.63 986.351 900.468 1039.22 898.689 1041C897.396 1042.29 854.067 1047.79 822.056 1050.7C724.081 1059.59 613.011 1057.65 498.707 1045.04C481.893 1043.26 467.504 1041.16 466.858 1040.51C466.049 1039.87 465.403 984.896 465.241 918.286L464.756 797.031L459.097 796.869C456.025 796.707 451.66 796.869 449.397 797.354ZM462.654 919.741C462.977 986.836 463.462 1042.13 463.948 1042.61C465.726 1044.23 520.533 1050.21 573.078 1054.25C615.436 1057.65 725.86 1058.94 771.128 1056.68C808.799 1054.74 857.301 1050.21 884.947 1046.01C893.839 1044.72 901.438 1043.58 901.761 1043.58C902.246 1043.58 902.085 988.614 901.6 921.52C900.63 813.198 900.791 799.294 902.893 798.324C910.33 795.575 989.874 830.82 1026.57 853.131C1088.98 891.125 1119.21 927.663 1149.12 1001.55C1160.76 1030.65 1171.11 1061.21 1180.16 1094.51C1187.76 1122.32 1202.8 1185.7 1202.8 1189.9C1202.8 1192.32 1187.44 1199.28 1183.72 1198.47C1182.27 1198.14 1180.65 1195.56 1179.84 1192.32C1156.07 1076.57 1127.3 992.98 1094.48 943.184C1073.78 911.658 1034.33 876.251 1001.19 859.437C997.472 857.658 994.077 855.395 993.431 854.425C990.844 850.221 990.197 854.101 991.167 867.682C991.814 875.928 993.269 895.49 994.239 911.011C996.664 950.783 1004.42 1047.63 1007.33 1076.73C1013.48 1138.32 1020.11 1195.4 1024.15 1223.04C1025.93 1234.84 1025.93 1238.56 1024.47 1239.53C1023.34 1240.34 1017.84 1240.66 1012.02 1240.5L1001.51 1240.02L999.574 1226.28C992.945 1179.07 979.527 1034.21 973.221 943.346C965.946 836.964 966.593 843.108 962.874 840.683C959.317 838.257 926.497 823.707 924.881 823.707C924.396 823.707 923.911 877.059 923.911 942.376C923.911 1007.69 923.426 1061.53 922.779 1062.18C919.222 1065.73 843.073 1074.14 783.254 1077.54C745.099 1079.64 604.442 1078.18 564.994 1075.27C510.186 1071.23 471.385 1067.51 452.469 1064.44C442.607 1062.98 441.475 1062.34 440.666 1058.46C440.181 1056.03 440.02 1001.87 440.505 938.01C440.99 874.311 440.99 822.09 440.666 822.09C440.181 822.09 431.128 825.809 420.619 830.335L401.218 838.419L400.248 847.635C399.278 856.365 397.338 882.394 389.577 987.806C383.434 1071.39 369.206 1223.69 366.135 1238.4C365.488 1241.31 364.518 1241.63 353.686 1240.83L341.883 1240.02L342.369 1233.55C342.53 1229.99 344.147 1214.64 345.925 1199.6C357.081 1105.67 370.5 950.621 375.997 854.748C376.004 854.63 376.01 854.513 376.017 854.396C377.129 835.341 377.158 834.838 381.979 830.82C393.458 821.12 447.133 798.162 458.612 797.839H462.331L462.654 919.741Z" fill="#73230D"/>
<path d="M462.654 919.741C462.977 986.836 463.462 1042.13 463.948 1042.61C465.726 1044.23 520.533 1050.21 573.078 1054.25C615.436 1057.65 725.86 1058.94 771.128 1056.68C808.799 1054.74 857.301 1050.21 884.947 1046.01C893.839 1044.72 901.438 1043.58 901.761 1043.58C902.246 1043.58 902.085 988.614 901.6 921.52C900.63 813.198 900.791 799.294 902.893 798.324C910.33 795.575 989.874 830.82 1026.57 853.131C1088.98 891.125 1119.21 927.663 1149.12 1001.55C1160.76 1030.65 1171.11 1061.21 1180.16 1094.51C1187.76 1122.32 1202.8 1185.7 1202.8 1189.9C1202.8 1192.32 1187.44 1199.28 1183.72 1198.47C1182.27 1198.14 1180.65 1195.56 1179.84 1192.32C1156.07 1076.57 1127.3 992.98 1094.48 943.184C1073.78 911.658 1034.33 876.251 1001.19 859.437C997.472 857.658 994.077 855.395 993.431 854.425C990.844 850.221 990.197 854.101 991.167 867.682C991.814 875.928 993.269 895.49 994.239 911.011C996.664 950.783 1004.42 1047.63 1007.33 1076.73C1013.48 1138.32 1020.11 1195.4 1024.15 1223.04C1025.93 1234.84 1025.93 1238.56 1024.47 1239.53C1023.34 1240.34 1017.84 1240.66 1012.02 1240.5L1001.51 1240.02L999.574 1226.28C992.945 1179.07 979.527 1034.21 973.221 943.346C965.946 836.964 966.593 843.108 962.874 840.683C959.317 838.257 926.497 823.707 924.881 823.707C924.396 823.707 923.911 877.059 923.911 942.376C923.911 1007.69 923.426 1061.53 922.779 1062.18C919.222 1065.73 843.073 1074.14 783.254 1077.54C745.099 1079.64 604.442 1078.18 564.994 1075.27C510.186 1071.23 471.385 1067.51 452.469 1064.44C442.607 1062.98 441.475 1062.34 440.666 1058.46C440.181 1056.03 440.02 1001.87 440.505 938.01C440.99 874.311 440.99 822.09 440.666 822.09C440.181 822.09 431.128 825.809 420.619 830.335L401.218 838.419L400.248 847.635C399.278 856.365 397.338 882.394 389.577 987.806C383.434 1071.39 369.206 1223.69 366.135 1238.4C365.488 1241.31 364.518 1241.63 353.686 1240.83L341.883 1240.02L342.369 1233.55C342.53 1229.99 344.147 1214.64 345.925 1199.6C357.081 1105.67 370.5 950.621 375.997 854.748L376.017 854.396C377.129 835.341 377.158 834.838 381.979 830.82C393.458 821.12 447.133 798.162 458.612 797.839H462.331L462.654 919.741Z" fill="#73230D"/>
<path d="M462.654 919.741C462.977 986.836 463.462 1042.13 463.948 1042.61C465.726 1044.23 520.533 1050.21 573.078 1054.25C615.436 1057.65 725.86 1058.94 771.128 1056.68C808.799 1054.74 857.301 1050.21 884.947 1046.01C893.839 1044.72 901.438 1043.58 901.761 1043.58C902.246 1043.58 902.085 988.614 901.6 921.52C900.63 813.198 900.791 799.294 902.893 798.324C910.33 795.575 989.874 830.82 1026.57 853.131C1088.98 891.125 1119.21 927.663 1149.12 1001.55C1160.76 1030.65 1171.11 1061.21 1180.16 1094.51C1187.76 1122.32 1202.8 1185.7 1202.8 1189.9C1202.8 1192.32 1187.44 1199.28 1183.72 1198.47C1182.27 1198.14 1180.65 1195.56 1179.84 1192.32C1156.07 1076.57 1127.3 992.98 1094.48 943.184C1073.78 911.658 1034.33 876.251 1001.19 859.437C997.472 857.658 994.077 855.395 993.431 854.425C990.844 850.221 990.197 854.101 991.167 867.682C991.814 875.928 993.269 895.49 994.239 911.011C996.664 950.783 1004.42 1047.63 1007.33 1076.73C1013.48 1138.32 1020.11 1195.4 1024.15 1223.04C1025.93 1234.84 1025.93 1238.56 1024.47 1239.53C1023.34 1240.34 1017.84 1240.66 1012.02 1240.5L1001.51 1240.02L999.574 1226.28C992.945 1179.07 979.527 1034.21 973.221 943.346C965.946 836.964 966.593 843.108 962.874 840.683C959.317 838.257 926.497 823.707 924.881 823.707C924.396 823.707 923.911 877.059 923.911 942.376C923.911 1007.69 923.426 1061.53 922.779 1062.18C919.222 1065.73 843.073 1074.14 783.254 1077.54C745.099 1079.64 604.442 1078.18 564.994 1075.27C510.186 1071.23 471.385 1067.51 452.469 1064.44C442.607 1062.98 441.475 1062.34 440.666 1058.46C440.181 1056.03 440.02 1001.87 440.505 938.01C440.99 874.311 440.99 822.09 440.666 822.09C440.181 822.09 431.128 825.809 420.619 830.335L401.218 838.419L400.248 847.635C399.278 856.365 397.338 882.394 389.577 987.806C383.434 1071.39 369.206 1223.69 366.135 1238.4C365.488 1241.31 364.518 1241.63 353.686 1240.83L341.883 1240.02L342.369 1233.55C342.53 1229.99 344.147 1214.64 345.925 1199.6C357.081 1105.67 370.5 950.621 375.997 854.748L376.017 854.396C377.129 835.341 377.158 834.838 381.979 830.82C393.458 821.12 447.133 798.162 458.612 797.839H462.331L462.654 919.741Z" fill="#73230D"/>
<path d="M915.893 797.172C928.503 799.597 978.784 822.393 985.736 828.86C990.425 833.226 991.071 836.782 992.688 868.794C994.467 904.039 1003.52 1019.47 1008.05 1067.01C1009.83 1085.6 1012.09 1109.2 1012.9 1119.39C1015 1142.99 1025.67 1232.56 1026.64 1235.96C1028.09 1240.32 1023.41 1242.42 1010.8 1243.39C1000.13 1244.2 998.67 1244.04 997.7 1241.29C996.245 1237.73 993.011 1211.38 989.455 1174.2C979.916 1074.12 978.299 1055.2 971.67 966.607C969.407 936.374 966.82 902.907 966.012 892.237C965.203 881.566 963.91 865.722 963.425 856.992L962.293 841.148L954.856 837.267C950.814 835.327 942.892 831.77 937.234 829.507L927.21 825.304V943.164V1061.19L923.492 1063.45C915.084 1068.95 824.547 1077.03 729.968 1080.75C677.585 1082.69 583.491 1080.75 534.827 1076.55C477.594 1071.53 445.098 1067.33 440.894 1063.93C439.277 1062.64 438.954 1039.04 439.277 944.457C439.601 879.788 439.762 826.759 439.762 826.759C439.762 826.759 436.044 828.214 431.679 829.83C427.152 831.609 418.745 835.166 412.763 837.752C403.062 842.118 401.931 843.249 401.122 848.1C400.637 851.01 398.697 877.363 396.919 906.787C395.14 936.05 392.877 968.547 392.068 978.732C391.26 988.918 389.805 1007.19 388.835 1019.15C384.955 1067.81 381.883 1099.34 373.314 1180.02C367.171 1238.22 366.847 1240.48 365.716 1241.78C363.614 1243.72 340.494 1243.07 338.393 1240.97C336.937 1239.51 337.099 1234.66 339.201 1219.14C346.153 1169.02 354.722 1088.83 360.542 1018.34C364.745 968.224 372.344 858.285 371.859 857.8C371.212 856.992 341.303 875.908 330.632 883.83C283.423 918.913 254.645 962.888 227.807 1040.98C215.52 1076.22 197.736 1143.64 188.359 1189.23C187.389 1194.24 185.61 1199.09 184.479 1200.06C181.73 1202.33 167.665 1198.29 162.814 1193.76C159.419 1190.53 159.096 1187.78 161.844 1179.37C162.329 1178.08 164.754 1167.08 167.503 1155.12C178.173 1106.45 191.431 1060.38 205.658 1021.9C233.304 947.044 259.496 907.596 304.279 873.321C325.944 856.668 345.345 845.189 381.56 827.567C432.81 802.507 464.498 791.675 466.924 797.981C467.247 799.112 466.924 841.956 466.115 893.045C464.66 986.169 464.822 1039.04 466.6 1040.82C467.894 1042.11 511.222 1047.61 543.234 1050.52C641.208 1059.41 752.279 1057.47 866.582 1044.86C883.396 1043.08 897.785 1040.98 898.432 1040.33C899.24 1039.68 899.887 984.714 900.049 918.105L900.534 796.849L906.192 796.687C909.264 796.526 913.629 796.687 915.893 797.172ZM902.636 919.56C902.312 986.654 901.827 1041.95 901.342 1042.43C899.564 1044.05 844.756 1050.03 792.212 1054.07C749.853 1057.47 639.43 1058.76 594.161 1056.5C556.491 1054.56 507.989 1050.03 480.343 1045.83C471.45 1044.53 463.852 1043.4 463.528 1043.4C463.043 1043.4 463.205 988.433 463.69 921.338C464.66 813.016 464.498 799.112 462.397 798.142C454.96 795.394 375.416 830.639 338.716 852.95C276.31 890.943 246.077 927.482 216.167 1001.37C204.526 1030.47 194.179 1061.02 185.125 1094.33C177.527 1122.14 162.491 1185.51 162.491 1189.72C162.491 1192.14 177.85 1199.09 181.569 1198.29C183.024 1197.96 184.64 1195.38 185.449 1192.14C209.215 1076.38 237.993 992.798 270.813 943.002C291.507 911.476 330.956 876.069 364.099 859.255C367.817 857.477 371.212 855.213 371.859 854.243C374.446 850.04 375.093 853.92 374.123 867.5C373.476 875.746 372.021 895.308 371.051 910.829C368.626 950.601 360.865 1047.44 357.955 1076.55C351.812 1138.14 345.183 1195.21 341.141 1222.86C339.363 1234.66 339.363 1238.38 340.818 1239.35C341.949 1240.16 347.446 1240.48 353.267 1240.32L363.775 1239.84L365.716 1226.09C372.344 1178.89 385.763 1034.02 392.068 943.164C399.344 836.782 398.697 842.926 402.416 840.501C405.972 838.076 438.792 823.525 440.409 823.525C440.894 823.525 441.379 876.878 441.379 942.194C441.379 1007.51 441.864 1061.35 442.511 1061.99C446.068 1065.55 522.216 1073.96 582.036 1077.35C620.191 1079.46 760.847 1078 800.296 1075.09C855.103 1071.05 893.905 1067.33 912.821 1064.26C922.683 1062.8 923.815 1062.16 924.623 1058.28C925.108 1055.85 925.27 1001.69 924.785 937.829C924.3 874.129 924.3 821.908 924.623 821.908C925.108 821.908 934.162 825.627 944.671 830.154L964.072 838.237L965.042 847.453C966.012 856.183 967.952 882.213 975.712 987.624C981.856 1071.21 996.083 1223.51 999.155 1238.22C999.802 1241.13 1000.77 1241.45 1011.6 1240.64L1023.41 1239.84L1022.92 1233.37C1022.76 1229.81 1021.14 1214.45 1019.36 1199.42C1008.21 1105.48 994.79 950.439 989.293 854.567C989.286 854.448 989.279 854.331 989.272 854.214C988.161 835.16 988.132 834.656 983.311 830.639C971.832 820.938 918.156 797.981 906.677 797.657H902.959L902.636 919.56Z" fill="#73230D"/>
<path d="M915.893 797.172C928.503 799.597 978.784 822.393 985.736 828.86C990.425 833.226 991.071 836.782 992.688 868.794C994.467 904.039 1003.52 1019.47 1008.05 1067.01C1009.83 1085.6 1012.09 1109.2 1012.9 1119.39C1015 1142.99 1025.67 1232.56 1026.64 1235.96C1028.09 1240.32 1023.41 1242.42 1010.8 1243.39C1000.13 1244.2 998.67 1244.04 997.7 1241.29C996.245 1237.73 993.011 1211.38 989.455 1174.2C979.916 1074.12 978.299 1055.2 971.67 966.607C969.407 936.374 966.82 902.907 966.012 892.237C965.203 881.566 963.91 865.722 963.425 856.992L962.293 841.148L954.856 837.267C950.814 835.327 942.892 831.77 937.234 829.507L927.21 825.304V943.164V1061.19L923.492 1063.45C915.084 1068.95 824.547 1077.03 729.968 1080.75C677.585 1082.69 583.491 1080.75 534.827 1076.55C477.594 1071.53 445.098 1067.33 440.894 1063.93C439.277 1062.64 438.954 1039.04 439.277 944.457C439.601 879.788 439.762 826.759 439.762 826.759C439.762 826.759 436.044 828.214 431.679 829.83C427.152 831.609 418.745 835.166 412.763 837.752C403.062 842.118 401.931 843.249 401.122 848.1C400.637 851.01 398.697 877.363 396.919 906.787C395.14 936.05 392.877 968.547 392.068 978.732C391.26 988.918 389.805 1007.19 388.835 1019.15C384.955 1067.81 381.883 1099.34 373.314 1180.02C367.171 1238.22 366.847 1240.48 365.716 1241.78C363.614 1243.72 340.494 1243.07 338.393 1240.97C336.937 1239.51 337.099 1234.66 339.201 1219.14C346.153 1169.02 354.722 1088.83 360.542 1018.34C364.745 968.224 372.344 858.285 371.859 857.8C371.212 856.992 341.303 875.908 330.632 883.83C283.423 918.913 254.645 962.888 227.807 1040.98C215.52 1076.22 197.736 1143.64 188.359 1189.23C187.389 1194.24 185.61 1199.09 184.479 1200.06C181.73 1202.33 167.665 1198.29 162.814 1193.76C159.419 1190.53 159.096 1187.78 161.844 1179.37C162.329 1178.08 164.754 1167.08 167.503 1155.12C178.173 1106.45 191.431 1060.38 205.658 1021.9C233.304 947.044 259.496 907.596 304.279 873.321C325.944 856.668 345.345 845.189 381.56 827.567C432.81 802.507 464.498 791.675 466.924 797.981C467.247 799.112 466.924 841.956 466.115 893.045C464.66 986.169 464.822 1039.04 466.6 1040.82C467.894 1042.11 511.222 1047.61 543.234 1050.52C641.208 1059.41 752.279 1057.47 866.582 1044.86C883.396 1043.08 897.785 1040.98 898.432 1040.33C899.24 1039.68 899.887 984.714 900.049 918.105L900.534 796.849L906.192 796.687C909.264 796.526 913.629 796.687 915.893 797.172ZM902.636 919.56C902.312 986.654 901.827 1041.95 901.342 1042.43C899.564 1044.05 844.756 1050.03 792.212 1054.07C749.853 1057.47 639.43 1058.76 594.161 1056.5C556.491 1054.56 507.989 1050.03 480.343 1045.83C471.45 1044.53 463.852 1043.4 463.528 1043.4C463.043 1043.4 463.205 988.433 463.69 921.338C464.66 813.016 464.498 799.112 462.397 798.142C454.96 795.394 375.416 830.639 338.716 852.95C276.31 890.943 246.077 927.482 216.167 1001.37C204.526 1030.47 194.179 1061.02 185.125 1094.33C177.527 1122.14 162.491 1185.51 162.491 1189.72C162.491 1192.14 177.85 1199.09 181.569 1198.29C183.024 1197.96 184.64 1195.38 185.449 1192.14C209.215 1076.38 237.993 992.798 270.813 943.002C291.507 911.476 330.956 876.069 364.099 859.255C367.817 857.477 371.212 855.213 371.859 854.243C374.446 850.04 375.093 853.92 374.123 867.5C373.476 875.746 372.021 895.308 371.051 910.829C368.626 950.601 360.865 1047.44 357.955 1076.55C351.812 1138.14 345.183 1195.21 341.141 1222.86C339.363 1234.66 339.363 1238.38 340.818 1239.35C341.949 1240.16 347.446 1240.48 353.267 1240.32L363.775 1239.84L365.716 1226.09C372.344 1178.89 385.763 1034.02 392.068 943.164C399.344 836.782 398.697 842.926 402.416 840.501C405.972 838.076 438.792 823.525 440.409 823.525C440.894 823.525 441.379 876.878 441.379 942.194C441.379 1007.51 441.864 1061.35 442.511 1061.99C446.068 1065.55 522.216 1073.96 582.036 1077.35C620.191 1079.46 760.847 1078 800.296 1075.09C855.103 1071.05 893.905 1067.33 912.821 1064.26C922.683 1062.8 923.815 1062.16 924.623 1058.28C925.108 1055.85 925.27 1001.69 924.785 937.829C924.3 874.129 924.3 821.908 924.623 821.908C925.108 821.908 934.162 825.627 944.671 830.154L964.072 838.237L965.042 847.453C966.012 856.183 967.952 882.213 975.712 987.624C981.856 1071.21 996.083 1223.51 999.155 1238.22C999.802 1241.13 1000.77 1241.45 1011.6 1240.64L1023.41 1239.84L1022.92 1233.37C1022.76 1229.81 1021.14 1214.45 1019.36 1199.42C1008.21 1105.48 994.79 950.439 989.293 854.567C989.286 854.448 989.279 854.331 989.272 854.214C988.161 835.16 988.132 834.656 983.311 830.639C971.832 820.938 918.156 797.981 906.677 797.657H902.959L902.636 919.56Z" fill="#73230D"/>
<path d="M902.636 919.56C902.312 986.654 901.827 1041.95 901.342 1042.43C899.564 1044.05 844.756 1050.03 792.212 1054.07C749.853 1057.47 639.43 1058.76 594.161 1056.5C556.491 1054.56 507.989 1050.03 480.343 1045.83C471.45 1044.53 463.852 1043.4 463.528 1043.4C463.043 1043.4 463.205 988.433 463.69 921.338C464.66 813.016 464.498 799.112 462.397 798.142C454.96 795.394 375.416 830.639 338.716 852.95C276.31 890.943 246.077 927.482 216.167 1001.37C204.526 1030.47 194.179 1061.02 185.125 1094.33C177.527 1122.14 162.491 1185.51 162.491 1189.72C162.491 1192.14 177.85 1199.09 181.569 1198.29C183.024 1197.96 184.64 1195.38 185.449 1192.14C209.215 1076.38 237.993 992.798 270.813 943.002C291.507 911.476 330.956 876.069 364.099 859.255C367.817 857.477 371.212 855.213 371.859 854.243C374.446 850.04 375.093 853.92 374.123 867.5C373.476 875.746 372.021 895.308 371.051 910.829C368.626 950.601 360.865 1047.44 357.955 1076.55C351.812 1138.14 345.183 1195.21 341.141 1222.86C339.363 1234.66 339.363 1238.38 340.818 1239.35C341.949 1240.16 347.446 1240.48 353.267 1240.32L363.775 1239.84L365.716 1226.09C372.344 1178.89 385.763 1034.02 392.068 943.164C399.344 836.782 398.697 842.926 402.416 840.501C405.972 838.076 438.792 823.525 440.409 823.525C440.894 823.525 441.379 876.878 441.379 942.194C441.379 1007.51 441.864 1061.35 442.511 1061.99C446.068 1065.55 522.216 1073.96 582.036 1077.35C620.191 1079.46 760.847 1078 800.296 1075.09C855.103 1071.05 893.905 1067.33 912.821 1064.26C922.683 1062.8 923.815 1062.16 924.623 1058.28C925.108 1055.85 925.27 1001.69 924.785 937.829C924.3 874.129 924.3 821.908 924.623 821.908C925.108 821.908 934.162 825.627 944.671 830.154L964.072 838.237L965.042 847.453C966.012 856.183 967.952 882.213 975.712 987.624C981.856 1071.21 996.083 1223.51 999.155 1238.22C999.802 1241.13 1000.77 1241.45 1011.6 1240.64L1023.41 1239.84L1022.92 1233.37C1022.76 1229.81 1021.14 1214.45 1019.36 1199.42C1008.21 1105.48 994.79 950.439 989.293 854.567L989.272 854.214C988.161 835.16 988.132 834.656 983.311 830.639C971.832 820.938 918.156 797.981 906.677 797.657H902.959L902.636 919.56Z" fill="#73230D"/>
<path d="M902.636 919.56C902.312 986.654 901.827 1041.95 901.342 1042.43C899.564 1044.05 844.756 1050.03 792.212 1054.07C749.853 1057.47 639.43 1058.76 594.161 1056.5C556.491 1054.56 507.989 1050.03 480.343 1045.83C471.45 1044.53 463.852 1043.4 463.528 1043.4C463.043 1043.4 463.205 988.433 463.69 921.338C464.66 813.016 464.498 799.112 462.397 798.142C454.96 795.394 375.416 830.639 338.716 852.95C276.31 890.943 246.077 927.482 216.167 1001.37C204.526 1030.47 194.179 1061.02 185.125 1094.33C177.527 1122.14 162.491 1185.51 162.491 1189.72C162.491 1192.14 177.85 1199.09 181.569 1198.29C183.024 1197.96 184.64 1195.38 185.449 1192.14C209.215 1076.38 237.993 992.798 270.813 943.002C291.507 911.476 330.956 876.069 364.099 859.255C367.817 857.477 371.212 855.213 371.859 854.243C374.446 850.04 375.093 853.92 374.123 867.5C373.476 875.746 372.021 895.308 371.051 910.829C368.626 950.601 360.865 1047.44 357.955 1076.55C351.812 1138.14 345.183 1195.21 341.141 1222.86C339.363 1234.66 339.363 1238.38 340.818 1239.35C341.949 1240.16 347.446 1240.48 353.267 1240.32L363.775 1239.84L365.716 1226.09C372.344 1178.89 385.763 1034.02 392.068 943.164C399.344 836.782 398.697 842.926 402.416 840.501C405.972 838.076 438.792 823.525 440.409 823.525C440.894 823.525 441.379 876.878 441.379 942.194C441.379 1007.51 441.864 1061.35 442.511 1061.99C446.068 1065.55 522.216 1073.96 582.036 1077.35C620.191 1079.46 760.847 1078 800.296 1075.09C855.103 1071.05 893.905 1067.33 912.821 1064.26C922.683 1062.8 923.815 1062.16 924.623 1058.28C925.108 1055.85 925.27 1001.69 924.785 937.829C924.3 874.129 924.3 821.908 924.623 821.908C925.108 821.908 934.162 825.627 944.671 830.154L964.072 838.237L965.042 847.453C966.012 856.183 967.952 882.213 975.712 987.624C981.856 1071.21 996.083 1223.51 999.155 1238.22C999.802 1241.13 1000.77 1241.45 1011.6 1240.64L1023.41 1239.84L1022.92 1233.37C1022.76 1229.81 1021.14 1214.45 1019.36 1199.42C1008.21 1105.48 994.79 950.439 989.293 854.567L989.272 854.214C988.161 835.16 988.132 834.656 983.311 830.639C971.832 820.938 918.156 797.981 906.677 797.657H902.959L902.636 919.56Z" fill="#73230D"/>
<path d="M360.476 837.934C353.686 841.006 320.057 862.185 308.417 870.916C246.334 916.669 209.634 983.279 178.108 1106.64C171.641 1131.37 160 1186.5 160 1191.52C160 1195.07 172.126 1200.41 180.694 1200.41C184.413 1200.41 187.485 1200.08 187.485 1199.44C187.485 1198.95 190.071 1185.37 193.305 1169.2C205.269 1107.77 221.598 1050.86 240.029 1005.75C264.765 945.286 301.788 900.34 353.686 867.359C363.71 861.054 366.943 858.143 366.781 855.557C366.781 854.102 366.458 854.102 365.811 855.557C365.488 856.688 360.638 860.245 355.141 863.479C326.524 880.616 293.381 911.496 272.687 940.274C260.723 957.088 239.382 998.638 230.49 1022.57C215.454 1063.63 201.874 1113.75 191.365 1166.29C187.808 1183.76 184.251 1197.98 183.119 1198.31C181.988 1198.79 177.137 1197.82 172.287 1196.53C161.455 1193.29 161.617 1194.59 167.275 1165.65C180.048 1100.33 198.64 1037.93 219.334 990.231C238.735 945.771 265.897 908.424 298.393 881.909C310.68 871.724 340.428 851.838 357.243 842.461C363.063 839.227 366.62 836.641 365.326 836.802C364.033 836.802 361.769 837.287 360.476 837.934Z" fill="#73230D"/>
<path d="M1047.27 950.135C1034.01 974.225 1026.09 1004.62 1023.18 1043.58C1021.4 1067.83 1022.05 1082.22 1025.44 1090.31L1027.54 1095.16L1029.32 1090.79C1030.29 1088.37 1033.36 1075.43 1036.11 1062.18C1038.86 1048.76 1042.9 1029.52 1045.17 1019.33C1053.41 983.279 1056.65 946.579 1051.63 946.579C1050.34 946.579 1048.4 948.195 1047.27 950.135ZM1051.47 962.261C1050.34 980.53 1046.78 1001.87 1040.96 1027.9C1038.38 1039.22 1034.5 1057.81 1032.23 1068.97C1029.97 1080.28 1027.87 1089.66 1027.54 1090.15C1025.44 1092.09 1024.63 1075.92 1025.44 1052.64C1026.41 1026.77 1030.29 999.446 1035.47 983.279C1039.02 971.961 1049.69 948.195 1051.31 948.195C1051.96 948.195 1051.96 954.501 1051.47 962.261Z" fill="#73230D"/>
<path d="M1051.47 962.261C1050.34 980.53 1046.78 1001.87 1040.96 1027.9C1038.38 1039.22 1034.5 1057.81 1032.23 1068.97C1029.97 1080.28 1027.87 1089.66 1027.54 1090.15C1025.44 1092.09 1024.63 1075.92 1025.44 1052.64C1026.41 1026.77 1030.29 999.446 1035.47 983.279C1039.02 971.961 1049.69 948.195 1051.31 948.195C1051.96 948.195 1051.96 954.501 1051.47 962.261Z" fill="#73230D"/>
<path d="M317.107 950.135C330.364 974.225 338.286 1004.62 341.196 1043.58C342.975 1067.83 342.328 1082.22 338.933 1090.31L336.831 1095.16L335.053 1090.79C334.083 1088.37 331.011 1075.43 328.262 1062.18C325.514 1048.76 321.472 1029.52 319.209 1019.33C310.963 983.279 307.73 946.579 312.742 946.579C314.035 946.579 315.975 948.195 317.107 950.135ZM312.903 962.261C314.035 980.53 317.592 1001.87 323.412 1027.9C325.999 1039.22 329.879 1057.81 332.143 1068.97C334.406 1080.28 336.508 1089.66 336.831 1090.15C338.933 1092.09 339.741 1075.92 338.933 1052.64C337.963 1026.77 334.083 999.446 328.909 983.279C325.352 971.961 314.682 948.195 313.065 948.195C312.418 948.195 312.418 954.501 312.903 962.261Z" fill="#73230D"/>
<path d="M312.903 962.261C314.035 980.53 317.592 1001.87 323.412 1027.9C325.999 1039.22 329.879 1057.81 332.143 1068.97C334.406 1080.28 336.508 1089.66 336.831 1090.15C338.933 1092.09 339.741 1075.92 338.933 1052.64C337.963 1026.77 334.083 999.446 328.909 983.279C325.352 971.961 314.682 948.195 313.065 948.195C312.418 948.195 312.418 954.501 312.903 962.261Z" fill="#73230D"/>
</svg>
